/* XPM */
static const char *just_before_bondissement[] = {
/* columns rows colors chars-per-pixel */
"110 110 87 1 ",
"  c #010A07",
". c #020B0A",
"X c #04100F",
"o c #040F10",
"O c #0E0B14",
"+ c #170B1B",
"@ c #180E1C",
"# c #051212",
"$ c #091614",
"% c #071815",
"& c #0A1A16",
"* c #0B1718",
"= c #0C1B19",
"- c #111D1B",
"; c #0F221C",
": c #11231D",
"> c #1D0B20",
", c #220A25",
"< c #270B29",
"1 c #2B0B2D",
"2 c #2F0B31",
"3 c #340A36",
"4 c #3B0B3D",
"5 c #152421",
"6 c #192724",
"7 c #152824",
"8 c #3E0B40",
"9 c #430A44",
"0 c #470A49",
"q c #4B0A4D",
"w c #4F0B51",
"e c #520A54",
"r c #570A58",
"t c #5A0A5B",
"y c #5F0960",
"u c #600961",
"i c #620964",
"p c #6B0A6B",
"a c #6E0A6F",
"s c #700A71",
"d c #730974",
"f c #760977",
"g c #770A78",
"h c #7B097B",
"j c #7D097D",
"k c #7F0980",
"l c #830984",
"z c #870888",
"x c #8B088B",
"c c #890A8A",
"v c #8F0890",
"b c #930893",
"n c #950896",
"m c #9C079C",
"M c #9B089B",
"N c #9B089C",
"B c #A107A2",
"V c #A307A3",
"C c #A208A2",
"Z c #A706A8",
"A c #AA07AA",
"S c #AB07AB",
"D c #B306B3",
"F c #B906B9",
"G c #BE06BE",
"H c #C006C0",
"J c #C704C7",
"K c #C805C9",
"L c #CB05CC",
"P c #D404D4",
"I c #D405D4",
"U c #D604D6",
"Y c #DA03DA",
"T c #DA04DA",
"R c #DD03DD",
"E c #DC04DC",
"W c #DF03E0",
"Q c #E003E0",
"! c #E503E5",
"~ c #EB02EB",
"^ c #EC02EC",
"/ c #F002F0",
"( c #F501F5",
") c #FB01FB",
"_ c magenta",
"` c #FE06FE",
"' c #FF0DFF",
/* pixels */
"______________________________________________________________________________________________________________",
"______________________________________________________________________________________________________________",
"______________________________________________________________________________________________________________",
"______________________________________________________________________________________________________________",
"___________________________________________________________________B43<,<..303Y_______________________________",
"__________________________________________________________________)n..........K_______________________________",
"________________________________________________________________DO...######$*..OOe____________________________",
"_______________________________________________________________fe...........o####@cBJ_________________________",
"_______________________________________________________________>+++++++++O...##$$...+'________________________",
"_________________________________________________________________________~......X#$...________________________",
"_________________________________________________________________________)SBB....o##..JQ______________________",
"____________________________________________________________________________'+O...###..2'_____________________",
"______________________________________________________________________________~....###..3~____________________",
"______________________________________________________________________________)l...o###..K____________________",
"_______________________________________________________________________________'.....#$#..2___________________",
"_________________________________________________________________________________C....###.O___________________",
"_________________________________________________________________________________(G>..####.T!_________________",
"__________________________________________________________________________________'3..##$#..<_________________",
"__________________________________________________________________________________'4....o#X.O'________________",
"___________________________________________________________________________________u<...o##.O!________________",
"_______________________________________________+OOOOOOOO/__________________________'_O...##...R_______________",
"___________________________________________'99a.........sBjN_________________________O....#X..R_______________",
"____________________________________________O..............9_________________________O....##X.K'______________",
"__________________________________________fO.....#$*$##.....+G_______________________'9...##X.O<'_____________",
"________________________________________'/3.....X#$$###......qT_______________________9...o#X...`_____________",
"________________________________________^......####$$####.....O_______________________4....X##.O'_____________",
"_______________________________________'/.....#X##&&$####X.....`______________________9....X##.+______________",
"______________________________________'>O...#####&&&&&&####X...>/_____________________4....X##.O'_____________",
"______________________________________'O....###$$&====&$####..../_____________________Dy...X#$.O______________",
"______________________________________'O...#$##===&&=&&&&####...~______________________'O..X##...I____________",
"_____________________________________I.....###$===&=&&&&&$###...ws'_____________________O....#X..I____________",
"_____________________________________K....o###=&=&=:==&&&=###....O'_____________________O....###.G____________",
"_____________________________________J...####$&&=;::::&&&&&$###...'____________________'O....###.H____________",
"_____________________________________J...####$&&&;;;::=&&&==##$..._____________________'O....###.H____________",
"_____________________________________J...###&=&:;;::;;;;=&&&##$..O______________________O....###.H____________",
"________________________`+O+_________J...###&=&:;;::;;;:=&&&##$..O________~O++R________'O....###.S____________",
"________________________n...HEI/_____K...###&&=;;;::;;;;;=&=##$..O______SJF...gs______cr.....###.S____________",
"_______________________(...#...Q'____K...###&&=;;;::;;;;:=&=##$..O_____`e...X..+______2......###.m____________",
"_______________________(...###.Ow____J...###&&=;;;;;;;;;;=&&##$...____)O..###..+______4......###.m____________",
"________________________...###..+B/__K...###&&=;:;;;;;;;;&&&##$..O'_'MC.o.#o..+R______2......#.o.B____________",
"________________________....X##...L__K...###&&&=;:;;;;;;=&&&##$..O'__O..###..Ow'_____'0....###...n____________",
"________________________'p....##X..O'L...###&&&&=:;;;;;&&&%$##$..O'QO..#$#...K_______>.....###.+`'____________",
"_________________________!G....#$o..lr...####&&&=;;;;::&&&#####...t9.o##....l________O.....X##.+'_____________",
"_________________________')O...#$#o......####$&&=;;;;;=&&&#####......$$$....L'______'O.....X##.+'_____________",
"________________________'OO......#X.......###$&&&&;;==&&&$###........$#......O!___'9......###..O'_____________",
"________________________(........#X.......###$#&&&&&&&&&&$###........oo.......hM_^I2......###.4z______________",
"______________________`F..............#...#####&&&&&==&&#####...X#........###..O'J........##X.L_______________",
"_____________________'.....###........##o...###X#&&&===#####...###.....XX####$X.........X###X.D_______________",
"_____________________/.....#$$........##X...#####&&=&&&####....###.....######$#.........####.rK_______________",
"____________________K...#$$$##X##......$$#....####%%$#####....#$X.....X#####$###........###.O'________________",
"____________________I..##$$&&####........$##...#####$####....$$X.....#####&==$##X......###..>_________________",
"____________________L.X##$$:=$#####......*$#...#####$###....#$=......###$$&::$###X....X#$o.O9_________________",
"____________________I.###$$#%&#####.......X##o............o$=X.......###$#$%$$####...X##...(__________________",
"___________________Lj.######%$####.........#o#............##$........X#######$####....#o.<y)__________________",
"___________________O....#########.............####$$$$######...#.......#####$###.........i'___________________",
"_________________J8.....########........X......................#........########..o.....J!____________________",
"________________(l......X#####o........XX......................#.........######o..#.....)_____________________",
"_______________(O...#$...##X##.........X#...=$.==.=.==.=-.=-...#..........####....###...`_____________________",
"_____________'c0..oX###X.......sT.......o...-#.-=.=.==.--.-=..........,KO........X###X..+t'___________________",
"_____________`O...######.......m'O.......X..-$.6-.=.=-.-5.-=.X#......Ou_O.......##$###....`___________________",
"____________'O..o####$$$#......H_'L.X....#...................X#...X..)__O......X####$##X..O___________________",
"___________Nu...X#$$#$$X......W(__I...X..#...$:..........-...#$......___RF......###$$$##...D~_________________",
"___________9....#$&&$$#.......'___I...#..#...&5.........X:...#$..X...`___)+.....o##$$$###...3`________________",
"___________9...X%$$$##....4'``____!......###.$- X:....:..=..###......______c......###&$####...I_______________",
"_________(T1..X#&$$###...dD______TD......o##.#=.X; #..: .$.X$#.......Q^____Kcch...o##$#####...SQ______________",
"_________S...X##=$##.....^______`O........###...X7.5XX: ..###.........y'______~.....#######X...O'_____________",
"_________b...#$$#......p^_____49+......X....##$.....  . .X##...X.......y94'____(........#$$##..O'_____________",
"_________m...#$&#......j______..........X....$#X.........##....#.........._'___'........#$&#X..+______________",
"_________B...$&&###..O______cO...........X....####$#######....X...........+Q____'(....X#$$$#X..+______________",
"_________S...###=$#X..'____BO............o.o...#########o...o.X............c!____~....##$&$#X..+______________",
"_________mO...##=$##..`__').....###X......o#...X########....#......#####....O'___~....##&&=#X..+'_____________",
"__________'O..XX&$$#..Ol_4...#######X.............................########...O~__^...$&&$##...^'______________",
"__________'O...X$$&$#X.f_3..X####$###X............................########....Q_Hn...#$$$##...Q_______________",
"__________'+....##&$##.a`O...####$#####..........................####$$####...Q'.....#$$$##..OR_______________",
"____________B...##&$##......###$=$$####..........................####$$=###...~'...X#&$##...4_________________",
"____________i...##&$##.......#$&=######..........................####$$=###...W(...X#&&$#...0_________________",
"____________y.....#$&$#X....##$#####...............................##$$####....O...X#&$##...>_________________",
"____________RJ....#$&&XX.....#####o.........JJFHk.....OJHHJJF.......X######.......X##$$#...SI_________________",
"_____________`....#$$&X......#####.........O'___F.....O_____^........######.......###*$#...)__________________",
"_____________'+O...X#&###.....######XX.....O`____''''''____I......########........#$$##X...)__________________",
"______________`(...#$&###........#####......Opq'__________c4.....o##$#X....lB....#$$=#...4S`__________________",
"_______________'O..##&###....O...####$#.......+___________O......###$$X....Q'...#$=&=#...c____________________",
"_______________'.....&$$X...I'O...............+'________I................0__'O..X#&###...a____________________",
"________________Ic...$$$#o..I_^QR.............OQ^______YD.............4TT~_TE...##&##o..L^____________________",
"_________________I...#=$###.L___'...............N_____'O..........+OOOu____y....$&&##..O'_____________________",
"_________________Y...##$$##..O'__''``T..........B_____'O.........O`````____r...#&&$##..O______________________",
"_________________^D...X#=##...!)_____QjO........B_____'yr........O'_______Q...##&$$#..bi______________________",
"__________________`...##=$$#...F______'4.......OB_______Q........O'______/...X$*&$#...________________________",
"__________________`...##=&$$X#.<q)____'4......+_'_______R........O'_____f<..X$&&##....(_______________________",
"___________________...##=&&&##...~_`'_`+......+'________I........O_'`__'4..X#$&&##....(_______________________",
"_________________n+..###$&&&###..O............+'_________'................X##$&&###.../_______________________",
"_______________^v3..X####&%####..............L~___________...............#####$&$$#o..yh______________________",
"_______________....o#####&$######............W''__________,.............$$$####$#####...0_____________________",
"______________1....####X.$$##.####$#..........O_________(>...........$$####..##$..####...qQ___________________",
"______________.....##X...$$#...#####........../___________...........&###....##$..o###.....~__________________",
"_____________`+...X##....$##.....###$#....O..(_____________p........$###.....###...o####...`'_________________",
"_____________O...#o.....$##........###..>____________________l....X$$#........##$.....###...._________________",
"____________R...X#o.....$#$........#$#.O_______________________I..#$$#o........#$X....o##...O'________________",
"____________R.X###......###....OO......B________________________..###..O.......###......##X.O'________________",
"____________Y......QS..X#...J())_O.....h________________________p.....q)((/~^O..##...~p.....O'________________",
"____________H.....O'I..XX..OQ___'O.....n________________________j.....r______2..#XX..'F.....O_________________",
"_____________'''____C.....9_______'''''__________________________''''`'______'I......'______'_________________",
"____________________!FGDBBK____________________________________________________HSBmSZ_________________________",
"______________________________________________________________________________________________________________",
"______________________________________________________________________________________________________________",
"______________________________________________________________________________________________________________",
"______________________________________________________________________________________________________________",
"______________________________________________________________________________________________________________",
"______________________________________________________________________________________________________________",
"______________________________________________________________________________________________________________"
};
