/* XPM */
static const char *w2[] = {
/* columns rows colors chars-per-pixel */
"110 110 80 1 ",
"  c black",
". c black",
"X c #010609",
"o c #000406",
"O c #091214",
"+ c #030A0C",
"@ c #080C0F",
"# c #061113",
"$ c #060E11",
"% c #090F12",
"& c #091916",
"* c #0E191A",
"= c #0E1B1E",
"- c #0B1C1B",
"; c #0B1618",
": c #010907",
"> c #101B1C",
", c #0D1D1C",
"< c #111F1F",
"1 c #0C211F",
"2 c #121D20",
"3 c #132423",
"4 c #10201F",
"5 c #0F2220",
"6 c #122022",
"7 c #142121",
"8 c #22362D",
"9 c #1D312A",
"0 c #182B27",
"q c #1A2D28",
"w c #1C2F28",
"e c #1C3027",
"r c #152722",
"t c #192C24",
"y c #172A24",
"u c #21342B",
"i c #172726",
"p c #192E23",
"a c #1B3127",
"s c #203529",
"d c #20312D",
"f c #0F1E20",
"g c #1F3429",
"h c #30443A",
"j c #35493E",
"k c #33493C",
"l c #32493A",
"z c #33473C",
"x c #0D1C1C",
"c c #2E473B",
"v c #334A3B",
"b c #364F40",
"n c #2E4536",
"m c #263C31",
"M c #1E312B",
"N c #3D5245",
"B c #253A2E",
"V c #10231F",
"C c #1D3227",
"Z c #162923",
"A c #0E211C",
"S c #0C1E1C",
"D c #2A3E34",
"F c #1E2F2A",
"G c #263430",
"H c #3D4D43",
"J c #1A2621",
"K c #2D3D3A",
"L c #435047",
"P c #3A493F",
"I c #425348",
"U c #455B4B",
"Y c #384440",
"T c #222F2B",
"R c #10221D",
"E c #33443A",
"W c #39463F",
"Q c #333C3A",
"! c #1E322A",
"~ c magenta",
/* pixels */
"~~~~~~~~~~~~~~~~~~~~~~~~~~~~~~~~~~~~~~~~~~~~~~~~~~~~~~~~~~~~~~~~~~~~~~~~~~~~~~~~~~~~~~~~~~~~~~~~~~~~~~~~~~~~~~",
"~~~~~~~~~~~~~~~~~~~~~~~~~~~~~~~~~~~~~~~~~~~~~~~~~~~~~~~~~~~~~~~~~~~~~~~~~~~~~~~~~~~~~~~~~~~~~~~~~~~~~~~~~~~~~~",
"~~~~~~~~~~~~~~~~~~~~~~~~~~~~~~~~~~~~~~~~~~~~~~~~~~~~~~~~~~~~~~~~~~~~~~~~~~~~~~~~~~~~~~~~~~~~~~~~~~~~~~~~~~~~~~",
"~~~~~~~~~~~~~~~~~~~~~~~~~~~~~~~~~~~~~~~~~~~~~~~~~~~~~~~~~~~~~~~~~~~~~~~~~~~~~~~~~~~~~~~~~~~~~~~~~~~~~~~~~~~~~~",
"~~~~~~~~~~~~~~~~~~~~~~~~~~~~~~~~~~~~~~~~~~~~~~~~~~~~~~~~~~~~~~~~~~~~~~~~~~~~~~~~~~~~~~~~~~~~~~~~~~~~~~~~~~~~~~",
"~~~~~~~~~~~~~~~~~~~~~~~~~~~~~~~~~~~~~~~~~~~~~~~~~~~~~~~~~~~~~~~~~~~~~~~~~~~~~~~~~~~~~~~~~~~~~~~~~~~~~~~~~~~~~~",
"~~~~~~~~~~~~~~~~~~~~~~~~~~~~~~~~~~~~~~~~~~~~~~~~~~~~~~~~~~~~~~~~XXXX~~~~~~~~~~~~~~~~~~~~~~~~~~~~~~~~~~~~~~~~~~",
"~~~~~~~~~~~~~~~~~~~~~~~~~~~~~~~~~~~~~~~~~~~~~~~~~~~~~~~~~oXoX@@@@@@@@@+OXoo~~~~~~~~~~~~~~~~~~~~~~~~~~~~~~~~~~~",
"~~~~~~~~~~~~~~~~~~~~~~~~~~~~~~~~~~~~~~~~~~~~~~~~~~~~~~~~~XXXoOOOO$OO$##OXXXX~~~~~~~~~~~~~~~~~~~~~~~~~~~~~~~~~~",
"~~~~~~~~~~~~~~~~~~~~~~~~~~~~~~~~~~~~~~~~~~~~~~~~~~~~~~~XXX%####OO$$OO##O$##OXX~~~~~~~~~~~~~~~~~~~~~~~~~~~~~~~~",
"~~~~~~~~~~~~~~~~~~~~~~~~~~~~~~~~~~~~~~~~~~~~~~~~~~~~~~~ooXXXooXooXXXXXo##*&O##XX~~~~~~~~~~~~~~~~~~~~~~~~~~~~~~",
"~~~~~~~~~~~~~~~~~~~~~~~~~~~~~~~~~~~~~~~~~~~~~~~~~~~~~~~~~~~~~~~~~~~XXXXXX####*O@X~~~~~~~~~~~~~~~~~~~~~~~~~~~~~",
"~~~~~~~~~~~~~~~~~~~~~~~~~~~~~~~~~~~~~~~~~~~~~~~~~~~~~~~~~~~~~~~~~~~~~XXXX+$+#**O+X~~~~~~~~~~~~~~~~~~~~~~~~~~~~",
"~~~~~~~~~~~~~~~~~~~~~~~~~~~~~~~~~~~~~~~~~~~~~~~~~~~~~~~~~~~~~~~~~~~~~~~XXXXXO#==$XXX~~~~~~~~~~~~~~~~~~~~~~~~~~",
"~~~~~~~~~~~~~~~~~~~~~~~~~~~~~~~~~~~~~~~~~~~~~~~~~~~~~~~~~~~~~~~~~~~~~~~~XXXXX$$$##XXo~~~~~~~~~~~~~~~~~~~~~~~~~",
"~~~~~~~~~~~~~~~~~~~~~~~~~~~~~~~~~~~~~~~~~~~~~~~~~~~~~~~~~~~~~~~~~~~~~~~~~~~XXXXX#-OO$X~~~~~~~~~~~~~~~~~~~~~~~~",
"~~~~~~~~~~~~~~~~~~~~~~~~~~~~~~~~~~~~~~~~~~~~~~~~~~~~~~~~~~~~~~~~~~~~~~~~~~~~XXXX+#OO&@X~~~~~~~~~~~~~~~~~~~~~~~",
"~~~~~~~~~~~~~~~~~~~~~~~~~~~~~~~~~~~~~~~~~~~~~~~~~~~~~~~~~~~~~~~~~~~~~~~~~~~~~XXXX%O;;OX~~~~~~~~~~~~~~~~~~~~~~~",
"~~~~~~~~~~~~~~~~~~~~~~~~~~~~~~~~~~~~~~~~~~~~~~~~~~~~~~~~~~~~~~~~~~~~~~~~~~~~~~XXXX$OOOXX~~~~~~~~~~~~~~~~~~~~~~",
"~~~~~~~~~~~~~~~~~~~~~~~~~~~~~~~~~~~~~~~~~~~~~~~~~~~~~~~~~~~~~~~~~~~~~~~~~~~~~~~~XXX+O#%XX~~~~~~~~~~~~~~~~~~~~~",
"~~~~~~~~~~~~~~~~~~~~~~~~~~~~~~~~~~~~~~~~~~~~~~~~~~~~~~~~~~~~~~~~~~~~~~~~~~~~~~~~~XXXX;;#+X~~~~~~~~~~~~~~~~~~~~",
"~~~~~~~~~~~~~~~~~~~~~~~~~~~~~~~~~~~~~~~~~~~~~~~~~~~~~~~~~~~~~~~~~~~~~~~~~~~~~~~~~XXXX+##$@X~~~~~~~~~~~~~~~~~~~",
"~~~~~~~~~~~~~~~~~~~~~~~~~~~~~~~~~~~~~~~~~~~~~~~~~~~~~~~~~~~~~~~~~~~~~~~~~~~~~~~~~~XXXXOOO&X~~~~~~~~~~~~~~~~~~~",
"~~~~~~~~~~~~~~~~~~~~~~~~~~~~~~~~~~~~~~~~~~~~~~~~~~~~~~~~~~~~~~~~~~~~~~~~~~~~~~~~~~~XXXX#OOXX~~~~~~~~~~~~~~~~~~",
"~~~~~~~~~~~~~~~~~~~~~~~~~~~~~~~~~~~~~~~~~~~~~~~~~~~~~~XXXXXXXX~~~~~~~~~~~~~~~~~~~~~~XXX#OOXX~~~~~~~~~~~~~~~~~~",
"~~~~~~~~~~~~~~~~~~~~~~~~~~~~~~~~~~~~~~~~~~~~~~~~~~~~oXXXXXXXXXXX~~~~~~~~~~~~~~~~~~~~XXXX+#%XX~~~~~~~~~~~~~~~~~",
"~~~~~~~~~~~~~~~~~~~~~~~~~~~~~~~~~~~~~~~~~~~~~~~~~~~:oX+++++++XXXX~~~~~~~~~~~~~~~~~~~~XXX+#OXX~~~~~~~~~~~~~~~~~",
"~~~~~~~~~~~~~~~~~~~~~~~~~~~~~~~~~~~~~~~~~~~~~~~~~~XXXo#######OXXXX~~~~~~~~~~~~~~~~~~~XXX+#>#o~~~~~~~~~~~~~~~~~",
"~~~~~~~~~~~~~~~~~~~~~~~~~~~~~~~~~~~~~~~~~~~~~~~~~XXX#########OOOXoX~~~~~~~~~~~~~~~~~~~XX+###XX~~~~~~~~~~~~~~~~",
"~~~~~~~~~~~~~~~~~~~~~~~~~~~~~~~~~~~~~~~~~~~~~~~~XXOOO&,,,<,,1,O#O@Xo~~~~~~~~~~~~~~~~~~XXXX##XX~~~~~~~~~~~~~~~~",
"~~~~~~~~~~~~~~~~~~~~~~~~~~~~~~~~~~~~~~~~~~~~~~~~X$$OO34561666*6O%O$X~~~~~~~~~~~~~~~~~~XXXX+2O$X~~~~~~~~~~~~~~~",
"~~~~~~~~~~~~~~~~~~~~~~~~~~~~~~~~~~~~~~~~~~~~~~~~X$#OO5,6,16,647&#O$X~~~~~~~~~~~~~~~~~~XXXX#;$+X~~~~~~~~~~~~~~~",
"~~~~~~~~~~~~~~~~~~~~~~~~~~~~~~~~~~~~~~~~~~~~~~~XX##O6,6411114,6<##OXo~~~~~~~~~~~~~~~~~XXXX%O#$X~~~~~~~~~~~~~~~",
"~~~~~~~~~~~~~~~~~~~~~~~~~~~~~~~~~~~~~~~~~~~~~~~XO#&&641-48944,,4#OOOo~~~~~~~~~~~~~~~~~~XXXXO#+XX~~~~~~~~~~~~~~",
"~~~~~~~~~~~~~~~~~~~~~~~~~~~~~~~~~~~~~~~~~~~~~XXXO#*664,0qweq41,44*O#XXX~~~~~~~~~~~~~~~~XXXX$#+XX~~~~~~~~~~~~~~",
"~~~~~~~~~~~~~~~~~~~~~~~~~~~~~~~~~~~~~~~~~~~~~XX+#&*514rttt990y,66*##@XX~~~~~~~~~~~~~~~XXXXXO&$$o~~~~~~~~~~~~~~",
"~~~~~~~~~~~~~~~~~~~~~~~~~~~~~~~~~~~~~~~~~~~~~X+##O<,61999999uw11,&#O#XX~~~~~~~~~~~~~~~XXXXXO2*$o~~~~~~~~~~~~~~",
"~~~~~~~~~~~~~~~~~~~~~~~~~~~~~~~~~~~~~~~~~~~~~X+##1,4i199ppas9d114,fO#XX~~~~~~~~~~~~~~~XXXXX$##$X~~~~~~~~~~~~~~",
"~~~~~~~~~~~~~~~~~~~~~~~~~~~~~~~~~~~~~~~~~~~~XX@O#6,,1199ghjep91-66<O#XX~~~~~~~~~~~~~~~XXXXX###OX~~~~~~~~~~~~~~",
"~~~~~~~~~~~~~~~~~~~~~~~~~~~~~~oXXXo~~~~~~~~~XXX#O,,5119hkljzu911664O#XX~~~~~~~~~~~~~~~XXXXXO4&$X~~~~~~~~~~~~~~",
"~~~~~~~~~~~~~~~~~~~~~~~~~~~~~~XX++XX~~~~~~~~XX@##6,4119klljlg9,411,O#XX~~~~~~~~~~~~~~~XXXXXO=*OX~~~~~~~~~~~~~~",
"~~~~~~~~~~~~~~~~~~~~~~~~~~~~~oX+#&XXXX~~~~~~XX+##x,441qclvbnm944,,2O#XXX~~~~~~~~~~~~~~XXXXXO##Oo~~~~~~~~~~~~~~",
"~~~~~~~~~~~~~~~~~~~~~~~~~~~~~o%#O-O#XXX~~~~~XX+O#4144,MhvNjvB91V4,6##XXX~~~~~~~XXXX~~~XXXXXOO#$o~~~~~~~~~~~~~~",
"~~~~~~~~~~~~~~~~~~~~~~~~~~~~~~X$##,#%%XX~~~~XX+##441x49gBNNCed3144<##XXX~~~~~XX@OOO+X~XXXX###$XX~~~~~~~~~~~~~~",
"~~~~~~~~~~~~~~~~~~~~~~~~~~~~~~XX+#&*O#@XX~~~XX+##14,,6weemmtg9413,,#OXXX~~~~o+X$O;#ooXooXXO&#+XX~~~~~~~~~~~~~~",
"~~~~~~~~~~~~~~~~~~~~~~~~~~~~~~XXX#;<O#OXXX~~XX+##6x4,4weue98984156i&OoXX~~~XX#&O;&#oXXooXXO*#+Xo~~~~~~~~~~~~~~",
"~~~~~~~~~~~~~~~~~~~~~~~~~~~~~~~XXX$#;,$XXXX~XX+#O#,4,,1t9988t6117<###XXX~~XXO$*&*%XXXXXXXXOOO+o~~~~~~~~~~~~~~~",
"~~~~~~~~~~~~~~~~~~~~~~~~~~~~~~~~~oX###$OXXXXXXXo##<,4,1wuB88Z1516=##XXXX~XXX#*$O%XX~~XXXXOOXXXo~~~~~~~~~~~~~~~",
"~~~~~~~~~~~~~~~~~~~~~~~~~~~~~~~~~~XX$#XXXXXXXXXX#O<55,16V8uV66111*##XXXXXX$###$XXXXXXXXX@#*$XXooX~~~~~~~~~~~~~",
"~~~~~~~~~~~~~~~~~~~~~~~~~~~~~~~~~~XX@+X++++XXXXX#O*&5,15A9ux44111*##XXXXXX$$O#$XXXXXXXX+$#;OXX+oX~~~~~~~~~~~~~",
"~~~~~~~~~~~~~~~~~~~~~~~~~~~~~~~~~~XXXXX##OOXXXXXO#&&4415,634,41x&##OoXXXXXX+&&XXXXXXXXX###OOXX+XXX~~~~~~~~~~~~",
"~~~~~~~~~~~~~~~~~~~~~~~~~~~~~~~~~~XX@OO###O#XXXXX##O64,,44x1,6,,&#%XXXXXXXXXXXXXXXXXXXXO#OXXX+%$$XXX~~~~~~~~~~",
"~~~~~~~~~~~~~~~~~~~~~~~~~~~~~~~~XXXX$##<<&##X%+XXO#O&,,,,41-46,&##OXXO@XXX%#OXXXXXXXXX$O##&XX&#OOOXX~~~~~~~~~~",
"~~~~~~~~~~~~~~~~~~~~~~~~~~~XooooXXo$##,55,=#X$OOXX####4,4,S11,#O#+XXOO+XXO&##$XXXXXXXX#$+oXX#&&22#O%o~~~~~~~~~",
"~~~~~~~~~~~~~~~~~~~~~~~~~~~XXXXX+XX$##,15,,#X+#O+X$%OO=,,,,,,>O$$+X+O$+XX#;&&#XXXXXXX+OO$XXX$#&,,##$o~~~~~~~~~",
"~~~~~~~~~~~~~~~~~~~~~~~~~~XXXXX+$XXO##,634&#OX+O%XXXOO#######%##XXXOOXXXXO,16#O+XXXXX$O%+XX+XO&&<O#Oo~~~~~~~~~",
"~~~~~~~~~~~~~~~~~~~~~~~~~XXXXXOO#XX$OO41Dw4#OXXX*O+XXXOOOO###%XXX+#*oXXX#O,,6#OXXXX+O$XXXXXXX%##&##Oo~~~~~~~~~",
"~~~~~~~~~~~~~~~~~~~~~~~XXXXX##=&OoXX$&,,r3<#OXXX#**;OXXXXXXXXXX%;*&#XXXX#&6,,=#$%XXXXXXXXXXXXXXOOO+XX~~~~~~~~~",
"~~~~~~~~~~~~~~~~~~~~~~XXX%+%O#O&$oXX@&&&,-*#XXXX+$;&&###@+X+#$O&&#@XXXXX#xrrx,##%XXXXXXXXXXXXXXOO#+XX~~~~~~~~~",
"~~~~~~~~~~~~~~~~~~~~~XXXXO$###O$$XXXX#&,,<*OXXXXXX@%*,4S*$#*,4**O+XXXXXX#,dw,,##%XXXXXXXXXXXXXXOO@+XX~~~~~~~~~",
"~~~~~~~~~~~~~~~~~~~~XX+##&>*##O+XXXX@$#xxO#@XX$OXXXXXO;*,,**<*OX+XXXOXXX#*6,1,##OXOXoXXXXX#OoXXOOXXX~~~~~~~~~~",
"~~~~~~~~~~~~~~~~~~~XX%OO&,,1#OXXXX#XXX#&###XXX@OXXXXFXXXXXoXXXoGoXXX$XXX##x,=##XXX##+XXX$O#OXXXXXXXX~~~~~~~~~~",
"~~~~~~~~~~~~~~~~~~XX##&,,&&#OXXXXO$%+XX##XXXXXXXOXXoNXHJ&JK&KLoHoXXOXXXXOO#####+XXO#%OXXO;OXXXXXXX~~~~~~~~~~~~",
"~~~~~~~~~~~~~~~~XXXXOOO&&<#$%XXXX#+#+XX$OXXXXXXX#oXXPXIr&tlVcUoHoXX$XXXX$#OO##++Xo$OO$XX+OOXXXXXXX~~~~~~~~~~~~",
"~~~~~~~~~~~~~~~XXXX%#<<<O$%$XXXoX#<OX+oXXXXXXXXXOoXXJ+Y7&THRhI+ToXoOXXXXXOOO##X$$XXO&O#XXXOXXXXXXX~~~~~~~~~~~~",
"~~~~~~~~~~~~~~XXX+#&,6&&$XXXXXX$###XXX#XXXXX#XXXOOXXoX:XXXXXo:$XXXO#XXXXXXXXXXX+OOX$$#O#XXXXXXXXX~~~~~~~~~~~~~",
"~~~~~~~~~~~~XXoO#OO<+&&#XXXXXXX@O>OX%O#%XXXXOXXXX$XXXXXXXXXXXoXXXX#oXXXXOoXXXXOOO#OX+O,#XXXXXXXX~~~~~~~~~~~~~~",
"~~~~~~~~~~~XXX+####;O+XXX@$$XX+##x+XO;O#XXXX#@XXXO+$XEXXoXXXXoWX+@OXXXX$OXXXXXO##&*$++#O@XXXXXX~~~~~~~~~~~~~~~",
"~~~~~~~~~~~XXXO###OOOXXXX%$$XX#O#&XX&*O#XXXX$%+XXOO$XNoo:XX:o@NoO#OXXX+#$XXXXoO###;$+X&OO@XXXXX~~~~~~~~~~~~~~~",
"~~~~~~~~~~~X+O$=OOO%XX$O%O+XXXO&=OXO**OXXXXXXO$XXOO%XqoQHXoWJXsXO$OXX#OOXXXXXXX+O#,;OX#=#$XXXXX~~~~~~~~~~~~~~~",
"~~~~~~~~~~XX+#2,,&$XXOOOOXXXXXO#OXX&&##XXXXXX$O$XX%OOoX00;Ot4OXOO+XXXOOOXXXX~XXXX##S=&XO###XX~~~~~~~~~~~~~~~~~",
"~~~~~~~~~~XX+#,<###XX$+XXXXXX@$OOX$-#$XXXXXXXX@O$XXXO%$XXXXoXo@OXXXX&#OXXX~~~~XXXoO#&$XX$##XX~~~~~~~~~~~~~~~~~",
"~~~~~~~~~~XX+#&&$%$XX++XXXXXX#O#+X#&#$XX~~~XXXX+#+XX@#$;&OOO#@OXXXX+O+XXX~~~~~XXXXX###X@#&O%XX~~~~~~~~~~~~~~~~",
"~~~~~~~~~~XXX#OOOO%XXXXXXXXXX$##$X##O%XX~~~XXXXXOOXXXO#*,6<<;OOXXXX#OXXXX~~~~~oXXXXOO$XOOOO#XXX~~~~~~~~~~~~~~~",
"~~~~~~~~~~XXXXOOOXXXXXXXXXXX$#XXXX##XXX~~~~~XXXXXOO%XX%$&x*&#$XXX+&#XXXX~~~~~XXXXXXXXX#O,6&#OoX~~~~~~~~~~~~~~~",
"~~~~~~~~~~~XXXXXXXXXXXXXXXXX$OO$@XXXXXX~~~~~~XXXXXXXXXX%O###XXX#ooXXXXX~~~~~~oXXXXXXX$#,6,,O$XX~~~~~~~~~~~~~~~",
"~~~~~~~~~~~~XXXXXXXX~~~~XXXX#O#&*$$XXXXX~~~~~~~~XXXXXXXXXXXXXXXXXXXX~~~~~~~~XXXXXXXX+O#,,6O$+XX~~~~~~~~~~~~~~~",
"~~~~~~~~~~~~~~~XXXXX~~~XXXXX#O&xx&O+XXXXX~~~~~~~~~XXXXXXXXXXXXXXXX~~~~~~~~~oXXXXXXXX$#&,,6&OXX~~~~~~~~~~~~~~~~",
"~~~~~~~~~~~~~~~oXXXXXXXXXXXX#O*<1,#OXXXXXX~~~~~~~~oXXXXXXXXXXXXXX~~~~~~~~~oXXXXXXXX###*66,#%X~~~~~~~~~~~~~~~~~",
"~~~~~~~~~~~~~~~~~~~ooXXXXXXX$$#&&x,###XXXX~~~~~~~~~~~~~~~~~~~~~~~~~~~~~~~~XXXXXXXXX##-S1&##%o~~~~~~~~~~~~~~~~~",
"~~~~~~~~~~~~~~~~~~~~~~XXXXXXX$O#&&46O#%XXXX~~~~~~~~~~~~~~~~~~~~~~~~~~~~~~XXXXo$XXX##&3,*O#OXX~~~~~~~~~~~~~~~~~",
"~~~~~~~~~~~~~~~~~~~~~~~~~~XXXX$OO&,,x;O+XXXX~~~~~~~~~~~~~~~~~~~~~~~~~~~~~XXXXoO+XXO**,,&O@XX~~~~~~~~~~~~~~~~~~",
"~~~~~~~~~~~~~~~~~~~~~~~~~~XXXX%%O#&*4,##XXXX~~~~~~~~~~~~~~~~~~~~~~~~~~~~~oXXXX%Xo+#*,<<##@XX~~~~~~~~~~~~~~~~~~",
"~~~~~~~~~~~~~~~~~~~~~~~~~~XXXXX+O##*6&<O$+XX~~~~~~~~~~~~~~~~~~~~~~~~~~~~~oXXXXXXX#&6x6###+XX~~~~~~~~~~~~~~~~~~",
"~~~~~~~~~~~~~~~~~~~~~~~~~XXXXXXXXXO&&,&1##OXX~~~~~~~~~~~~~~~~~~~~~~~~~~~~~oXXXXXXOO<**##XXX~~~~~~~~~~~~~~~~~~~",
"~~~~~~~~~~~~~~~~~~~~~~~~~XXXXXXXXXo##O&,,&O#XX~~~~~~~~~~~~~~~~~~~~~~~~~~~~~~XXX$$#=,&##XXX~~~~~~~~~~~~~~~~~~~~",
"~~~~~~~~~~~~~~~~~~~~~~~~~XXXXXXXXXX$$#*,,x&#XXX~~~~~~~~~~~~~~~~~~~~~~~~~~~~~XXX$#O,1&#$XXX~~~~~~~~~~~~~~~~~~~~",
"~~~~~~~~~~~~~~~~~~~~~~~~XXXXXXXXXXXX%#&*,-4##+oo~~~~~~~~~~~~~~~~~~~~~~~~~~~~XXX$O,,,##XXXX~~~~~~~~~~~~~~~~~~~~",
"~~~~~~~~~~~~~~~~~~~~~~~XXX$$XXXXX~~XXXO&*,41##@X~~~~~~~~~~~~~~~~~~~~~~~~~~~~XX$O#,,OO$XXXXXXX~~~~~~~~~~~~~~~~~",
"~~~~~~~~~~~~~~~~~~~ooXXXX%O$XXXX~~~~XXo##&,,,&@XX~~~~~~~~~~~~~~~~~~~~~~~~~~~XXOO&,4#+XXX$O$XXXXX~~~~~~~~~~~~~~",
"~~~~~~~~~~~~~~~~ooXXXXXXOOXXXXX~~~~~~~X+O&411OOO@XXXX~~~~~~~~~~~~~~~~~~~~~~XX$O**x,O+XXXX+#$$XXoX~~~~~~~~~~~~~",
"~~~~~~~~~~~~~~~~XXXXXXXXOOXXXXX~~~~~~~XX$O&x,&&#OXXXX~~~~~~~~~~~~~~~~~~~~~XXX$Ox,,,O+XXXXX##O+XoX~~~~~~~~~~~~~",
"~~~~~~~~~~~~~~~o%O#$XX+OOOXXXX~~~~~~~~XX#&*<<*&#,<OOXX~~~~~~~~~~~~~~~~~~~oXX##O,,,,O+XXXXXXO;;OXXXX~~~~~~~~~~~",
"~~~~~~~~~~~~~~XOOO%XX%OOOXXXXX~~~~X+X+XX#&<#,<&O&,**@XX~~~~~~~~~~~~~~~~XXO#O#&<4,O,&&+XXXXXX$OOOXX~~~~~~~~~~~~",
"~~~~~~~~~~~~~XX%#+XX#$O%XXXXXX~~~~X+XXXX&64&$7,,##;&O%XX~~~~~~~~~~~~~~XX%S<x4-,-1&###OOXXXXX++XXoXXXXX~~~~~~~~",
"~~~~~~~~~~~~XXX+XXXX++$+XXXXXX~~~~X+XXX$&&&OX*<x$++$#$XXo~~~~~~~~~~~~oX+;4&&;&*44,XO###XXXXXX~~~~~~~~~~~~~~~~~",
"~~~~~~~~~~~~XXXXooXXXXXXXXXXX~~~~~X+XXX;**&$X>,&OXXX%$#+X~~~~~~~~~~~XX@&&,$$#$O<i6XO$;*#XXX~~~~~~~~~~~~~~~~~~~",
"~~~~~~~~~~~~~~~~~~~~~~~~~~~~~~~~~~XXXX&,$+XXXO4w#X~~X$*#$X~~~~~~~~~oXOO,*@~~~~$xr!*XXXO#$$XX%~~~~~~~~~~~~~~~~~",
"~~~~~~~~~~~~~~~~~~~~~~~~~~~~~~~~~~XX+#,*XXXXXX&qwX~~~X;&Oo~~~~~~~~~XO<&*O~~~~~~#*w4XXXXOO&&OX~~~~~~~~~~~~~~~~~",
"~~~~~~~~~~~~~~~~~~~~~~~~~~~~~~~~~~XX%**OXX~~XX@&qX~~~X+$Oo~~~~~~~~~XO&$+X~~~~~~+&x4O@XX++@x;X+~~~~~~~~~~~~~~~~",
"~~~~~~~~~~~~~~~~~~~~~~~~~~~~~~~~~~XXO;&@X~~~XX+&<o~~~~X++X~~~~~~~~~X#@XX~~~~~~~~+&*<$XXXXX&;XX~~~~~~~~~~~~~~~~",
"~~~~~~~~~~~~~~~~~~~~~~~~~~~~~~~~~~XX$OOX~~~~XX+O$X~~~~XXXX~~~~~~~~~X$XXX~~~~~~~~XO&<#X~~XXXOXXX~~~~~~~~~~~~~~~",
"~~~~~~~~~~~~~~~~~~~~~~~~~~~~~~~~~~XX$+XX~~~~~XXXOX~~~~XXXo~~~~~~~~~XXXXX~~~~~~~~~XO&@X~~~XXXoXX~~~~~~~~~~~~~~~",
"~~~~~~~~~~~~~~~~~~~~~~~~~~~~~~~~~~~XXXX~~~~~~~~XXX~~~~~~~~~~~~~~~~~~~~~~~~~~~~~~~XXXXX~~~~~~~~~~~~~~~~~~~~~~~~",
"~~~~~~~~~~~~~~~~~~~~~~~~~~~~~~~~~~~~~~~~~~~~~~~~~~~~~~~~~~~~~~~~~~~~~~~~~~~~~~~~~~~~~~~~~~~~~~~~~~~~~~~~~~~~~~",
"~~~~~~~~~~~~~~~~~~~~~~~~~~~~~~~~~~~~~~~~~~~~~~~~~~~~~~~~~~~~~~~~~~~~~~~~~~~~~~~~~~~~~~~~~~~~~~~~~~~~~~~~~~~~~~",
"~~~~~~~~~~~~~~~~~~~~~~~~~~~~~~~~~~~~~~~~~~~~~~~~~~~~~~~~~~~~~~~~~~~~~~~~~~~~~~~~~~~~~~~~~~~~~~~~~~~~~~~~~~~~~~",
"~~~~~~~~~~~~~~~~~~~~~~~~~~~~~~~~~~~~~~~~~~~~~~~~~~~~~~~~~~~~~~~~~~~~~~~~~~~~~~~~~~~~~~~~~~~~~~~~~~~~~~~~~~~~~~",
"~~~~~~~~~~~~~~~~~~~~~~~~~~~~~~~~~~~~~~~~~~~~~~~~~~~~~~~~~~~~~~~~~~~~~~~~~~~~~~~~~~~~~~~~~~~~~~~~~~~~~~~~~~~~~~",
"~~~~~~~~~~~~~~~~~~~~~~~~~~~~~~~~~~~~~~~~~~~~~~~~~~~~~~~~~~~~~~~~~~~~~~~~~~~~~~~~~~~~~~~~~~~~~~~~~~~~~~~~~~~~~~"
};
