/* XPM */
static const char *blood_alien1[] = {
/* columns rows colors chars-per-pixel */
"32 32 2 1 ",
"  c #ABFA71",
". c None",
/* pixels */
"................................",
"................................",
"................................",
"................................",
"................................",
"................................",
"................................",
"...............  ...............",
"..............    ..............",
"..............    ..............",
"..............    ..............",
"..............    ..............",
"..............    ... ..........",
"..............   ..  ...........",
"..............   .  ............",
".............       ............",
"...........           ..........",
".........                   ....",
".......      .     ...       ...",
".....    ..... ..   .  .........",
"...  ......... ...   ...........",
".............  ....  ...........",
"............. ...... ...........",
"..................... ..........",
"................................",
"................................",
"................................",
"................................",
"................................",
"................................",
"................................",
"................................"
};
