/* XPM */
static const char *blood_alien4[] = {
/* columns rows colors chars-per-pixel */
"32 32 3 1 ",
"  c #4FE22A",
". c #ABFA71",
"X c None",
/* pixels */
"XXXXXXXXXXXXXXXXXXXXXXXXXXXXXXXX",
"XXXXXXXXXXXXXXXXXXXXXXXXXXXXXXXX",
"XXXXXXXXXXXXXXX..XXXXXXXXXXXXXXX",
"XXXXXXXXXXXXXXXX XXXXXXXXXXXXXXX",
"XXXXXXXXXXXXXXXXXXXXXXXXXXXXXXXX",
"XXXXXXXXXXXXXXXXXXXXXXXXXXXXXXXX",
"XXXXXXXXXXXXXXX. XXXXXXXXXXXXXXX",
"XXXXXXXXXXXXXXXXXXXXXXXXXXXXXXXX",
"XXXXXXXXXXXXXXXXXXXXXXXXXXXXXXXX",
"XXXXXXXXXXXXXX.X.XXXXXXXXXXXXXXX",
"XXXXXXXXXXXXXX X XXXXXXXXXXXXXXX",
"XXXXXXXXXXXXXXXXXXXXXX XXXXXXXXX",
"XXXXXXXXXXXXXXXXXXXXXXXXXXXXXXXX",
"XXXXXXXXXXXXXXXX XXXXXXXXXXXXXXX",
"XXXXXXXXXXXXXX XXXXXXXXXXXXXXXXX",
"XXXXXXXXXXXXXXXXXXXXXXXXXXXXXXXX",
"XXXXXXXXXXXXXXXXXXXXX XXXXXXXXXX",
"XXXXXXXXXX XXXXXXXX XXX   XX  .X",
"XXXXXXX XXXXXXXXXXXXXXXXXXX  ..X",
"XXXX XXXXXXXXXXXXX XXXXXXXXXXXXX",
"XX. XXXXXXXXXX XX  XXXXXXXXXXXXX",
"XXXXXXXXXXXXXXXXXXXXXX XXXXXXXXX",
"XXXXXXXXXXXXXXXXXXXX XXXXXXXXXXX",
"XXXXXXXXXXXXXXXXXXXXXXXXXXXXXXXX",
"XXXXXXXXXXXXX XXXXXXXXX XXXXXXXX",
"XXXXXXXXXXXXXXXXXXXXXXXX XXXXXXX",
"XXXXXXXXXXXXXXXXXXXXXXXXX.XXXXXX",
"XXXXXXXXXXXXXXXXXXXXXXXXXXXXXXXX",
"XXXXXXXXXXXXXXXXXXXXXXXXXXXXXXXX",
"XXXXXXXXXXXXXXXXXXXXXXXXXXXXXXXX",
"XXXXXXXXXXXXXXXXXXXXXXXXXXXXXXXX",
"XXXXXXXXXXXXXXXXXXXXXXXXXXXXXXXX"
};
