/* XPM */
static const char *blood_alien3[] = {
/* columns rows colors chars-per-pixel */
"32 32 3 1 ",
"  c #4FE22A",
". c #ABFA71",
"X c None",
/* pixels */
"XXXXXXXXXXXXXXXXXXXXXXXXXXXXXXXX",
"XXXXXXXXXXXXXXXXXXXXXXXXXXXXXXXX",
"XXXXXXXXXXXXXXX..XXXXXXXXXXXXXXX",
"XXXXXXXXXXXXXXX .XXXXXXXXXXXXXXX",
"XXXXXXXXXXXXXXXX XXXXXXXXXXXXXXX",
"XXXXXXXXXXXXXXXXXXXXXXXXXXXXXXXX",
"XXXXXXXXXXXXXXX..XXXXXXXXXXXXXXX",
"XXXXXXXXXXXXXXXX XXXXXXXXXXXXXXX",
"XXXXXXXXXXXXXXXX XXXXXXXXXXXXXXX",
"XXXXXXXXXXXXXX X XXXXXXXXXXXXXXX",
"XXXXXXXXXXXXXX.. XXXXXX XXXXXXXX",
"XXXXXXXXXXXXXX.X XXXX .XXXXXXXXX",
"XXXXXXXXXXXXXX XXXXXXXXXXXXXXXXX",
"XXXXXXXXXXXXXXXX.XXX.XXXXXXXXXXX",
"XXXXXXXXXXXXXX.X XXX XXXXXXXXXXX",
"XXXXXXXXXXXXXX XXXXXXXXXXXXXXXXX",
"XXXXXXXXXXXX XXXXXXX  XXXXXXXXXX",
"XXXXXXXXXX. XXXXXXX X    .... XX",
"XXXXXXX. XXXXX XXX XXXXXX   .. X",
"XXXX .XXXXXXXX. XX.XXXX.XXXXXXXX",
"XX.. XXXXXXXXX.XX .XXX.XXXXXXXXX",
" XXXXXXXXXXXXXXX XXX X XXXXXXXXX",
"XXXXXXXXXXXXX XXXXXX .XXXXXXXXXX",
"XXXXXXXXXXXXX.XXXXXXXX.XXXXXXXXX",
"XXXXXXXXXXXXX.XXXXXXXXX.XXXXXXXX",
"XXXXXXXXXXXXXXXXXXXXXXXX XXXXXXX",
"XXXXXXXXXXXXXXXXXXXXXXXXXXXXXXXX",
"XXXXXXXXXXXXXXXXXXXXXXXXXXXXXXXX",
"XXXXXXXXXXXXXXXXXXXXXXXXXXXXXXXX",
"XXXXXXXXXXXXXXXXXXXXXXXXXXXXXXXX",
"XXXXXXXXXXXXXXXXXXXXXXXXXXXXXXXX",
"XXXXXXXXXXXXXXXXXXXXXXXXXXXXXXXX"
};
