/* XPM */
static const char *num0[] = {
/* columns rows colors chars-per-pixel */
"64 64 170 2 ",
"   c #070000",
".  c #0C0000",
"X  c #140000",
"o  c #1C0000",
"O  c #240000",
"+  c #2C0000",
"@  c #340000",
"#  c #3B0000",
"$  c #35000D",
"%  c #3C000D",
"&  c #250016",
"*  c #290016",
"=  c #340016",
"-  c #3C0016",
";  c #33001C",
":  c #3C001C",
">  c #270022",
",  c #3D0022",
"<  c #33002D",
"1  c #3C002E",
"2  c #3B0035",
"3  c #430000",
"4  c #4C0000",
"5  c #42000D",
"6  c #4B000D",
"7  c #540000",
"8  c #5B0000",
"9  c #5B000D",
"0  c #440016",
"q  c #4B0016",
"w  c #44001C",
"e  c #4B001C",
"r  c #540016",
"t  c #5D0016",
"y  c #52001C",
"u  c #5B001C",
"i  c #630000",
"p  c #6C0000",
"a  c #6C000D",
"s  c #730000",
"d  c #7B0000",
"f  c #74000D",
"g  c #640016",
"h  c #6C0016",
"j  c #63001C",
"k  c #6D001C",
"l  c #770016",
"z  c #74001C",
"x  c #7B001C",
"c  c #430022",
"v  c #4C0022",
"b  c #42002E",
"n  c #4C002C",
"m  c #530024",
"M  c #5A0025",
"N  c #54002C",
"B  c #5B002C",
"V  c #450032",
"C  c #4D0035",
"Z  c #4F003B",
"A  c #520035",
"S  c #5C0034",
"D  c #56003A",
"F  c #5D003C",
"G  c #620022",
"H  c #6C0023",
"J  c #63002C",
"K  c #6C002C",
"L  c #75002A",
"P  c #78002A",
"I  c #650034",
"U  c #690033",
"Y  c #62003B",
"T  c #6B003A",
"R  c #720034",
"E  c #790032",
"W  c #72003C",
"Q  c #5F0040",
"!  c #640043",
"~  c #690045",
"^  c #65004D",
"/  c #6B004A",
"(  c #720043",
")  c #790046",
"_  c #74004F",
"`  c #670054",
"'  c #6D0054",
"]  c #66005E",
"[  c #6B005B",
"{  c #710053",
"}  c #7E0054",
"|  c #72005A",
" . c #6B0062",
".. c #6E006B",
"X. c #740063",
"o. c #780061",
"O. c #73006C",
"+. c #790069",
"@. c #740073",
"#. c #7D0075",
"$. c #7C007A",
"%. c #830000",
"&. c #8B0000",
"*. c #81000D",
"=. c #89000D",
"-. c #930000",
";. c #9B0000",
":. c #92000D",
">. c #8C0016",
",. c #8D001C",
"<. c #900016",
"1. c #93001C",
"2. c #A20000",
"3. c #AB0000",
"4. c #B40000",
"5. c #BB0000",
"6. c #A50016",
"7. c #AE0016",
"8. c #A6001C",
"9. c #BA0016",
"0. c #B4001C",
"q. c #820024",
"w. c #90002E",
"e. c #8D0032",
"r. c #C30000",
"t. c #CB0000",
"y. c #D40000",
"u. c #DA0000",
"i. c #DC000D",
"p. c #C70016",
"a. c #D40016",
"s. c #DA001C",
"d. c #E30000",
"f. c #EE0000",
"g. c #F50000",
"h. c #FE0000",
"j. c #E7001C",
"k. c #F30016",
"l. c #CE0026",
"z. c #E40022",
"x. c #80007C",
"c. c #830083",
"v. c #8D0086",
"b. c #8C008B",
"n. c #930093",
"m. c #9B009B",
"M. c #A500A5",
"N. c #AB00AB",
"B. c #B300B3",
"V. c #B600B6",
"C. c #BA00BA",
"Z. c #C100C1",
"A. c #C500C5",
"S. c #C700C7",
"D. c #CA00CA",
"F. c #CB00CB",
"G. c #D300D3",
"H. c #D500D5",
"J. c #DA00DA",
"K. c #DB00DB",
"L. c #DD00DD",
"P. c #E200E2",
"I. c #E400E4",
"U. c #E600E6",
"Y. c #EA00EA",
"T. c #ED00ED",
"R. c #F100F1",
"E. c #F400F4",
"W. c #FB00FB",
"Q. c magenta",
/* pixels */
"Q.Q.Q.Q.Q.Q.Q.Q.Q.Q.Q.Q.Q.Q.Q.Q.W.E.E.Y.L.J.J.J.J.J.J.J.J.J.J.J.J.J.J.J.J.J.J.J.J.J.J.J.P.R.E.W.Q.Q.Q.Q.Q.Q.Q.Q.Q.Q.Q.Q.Q.Q.Q.Q.",
"Q.Q.Q.Q.Q.Q.Q.Q.Q.Q.Q.Q.Q.W.E.T.P.G.F.C.N.N.M.M.M.M.M.M.M.M.M.M.M.M.M.M.M.M.M.M.M.M.N.N.C.A.F.J.Y.R.W.Q.Q.Q.Q.Q.Q.Q.Q.Q.Q.Q.Q.Q.",
"Q.Q.Q.Q.Q.Q.Q.Q.Q.Q.Q.Q.R.L.F.C.N.m.b.c.#.+.X.+.o.o.o.o.o.o.o.o.o.o.o.o.o.o.o.X.o.X.X.#.c.b.n.M.V.A.J.T.W.Q.Q.Q.Q.Q.Q.Q.Q.Q.Q.Q.",
"Q.Q.Q.Q.Q.Q.Q.Q.Q.Q.W.U.F.V.m.b.$.X.} ) W U J B M e e e e y y y y e e y e e y u M M J T ( _ [ @.c.m.N.Z.L.R.Q.Q.Q.Q.Q.Q.Q.Q.Q.Q.",
"Q.Q.Q.Q.Q.Q.Q.Q.W.R.H.V.m.c...} ( U M q 3 5 5 3 # @ + @ @ # @ @ @ @ @ # @ @ @ # # # w 5 5 e B T /  .$.n.N.F.Y.W.Q.Q.Q.Q.Q.Q.Q.Q.",
"Q.Q.Q.Q.Q.Q.Q.Q.U.F.N.b.@.{ W J m q 0 w # @ @ # 3 @ O + + @ @ @ # # @ # # # @ @ @ # 3 0 w 0 0 e M I /  .c.M.C.L.E.Q.Q.Q.Q.Q.Q.Q.",
"Q.Q.Q.Q.Q.Q.Q.U.Z.M.c.X.) J m 0 5 5 3 # # @ @ @ # 3 O + O # # @ + @ 3 # + + 3 # @ @ @ @ # # # % 0 e M Y [ $.m.V.H.E.Q.Q.Q.Q.Q.Q.",
"Q.Q.Q.Q.Q.Q.U.Z.m.$.| T M e 0 - @ # @ @ @ # # @ O # O 3 p d %.%.%.d 8 7 O + @ @ + + + + + @ @ # 0 w e y S / ..b.B.J.E.Q.Q.Q.Q.Q.",
"Q.Q.Q.Q.Q.R.F.M.$.' T m w % 3 3 # @ + @ @ 0 0 g a 9.6.a.k.k.a.g <.h - p.7.7.f & g = - - # # # # # # % 5 m B / ..n.C.P.Q.Q.Q.Q.Q.",
"Q.Q.Q.Q.E.H.N.c.| T m m 5 # # # @ @ 3 O @ >.z.s.H e j x ,.1.1.j z u u 8.z u H j.k j y & # # @ # # # @ 0 e m B / @.m.A.T.Q.Q.Q.Q.",
"Q.Q.Q.Q.U.C.b. .T N 0 5 0 @ @ @ # + + p y.i.8.H K U J K J L P B B n J B B B e.w.q.l.r f @ O @ @ @ @ @ @ % 0 v S ' $.N.H.W.Q.Q.Q.",
"Q.Q.Q.E.F.m...( M v q 5 $ @ @ @ O + t.r.i f q.P U T Y U S I R A C 2 S I A C F T E 0.g =.p 8 X O + + + @ $ - w v S ] b.C.Y.Q.Q.Q.",
"Q.Q.Q.P.V.c.' B c - - # # @ # o p u.u.p %.*.M J R Z D S S S I A C A 2 C I A D F R k l :.i ;.7 o o + + + + @ = : m ! @.M.H.E.Q.Q.",
"Q.Q.E.G.M...T v - @ @ + + @ X s g.2.&.d %.g y M 1 < N N B N J n n N b < n J C V N G k g -.;.y.8 o + + + + + + $ : B ` b.C.U.Q.Q.",
"Q.Q.T.C.b.{ M 0 w # @ @ @ O s h.-.&.-.8 i k M v < > , G G m G v c c c v c c M n c M m j p %.-.s # O + @ @ @ # 0 w m ! @.N.J.W.Q.",
"Q.Q.P.N.$.! q 3 # # # # + p f.&.;.&.-.p 4 6 e 0 0 * g h g g h 0 0 r 0 r t ; * w 0 t u 9 8 8 s &.p 5.  o + # # # % 5 B | m.F.R.Q.",
"Q.E.G.m.X.B 6 # @ # # O @ d.3.u.;.d &.i i @ 4 # 3 # # p i i s 8 i s 8 3 8 3 O + 4 i 4 8 4 8 p s ;.2.# o 3 @ @ # @ % v / v.C.Y.Q.",
"Q.R.F.b.{ m 5 # 3 # # # 2.4 3.&.-.s %.p d 7 3 # 3 # 4 %.-.%.s -.7 7 p p i 4 3 @ @ 8 7 # @ p d d i %.8 o o + @ # 3 0 e F $.B.Y.Q.",
"Q.Y.C.c.~ 5 5 3 @ @ # s ;.t.;.-.&.d %.p d 7 7 4 7 8 s -.i # X . . . 7 %.&.8 4 4 3 4 3 # + 8 p s i %.d 7 + + + @ 3 3 % B O.M.J.W.",
"W.L.N.#.Y 0 0 # # # 8 g.2.3.p &.&.d %.i %.p s # i 7 ;.i + O + o + + X O 5.5.7 4 p 8 # @ # i s d i d d p s X + @ # # 5 m | n.F.R.",
"W.J.M.+.N 3 # # # + s 3.p p 8 &.&.%.&.8 %.s s 7 7 i &.# X o O O + O o 4 # d d 7 7 i 4 @ @ # 3 3 # i &.&.s X O + @ @ 0 e { b.A.R.",
"W.J.M.X.m # 3 @ @ O 3.p d p 8 &.&.%.-.i &.p s p 8 i d o + + + + + + + @ %.s d 8 7 7 7 8 p i i i 8 # d i d + O @ @ # 0 0 / b.F.R.",
"W.J.M.| e @ @ @ + 4 g.i d i 4 %.%.d &.p d p s p p s 7 O + @ @ # @ @ # # X 5.i p 4 7 7 4 i i 8 8 4 i 8 8 d 3 . @ @ # # # ~ b.A.R.",
"W.J.M.| w # @ @ o %.d d i 8 3 s %.d &.8 8 8 p p i 7 # X + + @ # @ @ + + @ 5.8 8 8 @ @ # 4 4 7 i 4 8 i # -.7 o o + + @ @ ! b.A.R.",
"W.J.M.| 0 @ + @ + t.8 d i 7 3 p d s %.8 p 8 p p p 7 &.X + @ @ # # # # + 3 p 8 8 p # 4 + @ 4 7 i 4 7 %.3 p p s . O + @ # F v.A.R.",
"W.J.M.| 0 @ + O # d i s i 4 3 p p s %.8 p 8 i i i 4 ;.. @ # @ # 3 # @ @ 4 i p p i 3 i # + 4 4 8 3 4 i 7 4 p # O O + @ # F v.A.R.",
"W.J.M.| - # @ @ 7 -.s p 4 4 # i s s s 4 7 3 7 7 7 i 4 X + @ # # # # # # 7 r.&.i 7 7 8 @ + 3 3 7 4 7 i # s 8 ;.X + @ @ @ F v.A.R.",
"W.J.M.| - # @ # &.2.p 8 7 8 # 8 7 8 p 7 i # 7 s p 8 y.. @ + @ # # # # @ # y.i p # 7 i 8 # 3 4 7 7 8 p 8 %.-.p X + @ @ @ F v.A.R.",
"W.J.M.| - # @ @ &.s ;.8 7 4 O 4 i 3 8 # 8 O 3 i p %.7 X @ @ @ 3 # @ + + @ 4.p 4 4 7 8 7 3 # 3 7 4 8 p 7 s d i o X O @ # F v.A.R.",
"W.J.M.| - # @ @ %.8 8 8 8 7 @ 7 i 7 i 3 8 7 4 i p 8 4 X @ # # # # @ + O 4 t.i 4 8 4 8 4 # 3 3 8 7 8 s i p d p O X O + # F v.A.R.",
"W.J.M.| - @ @ @ -.4 8 i p i 4 7 i s d 7 p 7 i p i i p . O @ @ # 3 # @ # # d i 7 8 4 7 # @ # 4 8 8 p s i i s -.o O O @ @ F v.A.R.",
"W.J.M.| 0 # # 3 &.-.p 3 4 4 @ 7 i 8 8 3 p 7 i p p d 3 X + @ # # # @ @ + # p i i i 7 4 7 # @ 3 8 8 8 p 7 8 d 8 + + + @ # F v.A.R.",
"W.J.M.| - @ @ @ p 3.8 7 8 i 7 s s 8 p @ i 7 i s i p # X + @ @ # # # @ @ # i i s s # 8 i 4 7 3 7 8 i d 8 p p s + o + + @ F v.A.R.",
"W.J.M.| - @ + O s s 8 8 7 i 7 s 8 4 8 # i 4 8 d i i 7 . o + @ # # @ + + 3 p %.p p 7 i 4 3 7 3 7 8 i s i p i s 4 + + @ # F v.A.R.",
"W.J.M.| = O O o p 4 p 7 7 7 # i 7 4 8 # 8 7 8 p i d p X + + @ @ @ + O O @ t.2.7 p 7 8 # 4 8 4 8 4 8 p 4 i s 4.o o + @ 3 F v.A.R.",
"W.J.M.| - @ + + i 7 &.3 3 8 3 i 3 # 4 + 8 # 7 8 7 &.# X + @ @ # # @ + + + t.%.7 7 3 i i 7 8 @ 3 3 4 8 # 8 %.8 o + + + @ F v.A.R.",
"W.J.M.| 0 # @ @ o ;.&.7 7 7 7 i 8 3 7 # i 3 8 s 8 p 3 X + + @ # 3 # @ + 4 s p p i 7 8 p 7 i @ i 8 7 i 4 8 p 4 @ @ @ @ # F v.A.R.",
"W.J.M.| 0 # @ + # &.i p 8 i 4 i p 8 s 3 8 i 8 %.p p 4 . + + @ # # # @ @ @ p p p s i 8 s i 8 4 i 8 8 p i i &.3 . + @ @ # F v.A.R.",
"W.J.M.| - @ @ O + + i 8 i d 4 p 7 8 7 + 8 i 8 p d p 3 o + + + @ # # @ @ 7 8 i i s 8 8 d 7 7 # 4 4 8 s p d s @ . O + + @ F v.A.R.",
"W.J.M.| q 3 @ O # @ u.p 4 d 7 i i 4 @ # s p p 8 p -.# . + @ 3 3 # @ @ + + 3 -.p 7 i 4 i # 7 # 7 8 8 p i &.i o # + O + @ Q v.A.R.",
"W.J.M.| e # # + + %.@ 4.i i 7 p 7 3 3 8 8 p s p i p 3 o O O + # # @ + + 3 i 4.p 8 4 4 8 4 8 4 7 4 8 p i &.7 . O + + + # ~ b.A.R.",
"W.J.M.| v # # + + o p &.d i 7 p 3 4 4 3 8 7 d &.s p i O o O @ @ @ @ @ @ p &.4.i p i 4 # @ 8 7 i 7 8 s p d # @ O + @ $ % / b.A.R.",
"W.J.M.X.m # # @ O # 8 7 %.%.4 7 7 8 7 3 8 p p &.&.i t.O O O + @ + @ # O 3.4.d p p s 7 4 4 i 3 7 4 i d p i O + @ @ # - 0 / b.F.R.",
"W.J.N.+.S % % @ O + O s d -.7 8 p p p 4 8 8 i i %.%.;.s   # # @ # @ + s u.s -.p i p 8 d 8 p 7 i i i %.p 4 X o @ # # $ v ' b.F.R.",
"W.L.B.#.Y % % @ + @ X O %.&.i s s p i d p 7 p i %.&.2.d t.X @ 4 3 3 d h.i d d i p i 8 d i s 7 p p d %.8 X # + + @ 3 % m X.m.F.R.",
"Q.T.Z.c./ v 5 @ + + @ + # %.s %.d d 7 i d d 8 p %.%.;.3.4.2.r.d.4.f.y.2.-.d s i p 8 7 p 8 p 8 d s %.s # O o + + @ # % B O.N.P.Q.",
"Q.R.F.n.{ m % # @ + # @ + p r.%.s %.i 8 p d p 8 s s %.;.&.d ;.p s &.&.;.&.p p 8 p 8 7 p 7 i 8 s s d 4 o o O + @ @ # w Y $.B.Y.Q.",
"Q.E.G.M.O.B % @ @ @ # @ O # 8 5.s d %.i i s %.i 8 s d -.&.-.%.s &.%.%.4.s s i i s 8 8 p 8 s p %.%.s O o O + # # # 3 m ' b.Z.T.Q.",
"Q.Q.U.N.$.! e % $ @ # @ + X + 8 3.-.%.s i i %.%.p p %.&.%.-.;.s p d s &.i i 7 i d i 7 i i %.s -.3.@ O @ + + @ # 0 w S  .m.F.E.Q.",
"Q.Q.T.Z.n.| B w : @ # @ + + + o s &.5.-.-.s d -.-.d d &.d %.%.p s i 8 %.s 7 8 7 p s p d i &.%.s + o + @ @ @ @ # 0 m / $.B.L.W.Q.",
"Q.Q.E.H.N.@.! m : % 5 @ + @ O o o 4 s ;.-.%.d d &.&.s p %.s p i i s s &.i 8 7 8 p i i s s d 8 O o @ @ @ @ # % 0 v S [ n.A.T.Q.Q.",
"Q.Q.Q.U.C.b.[ S c w 0 # @ @ @ + o X 3 8 2.2.%.d d -.&.s %.d i p p s d ;.i 8 d i %.%.s &.i 3 o O O @ # # @ # % c M ~ @.M.J.W.Q.Q.",
"Q.Q.Q.W.H.M.@./ B 0 e 5 # @ @ + O O + O 4 i %.-.%.%.&.;.&.d s s s &.&.%.8 d d s d d i 3 O + @ O @ @ # # % 0 0 m Y  .n.Z.T.Q.Q.Q.",
"Q.Q.Q.Q.Y.Z.n...! M w 0 5 @ @ + + + O O X O 3 4.p %.d %.d d d s d -.p s p s &.p i # + O + X + + + # 3 5 0 w v S ` c.N.J.Q.Q.Q.Q.",
"Q.Q.Q.Q.Q.L.B.c.] Y m - 5 # # # @ @ + + O @ @ . + 8 3 i %.%.-.-.&.p s %.8 i 7 + + 7 O o O + + @ @ @ # 5 q e S ^ @.m.F.R.Q.Q.Q.Q.",
"Q.Q.Q.Q.Q.R.G.N.c.] Y m c 0 % % # @ @ + + O O + O X o O + O O o O O O O O @   @ X o + + @ @ @ # % % 0 0 m Y ^ @.m.Z.U.Q.Q.Q.Q.Q.",
"Q.Q.Q.Q.Q.Q.R.F.N.c.] ~ B e 0 % # @ @ @ @ + + O + + o X X X X X X X X X O X o O O O O + + @ + @ $ - w m Y ` @.m.Z.U.Q.Q.Q.Q.Q.Q.",
"Q.Q.Q.Q.Q.Q.Q.R.F.N.b.O.^ S M e 0 0 5 0 3 # # # @ @ @ + O + O O O O o O O o O O O + + + @ = $ - w v B ~  .c.m.Z.P.Q.Q.Q.Q.Q.Q.Q.",
"Q.Q.Q.Q.Q.Q.Q.Q.T.G.V.m.$.[ ! B m c % - % % # # # @ @ @ + + @ @ + + + + + + @ @ @ # % 5 5 0 e e B Y ` ..b.N.A.U.Q.Q.Q.Q.Q.Q.Q.Q.",
"Q.Q.Q.Q.Q.Q.Q.Q.Q.W.L.A.N.n.$. ./ F M m q c $ @ @ # @ @ @ + @ @ @ # 3 # + @ # 3 3 3 0 e q m S ~ [ O.b.M.C.H.R.Q.Q.Q.Q.Q.Q.Q.Q.Q.",
"Q.Q.Q.Q.Q.Q.Q.Q.Q.Q.Q.T.H.Z.N.n.c.@. .` ! F S N n c c c v v v c v v v v v v v n N S S Q ^ [ O.$.b.M.C.F.U.E.Q.Q.Q.Q.Q.Q.Q.Q.Q.Q.",
"Q.Q.Q.Q.Q.Q.Q.Q.Q.Q.Q.Q.Q.Y.J.F.C.N.M.n.c.x.$.$.$.#.#.#.#.#.#.#.#.#.#.#.#.#.#.#.$.$.$.x.b.m.M.B.Z.G.U.W.Q.Q.Q.Q.Q.Q.Q.Q.Q.Q.Q.Q.",
"Q.Q.Q.Q.Q.Q.Q.Q.Q.Q.Q.Q.Q.Q.W.E.U.J.G.A.C.C.C.C.C.C.C.C.C.C.C.C.C.C.C.C.C.C.C.C.C.C.C.C.C.F.J.L.R.E.Q.Q.Q.Q.Q.Q.Q.Q.Q.Q.Q.Q.Q.Q.",
"Q.Q.Q.Q.Q.Q.Q.Q.Q.Q.Q.Q.Q.Q.Q.Q.Q.Q.Q.Y.Y.Y.Y.Y.Y.Y.Y.Y.Y.Y.Y.Y.Y.Y.Y.Y.Y.Y.Y.Y.Y.Y.Y.Y.Y.W.Q.Q.Q.Q.Q.Q.Q.Q.Q.Q.Q.Q.Q.Q.Q.Q.Q.Q."
};
