/* XPM */
static const char *num1[] = {
/* columns rows colors chars-per-pixel */
"64 64 113 2 ",
"   c #0E0000",
".  c #130000",
"X  c #1C0000",
"o  c #240000",
"O  c #2C0000",
"+  c #2F000D",
"@  c #330000",
"#  c #3B0000",
"$  c #34000D",
"%  c #3B000D",
"&  c #370016",
"*  c #3B0016",
"=  c #3C001C",
"-  c #430000",
";  c #4B0000",
":  c #42000D",
">  c #48000D",
",  c #540000",
"<  c #5C0000",
"1  c #440016",
"2  c #4A0016",
"3  c #44001C",
"4  c #4A001C",
"5  c #500016",
"6  c #51001C",
"7  c #640000",
"8  c #6C0000",
"9  c #740000",
"0  c #7B0000",
"q  c #470024",
"w  c #4C0023",
"e  c #4C002D",
"r  c #530023",
"t  c #5A0026",
"y  c #51002C",
"u  c #5C002A",
"i  c #4D0032",
"p  c #520032",
"a  c #5C0032",
"s  c #540038",
"d  c #650035",
"f  c #66003D",
"g  c #69003D",
"h  c #5D0040",
"j  c #650042",
"k  c #6A0041",
"l  c #67004B",
"z  c #68004B",
"x  c #720045",
"c  c #76004D",
"v  c #6F0056",
"b  c #6F005A",
"n  c #740055",
"m  c #73005C",
"M  c #6E0062",
"N  c #6F006E",
"B  c #760061",
"V  c #7C0063",
"C  c #700069",
"Z  c #79006A",
"A  c #740074",
"S  c #7E0077",
"D  c #7D007B",
"F  c #830000",
"G  c #8B0000",
"H  c #940000",
"J  c #9B0000",
"K  c #A20000",
"L  c #AC0000",
"P  c #B40000",
"I  c #BC0000",
"U  c #C30000",
"Y  c #CC0000",
"T  c #D30000",
"R  c #DC0000",
"E  c #E50000",
"W  c #E90000",
"Q  c #F20000",
"!  c #F80000",
"~  c #83007C",
"^  c #860080",
"/  c #8C0085",
"(  c #8C008A",
")  c #91008C",
"_  c #940092",
"`  c #9B009B",
"'  c #9E009B",
"]  c #9D009D",
"[  c #A0009F",
"{  c #A300A3",
"}  c #A400A4",
"|  c #AB00AB",
" . c #B000B0",
".. c #B400B4",
"X. c #BB00BB",
"o. c #BC00BC",
"O. c #C000C0",
"+. c #C400C4",
"@. c #C500C5",
"#. c #CB00CB",
"$. c #CE00CE",
"%. c #D100D1",
"&. c #D600D6",
"*. c #DB00DB",
"=. c #DF00DF",
"-. c #E000E0",
";. c #E600E6",
":. c #EA00EA",
">. c #EE00EE",
",. c #F000F0",
"<. c #F400F4",
"1. c #FA00FA",
"2. c magenta",
/* pixels */
"2.2.2.2.2.2.2.2.2.2.2.2.2.2.2.2.<.,.,.,.,.,.,.,.,.,.,.,.,.,.,.,.,.,.,.,.,.,.,.,.,.,.,.,.,.,.,.,.,.,.,.,.,.,.,.,.,.,.,.,.,.,.<.1.",
"2.2.2.2.2.2.2.2.2.2.2.2.2.2.<.-.$.@.@.@.@.@.@.@.@.@.@.@.@.@.@.@.@.@.@.@.@.@.@.@.@.@.@.@.@.@.@.@.@.@.@.@.@.@.@.@.@.@.@.@.@.$.;.<.",
"2.2.2.2.2.2.2.2.2.2.2.2.2.,.&.X.{ _ / / / / / / / / / / / / / / / / / / / / / / / / / / / / / / / / / / / / / / / / / ( ' o.=.<.",
"2.2.2.2.2.2.2.2.2.2.2.1.:.$...` D M c x k g g g g f f f g g f f f f f f f f g g g g g g g g f g g f f f f f g g g g k m ) X.=.<.",
"2.2.2.2.2.2.2.2.2.2.<.=.@.| ( A n g u 6 5 ; ; - ; ; - # # # - # - # # @ @ @ @ @ @ # - - - - - # # # # # - - - - ; ; > z / X.=.<.",
"2.2.2.2.2.2.2.2.2.>.&.X.{ ^ C c d r 4 4 1 1 - # # - # @ @ @ @ # - @ @ o o O O O @ @ @ # # # @ @ @ @ @ @ # # # # # - % z / X.=.<.",
"2.2.2.2.2.2.2.1.;.#. ._ D M x u r 4 1 > 1 : # # @ # - # # # @ @ # - # O o @ # - - # # # # # # - # @ @ @ O O @ # # - > z / X.=.<.",
"2.2.2.2.2.2.<.*.O.} ( N n g u 4 1 % : # - # @ # @ # - ; @ # ; ; , - @ o @ - ; - # @ @ - - - - ; @ , ; - @ @ # # # # : z / X.=.<.",
"2.2.2.2.1.>.%...] ^ M c d r w 1 : % : # @ - - # ; , U ! H H 7 0 U P F 9 0 F I Q Y R W J H F - o # 7 0 - . . o O @ # : z / X.=.<.",
"2.2.2.<.=.@.| _ S m x t 6 2 > - - @ # @ O @ # # 0 R H ; 7 0 7 < 7 8 8 7 7 7 , 7 F 0 0 0 9 7 < ; # ; < # , - O @ @ # > l / X.=.<.",
"2.2.,.&.X.{ ^ N n g u w 3 > % # - # - - # - 8 K T 8 < 7 9 F 8 8 9 F F 0 0 8 , 9 H K F 7 7 ; ; ; O 7 , , o   @ O @ @ % z / X.=.<.",
"1.>.%..._ D M x d r 3 1 : 1 : # # # # # @ 8 T P 9 J P F 8 8 < 8 8 9 0 0 8 - 9 9 0 J H 8 , ; , , o 7 ; # .   o o O @ % l / X.=.<.",
"1.;.O.` A n g u 3 = * * @ @ O O O @ O # F Q 9 < H F 9 < , 7 ; O - , < , , 7 0 8 0 G H J < 8 8 ; o < - # .   . X O @ % l / X.=.<.",
"1.;.O._ V d r 3 = & $ $ O O O O o O # K T 0 8 J G G J 0 9 G 8 , ; 9 0 9 9 9 9 8 9 F H G 9 9 9 - o , ; # X O X X X o + l / X.=.<.",
"1.;.O._ m r 1 % = * @ @ @ @ @ # , 9 Y P F G 0 G F F H 0 9 0 7 , < < 0 0 9 9 9 8 9 F H H 8 9 9 , . < < ; o o o o O O $ l / X.=.<.",
"1.;.O._ m 4 - - # # # # # # @ < J Q G 9 K H 0 9 9 0 G 0 9 0 7 < 7 < 7 8 8 8 9 8 0 F G H 8 9 9 ;   , , - . @ o O O @ % z / X.=.<.",
"1.;.O._ m 3 # - - - - - @ O < Y U 9 K H H G 9 9 9 9 F 0 9 F 8 < 7 < , 8 8 9 9 8 0 F H H 8 9 8 ; o 7 @ # .   X o o O $ l / X.=.<.",
"1.;.O._ m 3 - # # # - # - H R F 9 T J F G G 9 9 9 9 F 0 9 F 8 7 8 8 < 8 9 0 9 9 F G G G 8 8 9 < @ 7 8 ; . o o o o O $ z / X.=.<.",
"1.;.O._ m 3 # @ @ @ o - K I - K U G H F F F 8 8 9 9 G 9 8 F 9 8 0 8 7 9 8 0 8 8 9 0 F G 8 9 0 7 - 7 8 ;   @ O O O # : l / X.=.<.",
"1.;.O._ m = @ O @ O o 0 Q 8 P J F F G 8 9 F 8 8 8 9 G 0 9 G 9 8 9 8 8 0 0 9 9 8 8 9 F G 9 0 F < # 8 ; , X @ @ @ @ # : l / X.=.<.",
"1.;.O._ m 3 @ @ @ o @ 0 7 K G G F F G 9 F F 9 9 8 9 G 9 0 G 0 9 0 9 9 0 0 9 9 9 9 F G H 0 9 F < @ 8 9 7   o O @ @ O $ l / X.=.<.",
"1.;.O._ m 3 @ @ O o # F # , 8 0 9 8 8 8 0 9 7 7 7 7 0 0 L P F 9 F 0 0 0 0 9 9 8 9 G H H F F 0 7 ; F 7 ;   - o O O O $ l / X.=.<.",
"1.;.O._ m = O @ @ o @ O O @ # # ; , < ; # - < ; @ # ; 9 R P G 0 0 F 0 F 0 0 0 0 0 H H K G F 9 7 ; G < -   # O @ @ @ $ l / X.=.<.",
"1.;.O._ m 3 @ @ @ @ . . X ; # o O # , @ o <   X # 7 F I E G G 0 F F 9 F F G G F F H H K 0 F 0 8 , G < -   @ O @ # # % l / X.=.<.",
"1.;.O._ m 3 # @ @ @ O o X o o o X X o O O O o X o O # G Q H F F G F F G G G G G G H J K 0 F 0 7 ; G 7 ;   o X o @ # : l / X.=.<.",
"1.;.O._ m 3 - # O O @ O O O O o o @ O O @ O O o O O - H I G F 0 F F F G G H G G H J J K F F 9 7 < G < ;   X X o O # : l / X.=.<.",
"1.;.O._ m 3 # # # # @ @ @ @ @ # @ O @ @ @ @ O O O O - 0 < F F 0 F G G G G H G F G H J K 0 F 9 7 ; 0 ; ; . O . o O @ % l / X.=.<.",
"1.;.O._ B s p p i i i i i i i s i e q q 3 = O O O o < H ; 9 9 8 7 8 9 9 9 9 9 0 0 0 F 0 8 F 0 8 ; 9 7 , X O X o o O % l / X.=.<.",
"1.;.O.] / S S S S S S S S S S ~ S Z b j a % O O O @ 8 K ! U G 8 8 9 7 < < < 8 8 7 8 9 9 7 7 8 8 ; F F ;   X o O O O % z / X.=.<.",
"1.;.#.X......................... .{ ( C j = @ O o O - J ! H 0 0 0 0 < < 7 9 9 8 8 0 0 F < < 8 7 , 0 8 ;   ; o o o O $ z / X.=.<.",
"1.>.-.=.=.=.=.=.=.=.=.=.=.=.=.-.*.#.| ~ z 3 @ O O o # G < F F G G G 0 0 0 0 F 0 8 9 0 8 9 8 9 8 8 0 7 ; . - @ @ @ @ % z / X.=.<.",
"2.2.2.2.2.2.2.2.2.2.2.2.2.2.2.2.1.-.X.) n 3 @ O O o - F Y 9 G 0 0 9 8 8 9 9 8 , < 0 G F 8 8 0 9 9 G 0 ,   . O O @ @ : l / X.=.<.",
"2.2.2.2.2.2.2.2.2.2.2.2.2.2.2.2.1.:.O._ m 3 @ O @ O # G I 9 9 8 9 9 9 9 0 8 8 , 0 0 F F < 7 9 8 < H , - . - o o O O $ l / X.=.<.",
"2.2.2.2.2.2.2.2.2.2.2.2.2.2.2.2.1.;.O._ v 1 @ O O O @ G E 8 0 8 9 0 8 0 G 9 7 0 0 F 9 0 - ; < ; # F , ; . o o o O O $ l / X.=.<.",
"2.2.2.2.2.2.2.2.2.2.2.2.2.2.2.2.1.;.o.) v 3 @ O o o # G 9 8 F 9 8 9 9 0 9 # < < 7 8 7 < # # - ; # 0 ; # .   X X o O $ l / X.=.<.",
"2.2.2.2.2.2.2.2.2.2.2.2.2.2.2.2.1.;.o.) v 4 # @ @ O - J P 9 9 < , , , , - - 8 ; , < 8 , o O # # O 7 ; 7 O X . X o o $ l / X.=.<.",
"2.2.2.2.2.2.2.2.2.2.2.2.2.2.2.2.1.;.O._ m w * @ @ @ @ F I U H 9 9 0 0 9 8 8 7 , 7 7 7 , @ # ; ; - 9 7 ;   O o o O O $ l / X.=.<.",
"2.2.2.2.2.2.2.2.2.2.2.2.2.2.2.2.1.;.O._ m e * @ o X O F E 9 F 0 0 G F 9 9 7 8 8 9 9 9 8 - # , , ; 9 ; -   O o O O @ % z / X.=.<.",
"2.2.2.2.2.2.2.2.2.2.2.2.2.2.2.2.1.;.O._ B p 4 - - # < P W 0 G 0 9 F F 9 8 8 9 8 8 7 7 8 - # < 8 , 0 ; - . # O @ @ @ % l / X.=.<.",
"2.2.2.2.2.2.2.2.2.2.2.2.2.2.2.2.1.;.O._ B y > ; ; - - H G 0 F 8 7 9 9 9 8 7 8 9 9 8 9 0 - ; 9 9 < F < # .   X o o O $ z / X.=.<.",
"2.2.2.2.2.2.2.2.2.2.2.2.2.2.2.2.1.;.O._ B y : # # # - F < 0 F 9 7 9 8 9 0 8 8 9 9 9 9 9 ; ; 9 7 , F < -   O o o O @ $ l / X.=.<.",
"2.2.2.2.2.2.2.2.2.2.2.2.2.2.2.2.1.;.O._ m y > O @ @ , K J 9 F 9 8 7 9 0 0 0 9 0 0 9 0 9 , ; 7 < , F < -   @ X O O O $ z / X.=.<.",
"2.2.2.2.2.2.2.2.2.2.2.2.2.2.2.2.1.;.O._ m e % @ O O - J W F G F 9 F 0 0 G F 0 0 0 0 F 0 , , 8 7 , 0 < ;   # X o o O $ l / X.=.<.",
"2.2.2.2.2.2.2.2.2.2.2.2.2.2.2.2.1.;.O._ m e $ @ @ O @ F W G F 9 9 F F F F F 0 F 0 0 0 F < < 7 8 < 0 < ,   # o O O O $ l / X.=.<.",
"2.2.2.2.2.2.2.2.2.2.2.2.2.2.2.2.1.;.O._ m e $ o O o O F W 0 G 9 9 0 F H F 0 9 0 F F 0 F 7 7 8 < 8 F 9 <   X X o O @ % l / X.=.<.",
"2.2.2.2.2.2.2.2.2.2.2.2.2.2.2.2.1.;.O._ m y % @ O o O 0 E 0 F 0 0 H J H F 9 9 0 F F 0 F 7 8 0 9 < F 7 - . # X O O O + l / X.=.<.",
"2.2.2.2.2.2.2.2.2.2.2.2.2.2.2.2.1.;.O._ m y > # @ O # H W G H 0 9 G G F 0 0 0 F G F 0 9 < 8 8 7 8 G < ;   O o o O O $ l / X.=.<.",
"2.2.2.2.2.2.2.2.2.2.2.2.2.2.2.2.1.;.O._ m y : # # # ; J E G J 0 9 F F 0 9 F 0 0 G F F 0 < 9 9 9 7 F 7 ;   . O @ @ @ % l / X.=.<.",
"2.2.2.2.2.2.2.2.2.2.2.2.2.2.2.2.1.;.O._ m e $ O @ @ ; L P L L F 9 G G G G H H J H H H H 9 0 F G F H 8 ;   @ . X o @ $ l / X.=.<.",
"2.2.2.2.2.2.2.2.2.2.2.2.2.2.2.2.1.;.O._ m y % O O O - J W G G G 0 J F F H G H H G G G F 9 0 0 9 0 0 7 ; . o X o o O $ l / X.=.<.",
"2.2.2.2.2.2.2.2.2.2.2.2.2.2.2.2.1.;.O._ m e % O o O # G E G G 0 0 J G 0 F 0 F F F F 0 0 < 8 F 9 9 0 8 ;   # X o o O % z / X.=.<.",
"2.2.2.2.2.2.2.2.2.2.2.2.2.2.2.2.1.;.O._ m e % @ O o @ G Y F J G G J G 0 F F G G F 0 0 F 9 0 F F F F 8 ; . ; o O O O % l / X.=.<.",
"2.2.2.2.2.2.2.2.2.2.2.2.2.2.2.2.1.;.O._ m e % @ O o # J E F K H G H G 0 0 F F G F G F F 0 0 F F F F 7 ; . X o O O O $ l / X.=.<.",
"2.2.2.2.2.2.2.2.2.2.2.2.2.2.2.2.1.;.O._ m y : # @ O # G F 7 0 9 9 G 0 9 9 9 9 9 0 0 9 F G 0 0 G H F H , . o o o o @ % l / X.=.<.",
"2.2.2.2.2.2.2.2.2.2.2.2.2.2.2.2.1.;.O._ m e $ @ @ O @ o X O o o o X o X o o o o o o o X o o X X X X X X X X o @ @ @ % z / X.=.<.",
"2.2.2.2.2.2.2.2.2.2.2.2.2.2.2.2.1.;.O._ m e % # @ O @ X X o X . . X O O X X . X . . O o X . X O X o @ - @ X o o O O $ z / X.=.<.",
"2.2.2.2.2.2.2.2.2.2.2.2.2.2.2.2.1.;.O._ m e $ @ @ O O o o O O o o o o o o o o o o o o o o o O O @ @ @ @ @ @ @ @ @ @ % z / X.=.<.",
"2.2.2.2.2.2.2.2.2.2.2.2.2.2.2.2.1.;.O._ m e % # @ @ @ @ @ O O O o o o o o O O O O O @ @ @ @ @ O @ @ @ @ @ @ @ # # # % z / X.=.<.",
"2.2.2.2.2.2.2.2.2.2.2.2.2.2.2.2.1.;.O._ B e % @ # # - # - # # # # # # # # @ # # # @ @ @ @ @ @ @ O O O @ @ @ @ @ # - : l / X.=.<.",
"2.2.2.2.2.2.2.2.2.2.2.2.2.2.2.2.1.;.O._ B h p y e y y y y y y y e e e e e e e e e e e e e e e e e e e e e e e e e e p v ) X.=.<.",
"2.2.2.2.2.2.2.2.2.2.2.2.2.2.2.2.1.;.O.[ ) / ^ ^ ^ ^ ^ ^ ^ ^ ^ ^ ^ ^ ^ ^ ^ ^ ^ ^ ^ ^ ^ ^ ^ ^ ^ ^ ^ ^ ^ ^ ^ ^ ^ ^ ^ ^ ^ / ' o.=.<.",
"2.2.2.2.2.2.2.2.2.2.2.2.2.2.2.2.1.:.%.@.@.@.@.@.@.@.@.@.@.@.@.@.@.@.@.@.@.@.@.@.@.@.@.@.@.@.@.@.@.@.@.@.@.@.@.@.@.@.@.@.@.%.;.<.",
"2.2.2.2.2.2.2.2.2.2.2.2.2.2.2.2.2.1.,.,.,.,.,.,.,.,.,.,.,.,.,.,.,.,.,.,.,.,.,.,.,.,.,.,.,.,.,.,.,.,.,.,.,.,.,.,.,.,.,.,.,.,.<.1.",
"2.2.2.2.2.2.2.2.2.2.2.2.2.2.2.2.2.2.2.2.2.2.2.2.2.2.2.2.2.2.2.2.2.2.2.2.2.2.2.2.2.2.2.2.2.2.2.2.2.2.2.2.2.2.2.2.2.2.2.2.2.2.2.2."
};
