/* XPM */
static const char *num2[] = {
/* columns rows colors chars-per-pixel */
"64 64 115 2 ",
"   c #0D0000",
".  c #130000",
"X  c #1C0000",
"o  c #240000",
"O  c #2C0000",
"+  c #330000",
"@  c #3B0000",
"#  c #34000D",
"$  c #3B000D",
"%  c #24001C",
"&  c #350016",
"*  c #3C0016",
"=  c #3F001C",
"-  c #3D0024",
";  c #390038",
":  c #430000",
">  c #4B0000",
",  c #4B000D",
"<  c #540000",
"1  c #5C0000",
"2  c #56000D",
"3  c #430016",
"4  c #4A0016",
"5  c #44001C",
"6  c #4A001C",
"7  c #500016",
"8  c #53001C",
"9  c #640000",
"0  c #6C0000",
"q  c #740000",
"w  c #7C0000",
"e  c #450026",
"r  c #4B0025",
"t  c #4C002E",
"y  c #550025",
"u  c #5A0024",
"i  c #52002E",
"p  c #5A002D",
"a  c #40003B",
"s  c #540035",
"d  c #5D0033",
"f  c #56003B",
"g  c #5E0038",
"h  c #640032",
"j  c #65003D",
"k  c #68003D",
"l  c #490049",
"z  c #5C0042",
"x  c #5C004F",
"c  c #650042",
"v  c #6C0042",
"b  c #6D004B",
"n  c #71004E",
"m  c #6C0053",
"M  c #6E005F",
"N  c #710055",
"B  c #73005C",
"V  c #670066",
"C  c #6A0060",
"Z  c #6F006C",
"A  c #740062",
"S  c #74006A",
"D  c #7B0068",
"F  c #740071",
"G  c #7A0077",
"H  c #7D007D",
"J  c #830000",
"K  c #8B0000",
"L  c #930000",
"P  c #9B0000",
"I  c #A30000",
"U  c #AB0000",
"Y  c #B40000",
"T  c #BB0000",
"R  c #C30000",
"E  c #CB0000",
"W  c #D40000",
"Q  c #DB0000",
"!  c #E20000",
"~  c #EB0000",
"^  c #F50000",
"/  c red",
"(  c #83006D",
")  c #850075",
"_  c #860080",
"`  c #890083",
"'  c #8C008B",
"]  c #91008C",
"[  c #940093",
"{  c #940094",
"}  c #9B009B",
"|  c #9D009D",
" . c #A300A3",
".. c #A400A4",
"X. c #A500A5",
"o. c #AB00AA",
"O. c #AF00AF",
"+. c #B200B2",
"@. c #BB00BB",
"#. c #C300C3",
"$. c #C400C4",
"%. c #C800C8",
"&. c #CB00CB",
"*. c #D600D6",
"=. c #DA00DA",
"-. c #DB00DB",
";. c #DE00DE",
":. c #E300E3",
">. c #E500E5",
",. c #E900E9",
"<. c #EE00EE",
"1. c #F000F0",
"2. c #F400F4",
"3. c #FB00FB",
"4. c #FE00FE",
/* pixels */
"4.2.1.1.1.1.1.1.1.1.1.1.1.1.1.1.1.1.1.1.1.1.1.1.1.1.1.1.1.1.1.1.1.1.1.1.1.1.1.1.1.1.1.1.1.1.1.1.1.1.1.1.4.4.4.4.4.4.4.4.4.4.4.4.",
"4.;.%.#.$.$.$.$.$.$.$.$.$.$.$.$.$.$.$.$.$.$.$.$.$.$.$.$.$.$.$.$.$.$.$.$.$.$.$.$.$.$.$.$.$.$.$.$.$.$.$.%.=.>.1.4.4.4.4.4.4.4.4.4.",
"3.*.o.] ` ` ` ` ` ` ` ` ` ` ` ` ` ` ` ` ` ` ` ` ` ` ` ` ` ` ` ` ` ` ` ` ` ` ` ` ` ` ` ` ` ` ` ` ` ` ' { o.+.%.=.1.4.4.4.4.4.4.4.",
"3.*.X.( v k k k k k j j k k k k k k k j j k k j j k k k k k k k k k j j j j j k k k k k k k v v v b n B F H } +.%.>.3.4.4.4.4.4.",
"3.*.X.D r : @ > : : + + @ + @ @ @ @ @ + + + @ @ @ @ @ : : : : : : @ @ @ + @ @ : : : @ : : @ : : , $ r u h b C H } @.*.3.4.4.4.4.",
"3.*.X.D y > @ @ @ + o o O O O + + + @ + O + + + + O O O + + O + O O O + + + O + @ @ + + O + @ @ @ + * * 5 y j b F [ +.;.3.4.4.4.",
"3.*.X.D r @ + O + @ o o O O + O + + + : : : @ @ @ @ @ + @ + @ @ @ + + : : : @ : : @ @ @ + O + @ : + & $ # 5 r p b Z { #.,.4.4.4.",
"3.*.X.D r @ + @ + + . + @ @ @ > X @ > < : 1 1 : < < < : @ @ : : > : @ @ > > > @ 1 < > @ o + @ + @ @ O O + 3 3 5 p b F  .%.2.4.4.",
"3.*.X.D r @ + O J : o + > E J X + q P ^ ! ~ P P P J Y U L T K U T R U L J J I ~ W J Q + > I . @ O + O O + # $ 5 r d m ` +.>.4.4.",
"3.*.X.D r @ + O J @ : : 1 > 1 : 9 0 q q Y w q 0 9 9 1 0 9 9 0 0 0 q w w 0 9 0 9 J q I q > 1 U @ 1 X o O O O + @ $ 4 g Z | *.3.4.",
"3.*.X.D r O O o 9 @ : @ o @ + + O > 1 q J q 9 J w w > w w < 9 1 J L K w 1 0 > q 0 q K q K J 1 ! : . o o O O + + $ 5 p N ' #.<.4.",
"3.*.X.D r O o X 1 @ @ O . X O o X @ 1 < q : < 1 0 1 < 9 @ : < > : q 9 : < 9 @ < < 0 q w 1 0 L q 9 @ @ X O O + + + 5 6 c G +.>.4.",
"3.*.X.D - O o o K > 9 o   . : . X @ 1 < 9 < : > < < 1 < 1 9 9 0 0 q w > 1 < : < > 9 0 < 1 0 q q w w W . + + @ + + * * p S O.:.4.",
"3.*.X.D e O O O J R q + @ . o . . O > 9 > < @ > > < < 1 1 < 9 9 9 q 0 > 9 > + > 1 0 9 < 1 1 0 0 0 K J J O : + + @ $ * i A o.=.3.",
"3.*.X.D r + + O K 1 1 < O   @ X X . @ 0 < @ : < < < > 9 1 > 0 9 9 J < @ < > < 9 < w q 0 < 9 q q 9 0 w P 9   O + @ @ @ r B | %.2.",
"3.*.X.D r + + o J > < @ O @ > @ O @ < 1 < + < 9 1 > < < < 1 q 9 9 0 1 : < 9 < 0 9 J J 9 < 1 9 9 9 9 0 q w : . + + @ @ 3 N { $.2.",
"3.*.X.D e O o X w : 0 < < 1 < : > O 1 J K J w 0 9 < 1 9 1 1 q 0 0 w q + 0 0 < q 0 J J q < > < < 9 9 9 0 q > X + + @ : 3 N { %.2.",
"3.*.X.D e + O o w < > 0 1 < 0 : : @ K L w w 0 0 9 1 1 9 9 0 0 0 w J w 1 w q 1 q 9 J J 0 1 < 1 < 1 1 1 w q P X O + @ + * N { %.2.",
"3.*.X.D r O o + : @ < 1 9 < 0 0 < < 0 9 9 K 0 < 1 1 1 1 9 1 0 0 9 q K Y P K 0 w 9 J w q 1 9 9 1 < : < 1 0 J @ . o + @ * N { $.2.",
"3.*.X.D r + O O . X o o X X X X X X X o o O X o X X X X o O o X o O > U P J q J 0 w q q < 1 1 0 9 < 9 9 < J : . o O @ 3 N { $.2.",
"3.*.X.D e O O O O O O O o X . X . . . . X . . X o X . X + O O o O +   o L P q w 9 w J w 9 9 9 9 1 1 < < < q >   o + + * m { $.2.",
"3.*.X.D r @ + + + + O O o o O o o o X o o o O O + o o o O O + O o o o w ^ J q w 9 J q 0 9 0 0 1 1 < 1 < 1 L < X o O + * m { $.2.",
"3.*.X.D t * 5 @ @ @ + O O O O O o o o o o o O O O O o o O O O O O O O 0 W w 0 q 9 K q J 9 1 0 9 1 9 q 9 J w 1 X X O @ 3 m { %.2.",
"3.*.X.D s = = + + @ @ + + + + + + + O o o O O o o O o o O O + + O O O K R J w w 9 J w J 0 0 0 q 9 0 1 0 K 0 < X o O O * N { %.2.",
"3.*.X.) n d - + + O + @ @ + + O + + + + + O O O O @ O o + + O O o O @ W I K 0 w 1 w w w 9 0 q w J 0 9 q w w > O + @ @ * m { %.2.",
"3.*.O.' V a 3 : + + + + @ + + O O O o o < < < < 1 1 > > 0 1 < < 1 I ~ P J J 0 q 1 K J J 0 q q K J 1 0 J q L :   O + + 3 m { %.2.",
"4.;.$.} F z 7 : @ + + O O + @ o + > Y Q / J 1 Q 1 K E q > > w K w q q w P w q w 9 w w w 0 9 q q 9 0 q 0 q w : O + @ @ 3 m { $.2.",
"4.1.%.| Z j 4 + + + + O + + o 9 I P L 9 0 q 0 9 1 1 1 < 9 0 9 0 9 q 0 0 0 q < 0 : 9 9 0 0 9 q 1 9 0 w 9 q w X + + @ @ 3 m { $.2.",
"4.2.%.} M p 5 @ @ + + + O X Y Y : T Y w q K 0 9 < 1 q 1 0 q q 9 0 w 0 < 9 > > 1 + > 9 0 1 1 9 > 1 9 0 0 J : @ + + O + * m { $.2.",
"4.2.$.' b 8 5 + + O + O O Q w < 0 q 0 w J J 9 1 1 0 0 < 9 w w q 0 q q 1 q 0 1 0 > 9 0 < > 9 0 1 w 9 9 w 9 O . o + + + 3 N { $.2.",
"4.>.@._ k 3 * @ + + O o T 9 P 0 < 1 w K w 0 1 < q q 9 < q K w q K L K 0 K K w J q w K 0 9 J q w P w J w > o O + @ @ : 6 B } %.2.",
"4.=.O.) d @ @ + + O o R U Y L 9 > < 9 1 9 9 > 1 1 9 9 : q J 1 9 J J w 9 w q 0 q < q q q 0 0 1 w w q w 1 + O @ + + @ : 4 B  .*.2.",
"4.*.X.D i : @ + + o 0 T q L 0 < > 9 w q 9 0 J w q q 0 > 9 1 > 9 q 9 0 1 q 9 1 J 1 J 9 w q 0 q J w J < o o o + @ @ @ 5 p S O.:.3.",
"3.*.X.D t + + O O @ I < J w w 0 1 : < < 1 J w q q q 0 9 K J J I P L L J P J J 0 0 J K J K J w K w < o @ X O + + + + 3 g F +.>.4.",
"3.*.X.D e O O o o 0 < 9 w 9 1 < : : : 1 q q 0 1 1 1 0 1 0 J L I K q L w K w 0 J < w J w K K w 9 : o O O + + + + + + 4 b ` @.,.4.",
"3.*.X.D r + + + + U w J 1 < + O @ + 1 q 0 0 9 < > 1 w 9 0 K J w w w 0 0 w q J w 9 0 K w 9 < : + . O + + + @ @ @ : : 8 x ' @.<.4.",
"3.*.X.D r @ @ + : Q L L q 0 1 > 9 1 1 9 0 0 9 9 9 0 K w q 9 < > : > : > : > : : @ < + + o   : O O + + + @ @ @ : : > y l H O.*.2.",
"3.*.X.D r + O O + 9 J 0 q q q 0 9 < > > 1 1 9 < 9 w K 0 :   O + o o X X X . . . + .     . . X o + + + + + + + + @ @ % ; V } $.2.",
"3.*.X.D e O o o < T K 0 1 0 9 < < < < > < q 0 1 q K J > @ : . . . X X . X X o X X X X o O O O @ @ @ @ : : : : : : : 2 u N [ $.2.",
"3.*.X.D e + + + w P q w w q q q 0 w 0 0 q J 9 0 K K 9 o o + + o O O O O o O O O O o O O O O + @ + + + + + + + @ @ @ 3 5 m [ $.2.",
"3.*.X.D e + + O K 0 0 9 q 9 0 0 9 q 9 w J q 9 w K J 9 . X O + O O + + O + O O + + O O O + O O O O + + + O O + + @ @ $ * m [ $.2.",
"3.*.X.D r @ @ O K 1 J 0 1 0 w 0 0 q 9 1 J q 0 K J q 1 . + + + O O + O O O O O O O o O + + + + O O + + + O O + + + @ @ 3 m [ $.2.",
"3.*.X.D r + + + L K I < 9 9 9 0 9 q 9 0 0 0 w K w q 0   + : > o o + O O o X o o o O O O O O + O o o o o O O + O + + + * m [ $.2.",
"3.*.X.D e O O o q L K q 0 9 9 0 9 9 1 0 0 0 J K q K T L T I T U Y R Y T T Y R T U L Y T R T T T R T U R T R 1 X O + @ * m [ $.2.",
"3.*.X.D r + @ O K P w q q 9 0 q 0 w 9 q q 9 w J w K W E P Q Y U L Y K L K w J I w U W Q R P K J q 0 Q L L P 1 X o O + * m [ $.2.",
"3.*.X.D r O + O w 0 L q 9 0 9 q 0 q 1 q q 0 J L w J K q J q J w 0 w w 0 J J w w 0 P q w J J q q q w 9 0 9 0 9 X X o + * m [ $.2.",
"3.*.X.D e O o X q R J J q 9 0 w q 9 9 1 0 1 J K q q L K J J J K 0 K K J K w K L 0 K w J K L q q q K 0 0 q J 9 o O O + * m [ $.2.",
"3.*.X.D e o o X K ~ U w w q 9 1 1 0 1 > q < J K 9 q J q q q w w 9 J q q K J J J 0 L q w J J 1 0 9 1 < < 1 0 0 X o O O * m [ $.2.",
"3.*.X.D r + + + K W J w w K K w 0 9 : 1 w q J K q 0 K J J q w J 9 K K J I K J K 1 K J K K L 0 0 0 q w J J J 0 X o O + * m [ $.2.",
"3.*.X.D r + O o w 0 w w q < 0 w 9 0 < 9 w 0 J J < > J w w J J K 0 K L J I L K L 9 L J K J L q w w q q J K J 0 X o O + * m [ $.2.",
"3.*.X.D r + O O 0 ~ U w 1 1 < 9 q 0 9 0 q q K 0 q 1 K K J K K L 0 L K J I K L L q P w w J L q J J K K K K P 0 X X o O * m [ $.2.",
"3.*.X.D e + + O L P J w q < < w K q w 0 9 q w q q 1 J w w w w J 0 K P K I L L L q P w K L P q J J K K J J K 0 o X o O & m [ $.2.",
"3.*.X.D e O O + w J w J J 1 J J 9 q 0 9 0 q J 9 9 q J K J L K K K w K K P L K P q P q w K P q L J w K w L J 0 X X o O & m [ $.2.",
"3.*.X.D r + O o q < 0 J J 0 q 0 J L w < P q U 1 0 w q q I q J L w q q U J q J K w J q J q J P q 0 w w J w L 9 X o O O * m [ $.2.",
"3.*.X.D e O O O o o o X o o o + J X X 0 X o X O X o X o : o X X X X X X X X X X o o o X o X X o o X o X o X o X o O O * m [ $.2.",
"3.*.X.D e O O o X X . . . . X X     X . . O .     X + : O + X o O @ + + @ @ o o . . O O o O X o + o . . . . o X X O O & m [ $.2.",
"3.*.X.D e + O o o o o o o o O o o O o o O O o o o o O O O + + + + + + + + + + @ @ @ @ @ @ @ @ @ + + + O O O O O o O O & m [ $.2.",
"3.*.X.D r @ @ + + + + O + + + + O + + O O + + O + O O O O O O + + + + O O + O O O o O o O O O O O O O O O O + + + + + * m [ $.2.",
"3.*.X.D r @ @ @ + @ O O O O + + O O O O O O O O O o O + + + + @ O O O O O O O O + @ @ : @ + o O O + + + O O + @ @ : > 3 m [ $.2.",
"3.*.X.D f t t t t t t t t t t t t t t t t t t t t t t t i t t t t t t t t t t t t t t t t i i t t t t t i i t i i i i s B { $.2.",
"3.*.o.] ` _ _ _ _ _ _ _ _ _ _ _ _ _ _ _ _ _ _ _ _ _ _ _ _ _ _ _ _ _ _ _ _ _ _ _ _ _ _ _ _ _ _ _ _ _ _ _ _ _ _ _ _ _ _ _ ' | $.2.",
"4.;.%.$.$.$.$.$.$.$.$.$.$.$.$.$.$.$.$.$.$.$.$.$.$.$.$.$.$.$.$.$.$.$.$.$.$.$.$.$.$.$.$.$.$.$.$.$.$.$.$.$.$.$.$.$.$.$.$.$.$.$.*.2.",
"4.1.1.1.1.1.1.1.1.1.1.1.1.1.1.1.1.1.1.1.1.1.1.1.1.1.1.1.1.1.1.1.1.1.1.1.1.1.1.1.1.1.1.1.1.1.1.1.1.1.1.1.1.1.1.1.1.1.1.1.1.1.1.4.",
"4.4.4.4.4.4.4.4.4.4.4.4.4.4.4.4.4.4.4.4.4.4.4.4.4.4.4.4.4.4.4.4.4.4.4.4.4.4.4.4.4.4.4.4.4.4.4.4.4.4.4.4.4.4.4.4.4.4.4.4.4.4.4.4."
};
