/* XPM */
static const char *num3[] = {
/* columns rows colors chars-per-pixel */
"64 64 165 2 ",
"   c #0C0000",
".  c #140000",
"X  c #1C0000",
"o  c #240000",
"O  c #2C0000",
"+  c #27000D",
"@  c #2D000D",
"#  c #330000",
"$  c #3C0000",
"%  c #35000D",
"&  c #3C000D",
"*  c #260016",
"=  c #2F0016",
"-  c #2E001C",
";  c #340016",
":  c #3C0016",
">  c #30001C",
",  c #3C001C",
"<  c #2D0022",
"1  c #310026",
"2  c #32002A",
"3  c #3B002A",
"4  c #3B0032",
"5  c #430000",
"6  c #4C0000",
"7  c #43000D",
"8  c #4E000D",
"9  c #540000",
"0  c #5B0000",
"q  c #51000D",
"w  c #430016",
"e  c #4A0016",
"r  c #44001C",
"t  c #4A001C",
"y  c #540016",
"u  c #580016",
"i  c #630000",
"p  c #6C0000",
"a  c #64000D",
"s  c #68000D",
"d  c #740000",
"f  c #7B0000",
"g  c #6C0016",
"h  c #60001C",
"j  c #6B001C",
"k  c #750016",
"l  c #72001C",
"z  c #440022",
"x  c #4C0022",
"c  c #46002D",
"v  c #4C002E",
"b  c #530024",
"n  c #590024",
"m  c #51002E",
"M  c #5C002C",
"N  c #4D0032",
"B  c #460038",
"V  c #48003B",
"C  c #530032",
"Z  c #5C0033",
"A  c #550039",
"S  c #5B003D",
"D  c #630022",
"F  c #6E0022",
"G  c #62002A",
"H  c #6A002E",
"J  c #600034",
"K  c #65003C",
"L  c #68003D",
"P  c #7E0035",
"I  c #5E0042",
"U  c #54004B",
"Y  c #5E004D",
"T  c #5F0059",
"R  c #620043",
"E  c #6B0043",
"W  c #66004A",
"Q  c #6B004B",
"!  c #72004E",
"~  c #660054",
"^  c #6B0055",
"/  c #63005A",
"(  c #6B005C",
")  c #720054",
"_  c #71005B",
"`  c #6C0063",
"'  c #6E0069",
"]  c #750064",
"[  c #790062",
"{  c #75006C",
"}  c #7A006B",
"|  c #750073",
" . c #7B0072",
".. c #7C007C",
"X. c #840000",
"o. c #8B0000",
"O. c #930000",
"+. c #9C0000",
"@. c #810016",
"#. c #9E001C",
"$. c #A40000",
"%. c #AB0000",
"&. c #B40000",
"*. c #BB0000",
"=. c #A40016",
"-. c #AD001C",
";. c #BE0016",
":. c #810022",
">. c #9D0026",
",. c #A7002E",
"<. c #B80022",
"1. c #B90032",
"2. c #C40000",
"3. c #CB0000",
"4. c #D30000",
"5. c #DB0000",
"6. c #E40000",
"7. c #E80000",
"8. c #F30000",
"9. c #FC0000",
"0. c #C50024",
"q. c #860076",
"w. c #820078",
"e. c #8A007C",
"r. c #860081",
"t. c #8A0084",
"y. c #8C008A",
"u. c #910081",
"i. c #940088",
"p. c #920092",
"a. c #940094",
"s. c #990095",
"d. c #980098",
"f. c #9C009C",
"g. c #A00098",
"h. c #AC009C",
"j. c #A300A3",
"k. c #A500A4",
"l. c #AC00A7",
"z. c #AA00AA",
"x. c #AC00AC",
"c. c #AE00AE",
"v. c #B000AF",
"b. c #B200B2",
"n. c #B400B3",
"m. c #BD00B7",
"M. c #BB00BB",
"N. c #C300B7",
"B. c #C400C4",
"V. c #C500C5",
"C. c #CC00C5",
"Z. c #CB00CB",
"A. c #D600CA",
"S. c #D100D1",
"D. c #D200D2",
"F. c #D900D9",
"G. c #DE00DE",
"H. c #E800DB",
"J. c #E200E2",
"K. c #E300E3",
"L. c #EB00EB",
"P. c #F100F1",
"I. c #F600F6",
"U. c #FC00FC",
"Y. c #FE00FE",
/* pixels */
"Y.I.P.P.P.P.P.P.P.P.P.P.P.P.P.P.P.P.P.P.P.P.P.P.P.P.P.P.P.P.P.P.P.P.P.P.P.P.P.P.P.P.P.P.I.Y.Y.Y.Y.Y.Y.Y.Y.Y.Y.Y.Y.Y.Y.Y.Y.Y.Y.Y.",
"Y.K.Z.V.V.V.V.V.V.V.V.V.V.V.V.V.V.V.V.V.V.V.V.V.V.V.V.V.V.V.V.V.V.V.V.V.V.V.V.V.V.V.V.V.S.G.K.L.Y.Y.Y.Y.Y.Y.Y.Y.Y.Y.Y.Y.Y.Y.Y.Y.",
"Y.K.M.s.t.t.t.t.t.t.t.t.t.t.t.t.t.t.t.t.t.t.t.t.t.t.t.t.t.t.t.t.t.t.t.t.t.t.t.t.t.t.y.p.f.z.b.V.S.G.L.Y.Y.Y.Y.Y.Y.Y.Y.Y.Y.Y.Y.Y.",
"Y.K.M.u.! L E K K L L K L K K L K L K K K L K K K L L L L K K K L K K K K K K E E E ! ) [ { ..y.f.b.V.F.L.Y.Y.Y.Y.Y.Y.Y.Y.Y.Y.Y.",
"Y.K.M.e.C $ 5 $ $ $ 5 $ $ $ $ $ $ $ # # $ 6 5 # # $ 6 5 5 5 5 $ $ 5 $ $ $ # $ $ $ 7 b b n M L ! ' ..p.z.V.G.I.Y.Y.Y.Y.Y.Y.Y.Y.Y.",
"Y.K.M.e.C $ # # O # # $ $ $ O O # # # # O # $ $ $ # # $ # $ # O # # $ $ # o O O # $ & 7 e e x b J W ` ..d.b.S.P.Y.Y.Y.Y.Y.Y.Y.Y.",
"Y.K.M.e.C # # O O # O O # O O O $ # $ 5 $ # $ $ $ 5 $ $ $ # 5 $ $ $ # $ # o # # $ $ $ & 7 7 e w t b J Q ' t.x.Z.L.Y.Y.Y.Y.Y.Y.Y.",
"Y.K.M.e.C # O O O 5 6 5 $ 9 5 $ X 5 5 6 5 5 $ $ 6 6 6 $ 6 # 0 5 $ 5 5 5 O X O # # # O # # $ 5 5 7 w x n J ( r.j.V.L.Y.Y.Y.Y.Y.Y.",
"Y.K.M.e.C $ # O 5 5.p o 6 p 7.5 *.i 2.$.O.6.$.o.8.$.o.4.8.+.O.+.O.X.o.3.d p o.o O O O # $ $ 5 5 7 7 r z b J ( ..j.Z.P.Y.Y.Y.Y.Y.",
"Y.K.M.e.C $ # o 6 f 9 i X.f f d i 9 6 p 9 f i 9 0 p X.%.f p i i p 0 9 o.4.o.X.+.$.X 9 O $ 5 $ # $ $ $ 5 7 b Z ( r.z.S.Y.Y.Y.Y.Y.",
"Y.K.M.e.C $ # o 5 3.9 $ 5 $ 9 6 5 5 6 p 9 5 9 9 0 i p 9 i p p p i p 6 i o.X.O.o.0 5.5 +.X O O 5 # $ 5 $ 7 x b J ( y.n.K.Y.Y.Y.Y.",
"Y.K.M.e.C $ # X 5 p 0 9 6 o $ 5 # X # 9 9 $ 5 5 0 9 i 5 $ 0 i 9 9 6 # 6 i f i 9 p 0 d 0 +.X o O $ # # # & & & b K ' d.V.P.Y.Y.Y.",
"Y.K.M.e.N o o X $ o.6 5 O o O # O   . # o . o O X o # X 5 O O O O o # 5 6 0 f 5 d i p o.0 $.$ . . o o O # $ w t b Q ..x.F.Y.Y.Y.",
"Y.K.M.e.N o o o 9 3.9 $ $ O O # O # 5 6 $ O 6 $ # $ 9 O 9 9 5 $ 5 $ # # 5 9 i 6 p 9 5 0 o.X.f +.. O O O O O % , z Z ` a.V.P.Y.Y.",
"Y.K.M.e.N # O O i X.p 0 # . $ 9 5 # $ 9 $ o 0 6 6 $ 9 O 5 6 5 # $ $ # $ $ 0 i 5 p 0 $ 5 0 O.%.%.# o $ # O # # r w b W r.n.K.Y.Y.",
"Y.K.M.e.N # # O i +.X.p $ o $ 6 5 O 5 9 $ X 5 $ 5 # 6 O 9 9 5 O # O # $ 6 9 i 5 6 9 $ O 0 f d o.9 X.. O # # $ $ & t Z ' f.S.Y.Y.",
"Y.K.M.e.C $ # O 9 6.i i 6 O 6 9 9 $ 0 0 6 O 5 6 9 6 0 $ 9 6 5 5 5 5 6 5 9 9 i $ 0 0 # # $ f d p f f $ . X O O # 5 x b ) y.V.P.Y.",
"Y.K.M.e.C # # O 0 f 0 p i 5 i p p 6 0 p 0 6 5 9 i 9 0 6 i 9 9 9 0 9 i i 0 i i 5 i 0 $ $ 6 0 6 i d d 6 . # O # 5 $ 7 t R ..n.K.Y.",
"Y.K.M.e.C $ $ # 6 6 9 d 9 0 0 9 9 i f 0 9 6 9 6 9 0 0 5 i p f i p d +.%.o.d d 0 0 i # $ $ 9 $ 6 i p f o.9 $ $ $ # & w Z | x.K.Y.",
"Y.K.M.e.N # $ # X . ; - > 3 4 4 1 < < * X X X o # X 5 5 X # o o o O 5 i o.X.f 0 0 9 # 5 6 0 $ 5 9 9 X.4.6 o # # $ $ w b ] k.F.Y.",
"Y.K.M.e.C $ # # # o @ = V T | ..' U 2 * X o X o O O o . X X X . X X . $ +.%.X.0 i 9 $ 5 5 9 5 # 6 6 0 f i   O # # # $ t _ d.Z.I.",
"Y.K.M.e.C $ $ # # # # + U r.z.b.g.{ N @ o o o O O o # O o o o o O # # X i 2.+.0 9 6 $ $ 5 6 # $ 5 $ 6 d %.o O O # $ $ t W y.V.I.",
"Y.K.M.e.C $ # # # # O @ T f.Z.F.N.r.A ; # # # $ $ $ # # O O O O # $ $ 9 5 4.2.0 0 6 # O $ 9 $ O 5 $ # i $.i X o O $ 5 t W y.V.I.",
"Y.K.M.e.A 7 7 7 & & & & ` l.F.L.C.y.I % # # O o # 5 O O O O $ # O O O o i p %.i 0 9 # 5 5 6 # # 6 $ # 0 +.O.. O # # # % W y.V.I.",
"Y.K.M.t.( ~ ~ ~ ~ ~ ~ ~  .l.F.L.C.y.S O O # # O # $ $ $ # # # # # O O O $ &.$.i 0 0 $ O 5 9 5 # 6 $ 5 0 d X.p . # # $ $ R y.V.I.",
"Y.K.M.f.a.a.a.a.a.a.a.a.d.v.F.L.V.t.S # # # o i 0 i p 9 9 i i i 0 0 9 p i *.O.i 0 6 6 5 9 i 5 9 6 $ $ 0 p 4.d . O # $ $ R y.V.I.",
"Y.K.S.Z.Z.Z.Z.Z.Z.Z.Z.Z.Z.Z.K.L.V.t.S # # # 9 +.O.3.O.p i d 0 X.p i i o.4.+.d 0 0 9 5 $ 9 9 6 5 5 5 # 6 i X.i   o O # $ I y.V.I.",
"Y.Y.I.I.I.I.I.I.I.I.I.I.I.I.Y.L.V.t.S O O O . # p u h e 9 i 0 0 i 0 6 0 i f +.i 0 5 $ $ 5 5 $ # 5 # o 5 0 O.6 . o O # $ R y.V.I.",
"Y.Y.Y.Y.Y.Y.Y.Y.Y.Y.Y.Y.Y.Y.Y.L.V.t.S # O O 9 *.2.y j q 9 i 9 0 0 6 i 0 i d O.p 9 5 5 5 5 6 # 5 $ $ 5 6 0 o.X.o X o # 5 R y.V.I.",
"Y.Y.Y.Y.Y.Y.Y.Y.Y.Y.Y.Y.Y.Y.Y.L.V.t.S # o o 5 +.p y D y 9 6 6 # O 6 i 0 9 9 i 5 $ 0 9 6 6 i 9 $ $ 6 5 6 i X.f o O O O $ R y.V.I.",
"Y.Y.Y.Y.Y.Y.Y.Y.Y.Y.Y.Y.Y.Y.Y.L.V.t.S # o X o i p D G 7 6 p i 9 9 9 9 9 6 6 0 0 6 0 9 i 0 p 0 9 9 5 6 $ i p X.o O # # $ R y.V.I.",
"Y.Y.Y.Y.Y.Y.Y.Y.Y.Y.Y.Y.Y.Y.Y.L.V.t.S o o X # *.&.D Z & O # $ 6 6 $ 5 $ o p f i i 6 0 9 9 i 6 5 6 $ 5 9 p o.p o O O # $ R y.V.I.",
"Y.Y.Y.Y.Y.Y.Y.Y.Y.Y.Y.Y.Y.Y.Y.L.V.t.S O o X O p d F P a 9 # 5 9 $ 5 5 X 9 0 d 0 0 i 6 6 9 p $ 5 6 5 $ 5 p f p o X o O $ R y.V.I.",
"Y.Y.Y.Y.Y.Y.Y.Y.Y.Y.Y.Y.Y.Y.Y.L.V.t.S # # O 5 O.4.F H s 0 i 6 d i 9 6 6 i p f 5 0 i 5 $ $ p 5 # 6 5 # $ 0 p i o o O O # R y.V.I.",
"Y.Y.Y.Y.Y.Y.Y.Y.Y.Y.Y.Y.Y.Y.Y.L.V.t.S # # # 9 2.O.@.:.s 0 0 0 f f 5 5 9 p 9 6 6 i 0 9 $ # 0 5 $ 6 6 o 5 i i d o X o O # I y.V.I.",
"Y.Y.Y.Y.Y.Y.Y.Y.Y.Y.Y.Y.Y.Y.Y.L.V.t.S # O O $ p i k l g 0 i 5 9 i i 9 9 p X.d $ $ 9 # O 5 0 $ # # 5 O 9 i X.0 . X o O O I y.V.I.",
"Y.L.S.S.S.S.S.S.S.S.S.S.S.S.K.L.V.t.S # # o o o 5 5 6 6 5 $ $ $ 6 $ 5 5 0 &.%.0 6 i $ $ 6 0 # o # 5 # 9 0 i 5 . o o O # R y.V.I.",
"Y.K.V.z.k.j.j.j.j.j.j.j.k.n.F.L.V.t.S # o O # # 9 O 9 9 $ . # 6 9 # 5 0 i &.d 9 i i 6 9 6 9 # 5 6 6 5 9 i p # X o O # $ R y.V.I.",
"Y.K.M.i.} [ [ [ [ [ [ [ q.l.F.L.C.y.S $ $ # $ $ o o # $ $ # $ $ $ $ $ 5 i 3.p f 0 i 6 6 5 9 $ # 6 i $ 0 i X.o # O O $ $ R y.V.I.",
"Y.K.M.e.J 6 e 7 7 8 8 u _ l.F.L.C.y.I 7 5 5 $ O # # # $ 5 5 $ # # # # O d 6.O.d 0 i 9 5 $ 9 # O 6 6 $ i 0 +.. . o O # & W y.V.I.",
"Y.K.M.e.Z 5 $ # # # # & ( h.A.H.m.t.S w $ # # # # $ $ $ # $ $ O # O # O 2.d +.i p i 6 5 $ 9 $ # 9 9 5 p O.5 o o o O # , W y.V.I.",
"Y.K.M.e.Z 6 5 5 5 $ # % U t.x.b.d.{ C & O $ $ # # 5 5 5 O $ 5 # o o o p 9.f O.i i d 9 9 $ 0 6 # 9 p 9 O.p O # $ # $ $ w W y.V.I.",
"Y.K.M.e.C $ $ 5 $ $ 7 ; B /  .w.{ Y c ; # # O o O O o O # o 9 9 5 o 9 9.f o.o.0 0 i 6 $ 9 9 5 # 9 p 9 X.6   o O # $ $ t _ d.Z.I.",
"Y.K.M.e.C # # # $ *.=.-.#.>.,.1.0.0.<.;.*.*.*.+.2.*.*.&.3.&.*.%.2.6.*.X.X.X.o.0 0 i 9 5 0 p 6 $ 5 d p O.O 5 O O O # : b ] k.S.Y.",
"Y.K.M.e.C $ $ # 0 d 9 +.i p d o.p %.f X.d 6.&.f *.%.%.$.o.d p 4.+.0 i O.X.f X.6 0 9 6 6 6 p 9 0 6 O.d 5 o . # # $ & : Z { x.K.Y.",
"Y.K.M.e.C # # # i +.0 9 p i p i 9 p f X.f f f d X.X.f d f p p d f d d f f d f 5 0 9 9 6 9 p 6 0 f X.i o X o O $ $ 7 w R ..n.K.Y.",
"Y.K.M.e.N O O o d 3.0 0 p i p f d d f d o.d X.f f X.o.i f d 0 d f d p i p d f 9 i 9 6 6 9 i 0 p o.0 O X o o O O # x b ^ y.V.P.Y.",
"Y.K.M.e.N O O # 0 $.9 i i i i p 0 p X.f f i f f d X.X.f 6 i $ i 6 0 9 0 i i f 6 0 0 0 6 6 d d X.i # O # # # # # & w Z ' f.S.Y.Y.",
"Y.K.M.e.C $ O X 6 $.0 0 0 p X.f i 6 f f o.p f d p f o.i 9 p 0 6 0 i p d 0 p X.f d f d d f o.o.i # # X o O # # , , b W ..b.K.Y.Y.",
"Y.K.M.e.N # O o 6 i %.p p f i i d i d f d p f p p X.f d i X.9 f i d i i 9 0 p d p f f d O.X.9 O 6 X O O O # & r r Z ( a.V.P.Y.Y.",
"Y.K.M.e.N O O o 9 2.0 p d d d d i d X.f i i d p p d d d i p 6 f 5 0 i 0 0 i d p f f X.o.d 5 . 5 . o O # # $ w t b W ..x.S.Y.Y.Y.",
"Y.K.M.e.C # O O 0 6 i d d f d f i o.f f X.d d O.f f d X.d X.d f 6 p p d f p X.d X.X.d 9 # O $ o # # # $ & & 7 b K ` a.V.P.Y.Y.Y.",
"Y.K.M.e.N O O o 6 +.0 f d f f 9 f f f X.f f p d f X.O.X.X.+.f o.i d f p d f o.X.X.0 O . . . O # # O # $ & z x J ( t.b.K.Y.Y.Y.Y.",
"Y.K.M.e.C O O O 5 $ 9 %.p i p d p i p o.O.d d 0 f p 0 2.d f p d p d d d i 9 0 # . X O o o O O O # $ $ $ & b Z ~ r.z.S.I.Y.Y.Y.Y.",
"Y.K.M.e.C # o o . X o X X X o X X X X X X X o o o o 0 o o $ X o O o o O $ $   X # O O O # # O # % % r t b Z ( ..f.V.L.Y.Y.Y.Y.Y.",
"Y.K.M.e.N O O o O X X o o X o o o O O # o   o   . O O o o o O o O X O O X o o O O O # # # $ $ $ & w z b S ( ..f.M.K.Y.Y.Y.Y.Y.Y.",
"Y.K.M.e.C # # # O O o o o o O O O o o o X X o o X o X X o o o o o O o X X o o o o O O O % % & w t m Z W ` t.z.V.L.Y.Y.Y.Y.Y.Y.Y.",
"Y.K.M.e.C $ $ # # # # O O O O O O O O O O o o o O O O O O O O O O O O O O O # # $ $ $ 7 7 w t b M I ~ | p.x.S.L.Y.Y.Y.Y.Y.Y.Y.Y.",
"Y.K.M.e.C $ # # $ # # O O O # # O # # # # # # # # O O O O # $ $ $ $ $ $ $ $ $ 5 5 7 w t b b S W ( | y.k.V.F.I.Y.Y.Y.Y.Y.Y.Y.Y.Y.",
"Y.K.M.t.I v N v v v v c c c c c c v v m m m v v v v v v v v v m m m m m A A C A A I R W ^ ' | t.a.z.M.S.L.Y.Y.Y.Y.Y.Y.Y.Y.Y.Y.Y.",
"Y.K.M.s.t.r.r.r.r.r.r.r.r.r.r.r.r.r.r.r.r.r.r.r.r.r.r.r.r.r.r.r.r.r.r.r.t.t.r.r.r.t.t.y.a.k.x.M.Z.F.L.Y.Y.Y.Y.Y.Y.Y.Y.Y.Y.Y.Y.Y.",
"Y.K.Z.V.V.V.V.V.V.V.V.V.V.V.V.V.V.V.V.V.V.V.V.V.V.V.V.V.V.V.V.V.V.V.V.V.V.V.V.V.V.V.V.V.Z.S.K.K.I.Y.Y.Y.Y.Y.Y.Y.Y.Y.Y.Y.Y.Y.Y.Y.",
"Y.I.P.P.P.P.P.P.P.P.P.P.P.P.P.P.P.P.P.P.P.P.P.P.P.P.P.P.P.P.P.P.P.P.P.P.P.P.P.P.P.P.P.P.P.I.Y.Y.Y.Y.Y.Y.Y.Y.Y.Y.Y.Y.Y.Y.Y.Y.Y.Y.",
"Y.Y.Y.Y.Y.Y.Y.Y.Y.Y.Y.Y.Y.Y.Y.Y.Y.Y.Y.Y.Y.Y.Y.Y.Y.Y.Y.Y.Y.Y.Y.Y.Y.Y.Y.Y.Y.Y.Y.Y.Y.Y.Y.Y.Y.Y.Y.Y.Y.Y.Y.Y.Y.Y.Y.Y.Y.Y.Y.Y.Y.Y.Y.Y."
};
