/* XPM */
static const char *num4[] = {
/* columns rows colors chars-per-pixel */
"64 64 98 2 ",
"   c #060000",
".  c #0D0000",
"X  c #140000",
"o  c #1B0000",
"O  c #240000",
"+  c #2C0000",
"@  c #330000",
"#  c #3B0000",
"$  c #37000D",
"%  c #3A000D",
"&  c #350016",
"*  c #3B0016",
"=  c #3D001C",
"-  c #440000",
";  c #4C0000",
":  c #540000",
">  c #5B0000",
",  c #420016",
"<  c #41001C",
"1  c #48001C",
"2  c #640000",
"3  c #6B0000",
"4  c #730000",
"5  c #7B0000",
"6  c #450022",
"7  c #4A0022",
"8  c #4D002E",
"9  c #52002E",
"0  c #5B002E",
"q  c #4E0032",
"w  c #530032",
"e  c #580032",
"r  c #59003B",
"t  c #63003D",
"y  c #5E0041",
"u  c #660042",
"i  c #690042",
"p  c #63004E",
"a  c #6D004C",
"s  c #660058",
"d  c #72005A",
"f  c #6F0063",
"g  c #78006D",
"h  c #740073",
"j  c #7A0070",
"k  c #830000",
"l  c #8B0000",
"z  c #930000",
"x  c #9B0000",
"c  c #9D0000",
"v  c #A20000",
"b  c #A70000",
"n  c #AB0000",
"m  c #B10000",
"M  c #B40000",
"N  c #B80000",
"B  c #BD0000",
"V  c #C20000",
"C  c #C40000",
"Z  c #CA0000",
"A  c #CD0000",
"S  c #D10000",
"D  c #D40000",
"F  c #DA0000",
"G  c #DE0000",
"H  c #E20000",
"J  c #E50000",
"K  c #EB0000",
"L  c #EC0000",
"P  c #800066",
"I  c #86007D",
"U  c #860080",
"Y  c #890085",
"T  c #8B0087",
"R  c #8E008A",
"E  c #8C008C",
"W  c #900087",
"Q  c #92008B",
"!  c #960096",
"~  c #9B009A",
"^  c #9D009B",
"/  c #A300A3",
"(  c #A900A9",
")  c #AA00AA",
"_  c #BB00BB",
"`  c #C400C4",
"'  c #C800C8",
"]  c #D200D2",
"[  c #D400D4",
"{  c #D800D8",
"}  c #D900D9",
"|  c #DF00DF",
" . c #E500E5",
".. c #E900E9",
"X. c #F100F1",
"o. c #F400F4",
"O. c #FC00FC",
"+. c magenta",
/* pixels */
"+.o.X.X.X.X.X.X.X.X.X.X.X.X.X.X.X.X.X.X.X.X.X.X.X.X.X.X.X.X.X.X.X.X.X.X.X.X.X.X.X.X.X.X.X.X.X.X.X.X.X.X.X.X.X.X.X.X.X.X.X.X.X.+.",
"+.| ' ` ` ` ` ` ` ` ` ` ` ` ` ` ` ` ` ` ` ` ` ` ` ` ` ` ` ` ` ` ` ` ` ` ` ` ` ` ` ` ` ` ` ` ` ` ` ` ` ` ` ` ` ` ` ` ` ` ` ` ] o.",
"+.} ( R Y R R Y Y Y Y Y Y Y Y Y Y Y Y Y Y Y Y Y Y Y Y Y Y Y Y Y Y Y Y Y Y Y Y Y Y Y Y Y Y Y Y Y Y Y Y Y Y Y Y Y Y Y Y Y Y ^ ` o.",
"+.} / P a a a i i i i i i u u u u u u u i i i u i i u u u u u i i i u u u u u i i i i u u u u i i i i u u i i i i i i u a Q ` o.",
"+.} / d , # # # # # # # # @ @ @ # @ # # # - - - - - - # # # # - - - - - - - - # # # - @ @ # # - # # # # # # @ @ # - # # e W ` o.",
"+.} / d * @ # @ @ # @ @ # @ + @ # @ @ + + @ @ @ + # @ + @ # # # # # - - # # @ + @ @ # + O + + @ @ @ # # @ @ # # @ @ @ # e W ` o.",
"+.} / d * @ @ @ @ @ # # @ # # # @ # # # # @ @ @ @ @ # @ + # - - - - # # - # - @ @ # - - + @ + @ # # @ @ # # # # # # # # e W ` o.",
"+.} / d * @ @ @ # > + @ # ; # > > - ; : : - # # # - - O @ + @ - # # # - @ # ; - - - : - + @ @ - - # # # - @ @ O O # # # w W ` o.",
"+.} / d * + + @ 2 K G z k 3 4 2 J Z 5 : M l b G ; : O X + + + @ - # @ @ @ A 3 5 5 3 z B x F J J L b z 2 A 2 > o o + @ @ w W ` o.",
"+.} / d & + + @ > A c 4 2 2 2 5 5 3 3 2 > 2 2 2 3 2 > @ @ @ @ # - - # @ : 3 ; 3 > 5 > > 3 4 m k l 5 3 > 2 > 2 o O O + @ w W ` o.",
"+.} / d & + O @ 4 3 k 3 k k 5 5 > l 4 2 3 > k l l 4 - . + @ # @ @ @ @ O @ 4 4 3 ; 5 : 3 5 k z z k 5 > ; 2 : 4 o @ + @ # e W ` o.",
"+.} / d * O O O 4 k x 3 2 > 2 3 : 3 O : ; - > 4 3 > - . + + + @ # @ @ + + l > 2 ; 2 > 3 2 5 l z 4 5 : ; ; - : o o + @ # e W ` o.",
"+.} / d * + + + 4 ; 3 3 > - 2 2 3 2 > > 3 3 3 2 4 : # . O @ @ @ # + + O # 3 > 2 > # 2 ; > 5 4 5 3 3 > ; 2 # : o . O O @ w W ` o.",
"+.} / d * @ @ @ k M 3 - 2 3 2 > - : ; ; : : 2 > 2 - # . o O + # # @ + O @ 5 > 2 3 : ; : > : 3 2 > 2 - 3 2 ; 3 X o o o O q W ` o.",
"+.} / d * @ + @ + - : - 4 5 3 : > > : > 2 > 2 3 2 > - X O O + + @ @ + + # 2 4 2 3 3 > > > > 5 4 2 z > > 5 : 3 - + O O + w W ` o.",
"+.} / d * @ + + 3 # # @ 2 3 2 > 2 2 > > > ; > 3 > : - X + @ @ # # @ @ + @ m 4 > 3 3 > > : ; k 5 2 k 2 ; > : 5 O o + + @ e W ` o.",
"+.} / d & O o o   # 5 3 4 3 2 > 2 3 2 > 2 2 4 5 4 : - O + O O @ # - # @ - v > 2 2 : - > : ; k 4 4 z 3 3 : 2 x X . O # # e W ` o.",
"+.} / d * + O O X 3 k z l 3 4 2 2 4 > 2 3 2 4 5 4 > # o @ @ @ # @ @ # @ - 3 3 2 2 > # > : : k 5 3 z 3 5 3 : l o # + + # w W ` o.",
"+.} / d * + O + > B 2 5 3 3 5 3 2 5 2 4 4 3 5 k 2 3 # X + # # # - # + @ - n 2 2 2 ; # ; ; ; 5 5 5 l 3 5 3 > l o X O + @ w W ` o.",
"+.} / d * + O O 4 3 ; 3 4 5 5 > 2 4 2 4 4 > 3 2 k 3 - O @ # - # # # @ O - l 4 3 > 2 ; > : : 5 k 5 l > 3 4 3 z X X + @ @ w W ` o.",
"+.} / d * @ + + 5 ; # > 3 5 3 : 2 k 3 5 4 ; 3 k l 3 # . + @ @ # # @ @ O - S 3 > ; : - ; : : k k 5 5 > 3 5 3 > o @ O @ @ w W ` o.",
"+.} / d * @ + O l - > - > 3 3 > 2 5 2 5 > 3 l k z 2 - . o O @ # @ @ + + @ 4 2 ; : ; : : : - k 5 4 5 > 4 4 2 5 O + + @ @ e W ` o.",
"+.} / d * + + O 3 2 2 : > 2 3 3 2 5 2 3 k 3 5 k l 2 - . O O + @ # # # @ @ ; > : ; - > > : - k 4 4 5 2 3 3 3 x o @ @ @ @ w W ` o.",
"+.} / d , @ + + 5 ; : 2 > 2 2 3 2 > > k l 2 5 5 5 4 # o + @ @ + @ @ + O @ k > > # : 3 - : - 4 k 3 k > : 3 3 c o X O @ + w W ` o.",
"+.} / d & @ + O 2 # ; 4 2 : 2 2 2 2 5 l k > 5 3 5 > - O + @ # # # @ + + # 5 > - # 3 2 : : - 4 5 4 k 2 2 3 4 2 o o O @ # w W ` o.",
"+.} / d & + @ @ k 3 5 5 - > : > ; > 4 k 4 2 3 5 5 2 - # 2 2 3 3 > ; 2 : 4 5 2 ; ; > : : : - 4 5 5 k 3 4 5 4 3 O + O + # e Y ` o.",
"+.} / d & O + + l : ; 4 ; 2 5 > ; > 3 l k 2 k 4 k : ; z b H M 5 D 2 : N 5 : 4 : > : > : : # 4 4 5 k > : > > z o o + + + w W ` o.",
"+.} / d * + + + 4 2 : 5 2 3 3 - ; # : 2 2 - 2 3 5 ; 4 2 > 2 3 4 2 3 3 > 3 > 3 > ; # : - : @ 2 > : 3 ; : ; 2 x o # + + + w W ` o.",
"+.} / d * @ + O k 4 3 k ; # : : > ; - 4 4 : 2 4 4 ; 3 : 2 4 2 5 3 4 > ; 2 ; > > @ O ; > > + ; 2 ; > @ - - 2 4 o . @ @ @ w W ` o.",
"+.} / d * @ + @ l > k k 2 # 2 2 3 > > 5 k 2 4 4 5 : 4 > 3 4 > k 3 2 - ; : ; 2 ; # # ; : > # > 3 > 2 ; > : 2 5 o X o + @ w W ` o.",
"+.} / d * + + O l 4 > 5 2 + 3 3 > - > k 4 4 5 3 4 : 3 : 2 5 2 5 3 : > 2 ; 2 4 : ; - 2 4 3 ; 3 4 k 4 2 4 3 4 5 O X O @ @ w W ` o.",
"+.} / d * @ @ # l k k 2 - ; > > 2 - 4 k 3 k k 3 5 > 4 # # 3 2 5 4 > : - - 2 ; - @ @ - 3 4 - 2 4 3 2 - 2 > 2 l X + O + # w W ` o.",
"+.} / d * + @ @ 4 2 ; 3 l 4 - - : # 2 > ; 4 3 > 3 # > ; > 5 3 k 2 3 > ; > 3 - ; : ; ; > 4 > 4 3 2 > - 2 > 2 5 o o O + # e W ` o.",
"+.} / d * O O O 5 : ; ; 2 3 > ; 3 2 l 5 z x l l l 2 5 3 k 4 4 l 3 3 3 : ; 3 3 2 2 : # > 4 ; 5 > : 2 - 2 > 2 5 o + + + # e W ` o.",
"+.} / d & + + O 5 # ; # 2 ; - ; 2 : > > l z 4 k 5 2 5 2 4 5 ; k 4 2 3 > > 2 2 > > : + # 2 - 4 : - : - 2 > > k X X + + + w W ` o.",
"+.} / d * @ @ + l b k 3 > : - 3 2 4 4 4 k 3 3 2 k 4 3 3 k 4 > 3 k 4 2 : : 3 3 2 > O O # 2 : 4 ; > : # > ; 2 5 X o o O + w W ` o.",
"+.} / d * # @ @ @ + - - - > l # : # # - - - 2 5 # # - ; - - - - # # # : x C k 2 ; # # : : - 2 > 3 2 - 2 : 2 3 o O + @ @ w Y ` o.",
"+.} / d * @ @ + X X o o o + . X O . X . # @ . X X X o o X o X X o O O O . 3 > ; # @ + ; 3 ; 4 > 2 k @ : 3 > 3 o @ O + @ w Y ` o.",
"+.} / d * @ @ + + O O o o o o O o O O + + O O O O X o o o X X o + o o o # z 2 4 3 : # # 5 : 3 > 2 - + 3 3 4 3 o X + + @ w W ` o.",
"+.} / d < # @ # @ @ @ # # # @ @ @ @ @ + + + @ # @ O + + + + O + + + + O @ k 2 4 2 ; ; @ 4 : 2 2 # ; > > 4 4 l X @ O + @ w W ` o.",
"+.} / d , # @ # @ + @ # # # # # # @ @ # # # @ @ @ + + # @ @ @ + + @ @ + @ b 4 3 > ; ; 2 ; : 5 ; : > > 2 2 l v o o O O @ e W ` o.",
"+.} / d 8 7 6 7 6 6 6 6 6 6 6 6 7 7 6 6 6 6 6 6 6 = = # @ @ % @ = & + O @ M : 2 : 3 2 2 5 ; 2 ; 4 : - 2 2 4 k o o + @ @ w W ` o.",
"+.} ( I j j j j j j j j j j j j j j j j j j j j j f s p y u t 0 1 & + + # 4 > 3 > 2 2 > 4 ; ; 4 5 4 - ; > 2 l o O O O + w W ` o.",
"+.} _ ( ( ( ( ( ( ( ( ( ( ( ( ( ( ( ( ( ( ( ( ( ( / ~ ! ! E h p 9 = @ + - A : 3 2 3 4 2 4 ; 4 k 5 3 3 > : 4 3 o @ O O @ w W ` o.",
"+. .[ [ [ [ [ [ [ [ [ [ [ [ [ [ [ [ [ [ [ [ [ [ [ ] ] ] ] ` / g r $ @ + # c 2 3 2 > 2 l 5 - 4 4 5 2 4 4 3 3 4 o O + + @ e W ` o.",
"+.+.+.+.+.+.+.+.+.+.+.+.+.+.+.+.+.+.+.+.+.+.+.+.+.+.+.+.+..._ U y $ @ + @ c 3 4 ; @ > 5 l - 2 4 k > : 3 l 4 4 o @ + @ @ w W ` o.",
"+.+.+.+.+.+.+.+.+.+.+.+.+.+.+.+.+.+.+.+.+.+.+.+.+.+.+.+.+.X.` Y u % + + - V 2 5 # X : l l - > 2 2 4 3 3 5 l 4 X @ + + @ w W ` o.",
"+.+.+.+.+.+.+.+.+.+.+.+.+.+.+.+.+.+.+.+.+.+.+.+.+.+.+.+.+.X.` Y y @ + + # D x 3 @   - > l # 2 > 2 > > 3 3 k 5 o X + + @ w W ` o.",
"+.+.+.+.+.+.+.+.+.+.+.+.+.+.+.+.+.+.+.+.+.+.+.+.+.+.+.+.+.X.` Y y @ + @ - V N 5 3 - > k v 2 3 4 5 4 4 k 5 k 5 o X o + @ e W ` o.",
"+.+.+.+.+.+.+.+.+.+.+.+.+.+.+.+.+.+.+.+.+.+.+.+.+.+.+.+.+.X.` Y y @ + + - l 5 5 4 ; 5 l x ; z 5 k 4 k z k 5 k O o O O + e W ` o.",
"+.+.+.+.+.+.+.+.+.+.+.+.+.+.+.+.+.+.+.+.+.+.+.+.+.+.+.+.+.X.` Y y @ + O @ V 5 z k l l k c > k 4 5 4 5 l z l n o X o O + w W ` o.",
"+.+.+.+.+.+.+.+.+.+.+.+.+.+.+.+.+.+.+.+.+.+.+.+.+.+.+.+.+.X.` Y y + + O @ A M l k l 5 z x 2 z 5 k k l l x z k o O O O + w W ` o.",
"+.+.+.+.+.+.+.+.+.+.+.+.+.+.+.+.+.+.+.+.+.+.+.+.+.+.+.+.+.X.` Y y + + O @ M k k k 5 z l v 2 l 5 k 5 5 5 5 k l o o O O + w W ` o.",
"+.+.+.+.+.+.+.+.+.+.+.+.+.+.+.+.+.+.+.+.+.+.+.+.+.+.+.+.+.X.` Y u # @ + @ > 2 4 n m 3 4 c k k 5 k k 5 5 5 k G X + + + @ w W ` o.",
"+.+.+.+.+.+.+.+.+.+.+.+.+.+.+.+.+.+.+.+.+.+.+.+.+.+.+.+.+.X.` Y y @ @ + @ o O O o o O o o o o O O o O O O O o o @ + @ @ e W ` o.",
"+.+.+.+.+.+.+.+.+.+.+.+.+.+.+.+.+.+.+.+.+.+.+.+.+.+.+.+.+.X.` Y y # @ + + + O O O O @ O X X X . X . X X . . O o X O + + w W ` o.",
"+.+.+.+.+.+.+.+.+.+.+.+.+.+.+.+.+.+.+.+.+.+.+.+.+.+.+.+.+.X.` Y y - # # # # # # # @ @ @ @ + O O O + O O O O O O O O + + w W ` o.",
"+.+.+.+.+.+.+.+.+.+.+.+.+.+.+.+.+.+.+.+.+.+.+.+.+.+.+.+.+.X.` Y y # # @ @ + + + + + + + + + + + + + + + O O + + @ @ # # e W ` o.",
"+.+.+.+.+.+.+.+.+.+.+.+.+.+.+.+.+.+.+.+.+.+.+.+.+.+.+.+.+.X.` Y y @ # - - - # @ O O + @ @ @ + + + @ # # - # + @ # - - - e W ` o.",
"+.+.+.+.+.+.+.+.+.+.+.+.+.+.+.+.+.+.+.+.+.+.+.+.+.+.+.+.+.X.` Y p 8 9 8 8 8 9 9 9 8 8 8 8 8 8 9 9 8 8 8 9 9 9 9 9 8 w 9 u Q ` o.",
"+.+.+.+.+.+.+.+.+.+.+.+.+.+.+.+.+.+.+.+.+.+.+.+.+.+.+.+.+.X.` ~ Y U U U U U U U U U U U U U U U U U U U U U U U U U U U U ^ ` o.",
"+.+.+.+.+.+.+.+.+.+.+.+.+.+.+.+.+.+.+.+.+.+.+.+.+.+.+.+.+.X.[ ` ` ` ` ` ` ` ` ` ` ` ` ` ` ` ` ` ` ` ` ` ` ` ` ` ` ` ` ` ` ` ] o.",
"+.+.+.+.+.+.+.+.+.+.+.+.+.+.+.+.+.+.+.+.+.+.+.+.+.+.+.+.+.+.X.X.X.X.X.X.X.X.X.X.X.X.X.X.X.X.X.X.X.X.X.X.X.X.X.X.X.X.X.X.X.X.X.+.",
"+.+.+.+.+.+.+.+.+.+.+.+.+.+.+.+.+.+.+.+.+.+.+.+.+.+.+.+.+.+.+.+.+.+.+.+.+.+.+.+.+.+.+.+.+.+.+.+.+.+.+.+.+.+.+.+.+.+.+.+.+.+.+.+."
};
