/* XPM */
static const char *num5[] = {
/* columns rows colors chars-per-pixel */
"64 64 110 2 ",
"   c #0D0000",
".  c #130000",
"X  c #1C0000",
"o  c #240000",
"O  c #2C0000",
"+  c #340000",
"@  c #3B0000",
"#  c #32000D",
"$  c #3C000D",
"%  c #350016",
"&  c #3E0016",
"*  c #3B001C",
"=  c #2D0026",
"-  c #3E0022",
";  c #430000",
":  c #4C0000",
">  c #42000D",
",  c #540000",
"<  c #5C0000",
"1  c #420016",
"2  c #43001C",
"3  c #4A001C",
"4  c #50001C",
"5  c #630000",
"6  c #6C0000",
"7  c #740000",
"8  c #7B0000",
"9  c #440022",
"0  c #4A0023",
"q  c #45002A",
"w  c #4C002C",
"e  c #520024",
"r  c #580022",
"t  c #52002B",
"y  c #59002D",
"u  c #520035",
"i  c #5C0033",
"p  c #54003A",
"a  c #5A003B",
"s  c #66003D",
"d  c #68003D",
"f  c #5B0040",
"g  c #640043",
"h  c #6E0047",
"j  c #66004F",
"k  c #6A004B",
"l  c #670056",
"z  c #6A0055",
"x  c #65005C",
"c  c #73005B",
"v  c #650064",
"b  c #6E006B",
"n  c #760060",
"m  c #780063",
"M  c #76006E",
"N  c #7B0069",
"B  c #740073",
"V  c #7A0076",
"C  c #7C007B",
"Z  c #840000",
"A  c #8B0000",
"S  c #930000",
"D  c #9B0000",
"F  c #A40000",
"G  c #AB0000",
"H  c #B40000",
"J  c #BB0000",
"K  c #C30000",
"L  c #C50000",
"P  c #CA0000",
"I  c #D10000",
"U  c #D40000",
"Y  c #E40000",
"T  c #E80000",
"R  c #EE0000",
"E  c #F10000",
"W  c #FB0000",
"Q  c #800068",
"!  c #860080",
"~  c #890083",
"^  c #8B0085",
"/  c #880087",
"(  c #8E0089",
")  c #8C008B",
"_  c #91008C",
"`  c #960095",
"'  c #9C009C",
"]  c #9F009F",
"[  c #A100A1",
"{  c #A400A4",
"}  c #A800A8",
"|  c #AC00AC",
" . c #B200B2",
".. c #BC00BC",
"X. c #BD00BD",
"o. c #C300C3",
"O. c #C700C7",
"+. c #CA00CA",
"@. c #CF00CF",
"#. c #D000D0",
"$. c #D700D7",
"%. c #D800D8",
"&. c #DE00DE",
"*. c #E500E5",
"=. c #EB00EB",
"-. c #ED00ED",
";. c #F000F0",
":. c #F400F4",
">. c #F800F8",
",. c magenta",
/* pixels */
",.:.;.;.;.;.;.;.;.;.;.;.;.;.;.;.;.;.;.;.;.;.;.;.;.;.;.;.;.;.;.;.;.;.;.;.;.;.;.;.;.;.;.;.;.;.;.;.;.;.;.;.;.;.;.;.;.;.;.;.;.;.,.,.",
",.&.O.o.O.O.O.O.O.O.O.O.O.O.O.O.O.O.O.O.O.O.O.O.O.O.O.O.O.O.O.O.O.O.O.O.O.O.O.O.O.O.O.O.O.O.O.O.O.O.O.O.O.O.O.O.O.O.O.O.O.%.>.,.",
",.$.} ( ^ ~ ~ ~ ~ ~ ~ ~ ~ ~ ~ ~ ~ ~ ~ ~ ~ ~ ~ ~ ~ ~ ~ ~ ~ ~ ~ ~ ~ ~ ~ ~ ~ ~ ~ ~ ~ ~ ~ ~ ~ ~ ~ ~ ~ ~ ~ ~ ~ ~ ~ ~ ~ ~ ^ _ { #.:.,.",
",.%.[ Q h d d s s s d d s s s d s s s d d d s s s s d s s s s s s d d d d d d d d s s s s d d d s s d d s s d s d d g N ] @.:.,.",
",.%.[ n t ; ; @ @ @ @ @ + + @ : ; @ + @ : ; ; ; @ @ @ ; @ @ @ + + @ + @ ; ; ; @ @ @ @ ; ; ; : ; @ ; ; @ ; : , : ; @ 9 n ] @.:.,.",
",.%.[ n t ; ; @ O O + + + + O + @ @ @ + + @ + @ + O + @ @ + O o O O + + + @ @ + + + + + @ + + + O + @ @ @ @ + @ @ @ 9 n ] @.:.,.",
",.%.[ n w @ @ + O @ @ @ ; ; @ @ @ @ @ @ @ @ + + @ + + + + @ O X O + @ + + + @ ; @ + + + @ @ @ ; + + @ + O + + + @ ; 0 n ] @.:.,.",
",.%.[ n w @ @ ; + @ : @ ; : ; @ ; @ : ; : ; ; @ < + O : : + . X ; + ; + @ ; : : , : : : , , ; : X @ + @ ; @ + + + @ 9 n ] @.:.,.",
",.%.[ n w @ ; @ Z R S H Z H J R D A Z 8 G U G , 6 Z o F P o X : O , , , 6 S G , P J 8 Y L J J 8 5 E Y Z J 5 . @ @ @ 9 n ] @.:.,.",
",.%.[ n w O @ ; D 7 8 7 7 < 7 8 8 6 6 5 F K 5 < , 5 < 5 Z < < : , , 7 6 7 S 6 7 F 8 D I 8 6 7 A J Z 6 7 < : . X o @ 9 n ] @.:.,.",
",.%.[ n t + + o 8 Z S < 8 Z 8 A 7 Z 7 8 6 7 6 5 ; 5 < ; < X ; : ; @ < 6 , 5 7 , , 7 7 Z 6 5 : , ; + , < < : . o o + 9 n ] @.:.,.",
",.%.[ n w + O O 6 U D D 7 8 6 D Z 8 : 8 5 < , O : < : , + X @ + < O : : ; : 6 : < 5 6 8 8 7 7 < 6 5 , 5 6 D . O O + 9 n ] @.:.,.",
",.%.[ n q o o X 7 G 6 6 ; ; : 5 5 , , @ + O o o ; : + @ @ o , + 5 + ; < @ , 6 @ : < 8 8 6 < + 5 O < : , < : . X o O - n ] @.:.,.",
",.%.[ n q o X X 7 < 7 7 5 7 < Z 8 8 8 , ; + + X , @ ; O < @ 5 @ , + ; 5 + , 5 : ; 5 8 8 6 < < , ; @ , + : A X O O + 9 n ] @.:.,.",
",.%.[ n w + O O A F 6 < 6 7 6 Z 8 8 7 , ; ; @ , , < : < : + : @ < ; , < @ < 7 < < 6 6 6 5 , 5 , ; ; O @ 5 Z   O O + 9 n ] @.:.,.",
",.%.[ n w @ @ @ D Z S , 6 , 5 8 6 5 5 : @ O < 5 < , : : , ; : + 5 @ , 5 ; 5 6 , , @ @ : @ , , : , ; @ 5 Z 5 . o O O - n ] @.:.,.",
",.%.[ n t @ O O 7 U F 6 5 < @ 5 5 < < ; + ; o ; : 5 : : : : : @ 5 ; < 6 , , 5 : < < , : , 6 5 , < 6 5 7 8 < . o O O 9 n ] @.:.,.",
",.%.[ n w + o o S R 7 6 5 , ; 6 Z 8 7 < : : , ; : 6 7 A 7 : 6 ; 8 < Z 8 < 7 Z 5 < 5 7 A 5 7 7 Z 7 8 7 Z 6 5 . + @ @ - n ] @.:.,.",
",.%.[ n q O O o Z L Z < 7 5 < 8 Z 8 8 7 6 < 6 6 6 A Z 5 Z S 8 A A < 5 < < Z 7 5 A 6 5 5 5 G < 5 5 5 5 < 7 : . + + @ - n ] @.:.,.",
",.%.[ n w + O O 8 J F Z 8 5 5 6 8 7 7 7 7 6 8 8 8 5 7 o X X X X X X X O @ O X X X X X X O o o X O O @ ; X O ; O + @ - n ] @.:.,.",
",.%.[ n w + + O A S A A 7 < < 6 8 7 Z Z 8 6 8 5 5 7 D   . . o X o . X o X . o O O X . X O o . . o o X X o + O + + + 9 n ] @.:.,.",
",.%.[ n w O O o 8 Z Z S Z 8 6 6 5 5 : 7 6 7 6 5 8 6 ; + O o o O O O o X o o O O O + o O + O O o O O O + + O + + @ O 9 n ] @.:.,.",
",.%.[ n q O o o 8 5 8 A A 7 6 6 5 7 Z 8 8 8 Z 8 Z < 8 X + @ + O + O O O O O O O + @ + + @ @ + O O O O @ @ + + @ ; + 9 n ] @.:.,.",
",.%.[ n w + O + S D F Z 7 7 5 7 7 < 8 8 8 6 8 Z 8 Z @   o O O o O O O + + @ + O O O O O + @ @ @ + @ @ @ + O + @ ; @ 9 n ] @.:.,.",
",.%.[ n w + O O A K 7 8 7 6 6 8 8 < 5 8 7 6 7 Z 7 6 :   o o o O O O o o O O + @ @ @ + + O O @ @ + + ; @ @ @ @ @ @ ; r n ] @.:.,.",
",.%.[ n w + O O A F 8 8 8 7 6 7 Z 8 6 6 < < 7 7 7 < , + : @ .     X O O @ 6 5 , : < , @ X O + @ @ + + @ @ @ @ @ ; : = v ] #.>.,.",
",.%.[ n w + o O S 6 8 Z Z 8 6 7 Z < < 5 6 6 7 5 Z 8 , F J O O O O : + @ 5 , Y 7 T J 8 , , F . @ X + + + + @ + @ ; : t v ] #.>.,.",
",.%.[ n w + O o 8 < 8 Z 5 5 , 5 8 < < 5 5 6 < : 5 7 8 A Z < < , 5 : , 5 : < 6 5 , 7 8 7 Z : + : 5 o O + + @ @ @ @ @ r x ` +.:.,.",
",.%.[ n w O O o Z Z Z Z 7 < , < 5 < < < < < , < : < 5 6 8 6 5 , 6 ; , 6 : 5 8 5 6 7 5 8 8 6 : 5 ; + O + + @ ; @ @ + 4 k ^ X.=.,.",
",.%.[ n q O O O Z G D 6 8 8 6 6 8 6 7 7 6 < < 5 6 , < 6 5 6 5 < 7 , < 5 , < 7 5 < 7 Z A 8 S 6 7 : : L . + @ @ @ @ + 2 s V | *.,.",
",.%.[ n w O O O A 5 7 5 A A 8 6 8 6 6 6 5 6 5 6 5 , ; , < 5 : O 5 : , , ; 5 5 < 5 6 8 < 5 7 Z 8 < F L O o O @ ; ; + & y M | *.,.",
",.%.[ n q O O X 8 S 8 7 8 Z 8 6 8 6 6 7 6 5 6 7 5 : 7 7 7 7 < : 5 : : 5 : < 5 5 5 7 Z 5 6 7 8 A 5 D A < o o O + @ + + 3 n [ %.>.",
",.%.[ n q O o X Z 6 8 6 6 A 8 6 Z 8 7 5 6 7 8 7 5 < 6 5 7 5 < : Z , 5 7 , 5 A 6 8 8 7 8 7 5 8 5 ; 7 A Z :   + + + + + 0 n ] +.:.",
",.%.[ n w O o X < < S Z 7 Z 8 6 8 A Z 5 8 7 Z 7 , 8 6 7 < : , ; 7 @ , 7 ; 6 A 6 7 7 7 A < : 8 6 O 6 A Z 6 : X O O + + 9 c ` +.;.",
",.%.[ n w O O o 8 E 7 8 7 5 A Z 8 8 Z < 6 7 Z : @ , < , : : < : 6 : < 8 ; 5 8 6 7 7 6 5 8 < , < + , 8 : D H . O O + @ * c ` +.;.",
",.%.[ n w + + O Z < 5 6 7 < 6 7 6 5 8 < , Z 6 6 7 : : 8 < @ 5 : Z 6 6 8 5 5 8 5 5 7 6 5 8 , 6 < o , Z 7 S 8 . o o O + * c ` +.;.",
",.%.[ n w @ + + @ + : : ; ; ; ; : < ; < ; ; @ ; ; < G ; , G F , @ Z G J 7 7 A 6 6 7 5 6 Z : 6 , + 7 7 8 8 8 + X O + + 2 c ` +.;.",
",.%.[ n w @ @ @ X ; < + @ X @ : < O o . o : O X o O X o @ o   .   X X ; A S 8 5 7 6 5 5 6 : 5 < : 7 7 A A A 5   o O + * c ` +.;.",
",.%.[ n w @ + + @ @ O o o o O o O + o O @ @ @ + @ ; ; ; ; ; @ O o X o 5 J 8 A 6 5 5 6 6 Z < 8 , + 6 7 8 A G ,   X X O * c ` +.;.",
",.%.[ n t ; + @ + + @ + @ @ + @ + o + + + @ ; ; @ + + + + + @ o O + O 7 < 6 Z 6 6 6 6 6 Z < Z , O 8 6 7 8 D , o O O O * c ` +.;.",
",.%.[ n w ; : ; @ O @ ; ; @ @ + O + + + @ + @ @ @ O + O O O + O + O O 6 F 6 A 6 5 6 6 6 7 , 7 5 5 8 7 6 7 7 < o X o + * c ` +.;.",
",.%.[ n w @ + @ @ + O O + + O @ @ + + ; ; @ O @ ; O o o O O O + @ + o S S 8 A 5 7 7 5 6 A 5 6 7 O A 8 Z 7 8 , . X o O * c ` +.;.",
",.%.[ n t @ + @ + @ + + + + + + O o + O X O O O + + O o o O O O , ; 6 W 6 A S 7 < 5 7 6 8 < 5 < + 7 Z , S S :   o O O * c ` +.;.",
",.%.[ n w + O o @ P S P A < J J G G J J J J P G J G D S H : + 5 S D J 8 8 Z Z 6 7 7 6 < 8 5 : 5 + @ 7 8 D A @ O O + + 2 c ` +.:.",
",.%.[ n w @ @ @ D S Z T Z 7 Y G Y S 5 6 F Z 8 A 5 G 5 < D : ; @ ; : 5 F 8 Z A 7 7 Z 8 6 A @ : < ; ; , 5 D 7 o o O O + 2 c ` +.:.",
",.%.[ n w + + O D S Z 7 S 6 8 A A 7 8 5 A 8 8 7 8 7 7 6 < < < : 7 < 7 D 5 7 A 5 7 6 8 6 A ; < , < 5 , < D < . o O O O * c ` +.;.",
",.%.[ n w @ + + A < 8 8 A A 7 Z S 7 A < 8 A A S 8 A A Z < 5 6 ; 7 @ 6 S 6 6 Z 6 6 7 8 7 Z , 7 6 < 7 8 Z Z @ O o O + @ 2 c ` +.;.",
",.%.[ n w @ + o 6 7 D 7 S Z 7 Z S 5 Z ; 7 Z Z 7 8 Z Z 6 5 : < : 8 ; 5 S 5 5 Z 7 7 Z 5 5 Z 5 5 5 : < Z 5 5 o . o + @ @ 2 c ` +.;.",
",.%.[ n t ; @ @ G 6 A 8 S 8 7 Z S 6 A 8 8 Z A A D Z < , , < 7 < 7 , 8 D : 6 A 7 8 7 Z 8 8 S D , ; : 8 5 + @ o o O + 1 0 c ] #.:.",
",.%.[ n w + + + 8 < D Z 8 6 7 Z D 6 Z 8 Z A A 5 5 , ; 6 5 , < , 6 ; 6 A , 8 D 6 7 8 S 5 8 Z D Z 7 8 5 ; :   + + + # & t m { &.>.",
",.%.[ n w + o X 7 A 6 7 S 5 6 7 Z 5 8 7 < 5 5 < @ ; 7 < 7 5 , ; 5 ; 6 D : A A , 5 Z A Z 5 6 8 8 Z 6 : X X O + + @ $ & i M | *.,.",
",.%.[ n w + + O 7 , 8 6 S A 5 8 S 6 A Z A 7 7 6 7 8 5 Z 8 7 7 8 A , 7 8 , 7 S 6 8 Z A Z 7 Z 8 8 5 @ O O + O + + $ 2 2 g V  .*.,.",
",.%.[ n w O o X 7 : A A 8 Z 6 Z S 8 S Z A A Z Z 8 6 6 6 6 6 6 5 Z 6 8 A 6 Z S 8 Z 8 S 6 Z Z 6 , o @ . + + @ @ @ 1 2 t z ( X.-.,.",
",.%.[ n q O o o 7 ; Z A 6 A S F A 7 7 6 7 , Z 7 6 G 6 H D 8 7 < Z 7 D 6 J 8 8 7 7 8 7 6 < @ @ ; . o o O O O + @ 1 3 s b ] @.:.,.",
",.%.[ n q O o o X o X X o X X X X o X o o Z O o 6 : o X o X X O X ; o + O o o o o o o X o X o . o O O O + $ > & 3 i l ^  .*.,.,.",
",.%.[ n q O O O o o o X O ; .   X   X o ;   . O     o     X + o X       X . X O o O O + X X o o o O O O O # % * y k B [ @.;.,.,.",
",.%.[ n w @ + + O O O O O o X X o o o o o X o o o X X X X X X X X X X X X o o O + + + + + O O + + @ $ & $ & 0 y k b ` X.=.,.,.,.",
",.%.[ n w @ @ + + O O o O O O o o o O O O O O O O O O O O o o o O O O + + + + + + + + + + + @ @ @ $ 1 2 3 e i j b (  .&.>.,.,.,.",
",.%.[ n w @ + + + + O + + + + + + + + O O O O @ @ @ @ @ @ @ @ @ + @ @ + + + + + + + + + + + @ ; @ & 0 e y g x C ' X.%.:.,.,.,.,.",
",.%.[ m f w w w w w w w w t t t w w w w w w w w w w t t t w w w w w w w w w w w w w w w u p p a a g g l b C ` | O.*.:.,.,.,.,.,.",
",.$.} ( ~ ! ! ! ! ! ! ! ! ! ! ! ! ! ! ! ! ! ! ! ! ! ! ! ! ! ! ! ! ! ! ! ! ! ! ! ! ! ! ! ! ~ ~ ! ! ^ ^ ` [  .o.%.-.,.,.,.,.,.,.,.",
",.&.+.O.O.O.O.O.O.O.O.O.O.O.O.O.O.O.O.O.O.O.O.O.O.O.O.O.O.O.O.O.O.O.O.O.O.O.O.O.O.O.O.O.O.O.O.O.O.O.O.O.$.*.-.,.,.,.,.,.,.,.,.,.",
",.:.;.;.;.;.;.;.;.;.;.;.;.;.;.;.;.;.;.;.;.;.;.;.;.;.;.;.;.;.;.;.;.;.;.;.;.;.;.;.;.;.;.;.;.;.;.;.;.;.;.;.>.,.,.,.,.,.,.,.,.,.,.,.",
",.,.,.,.,.,.,.,.,.,.,.,.,.,.,.,.,.,.,.,.,.,.,.,.,.,.,.,.,.,.,.,.,.,.,.,.,.,.,.,.,.,.,.,.,.,.,.,.,.,.,.,.,.,.,.,.,.,.,.,.,.,.,.,."
};
