/* XPM */
static const char *num6[] = {
/* columns rows colors chars-per-pixel */
"64 64 116 2 ",
"   c #060000",
".  c #0C0000",
"X  c #140000",
"o  c #1C0000",
"O  c #240000",
"+  c #2C0000",
"@  c #2F000D",
"#  c #330000",
"$  c #3B0000",
"%  c #34000D",
"&  c #3D000D",
"*  c #350016",
"=  c #3C0016",
"-  c #3D001C",
";  c #430000",
":  c #4C0000",
">  c #42000D",
",  c #530000",
"<  c #5B0000",
"1  c #430016",
"2  c #4A0016",
"3  c #43001C",
"4  c #4A001C",
"5  c #51001C",
"6  c #5A001C",
"7  c #630000",
"8  c #6B0000",
"9  c #740000",
"0  c #7B0000",
"q  c #450022",
"w  c #4C0023",
"e  c #4D002E",
"r  c #540024",
"t  c #5A0026",
"y  c #53002D",
"u  c #5B002D",
"i  c #530033",
"p  c #5B0033",
"a  c #550039",
"s  c #5B003A",
"d  c #64002D",
"f  c #640034",
"g  c #65003D",
"h  c #69003C",
"j  c #710038",
"k  c #630044",
"l  c #6A0044",
"z  c #67004A",
"x  c #6A004B",
"c  c #720040",
"v  c #72004B",
"b  c #7D0049",
"n  c #670051",
"m  c #6C0055",
"M  c #670058",
"N  c #6A005C",
"B  c #730053",
"V  c #790051",
"C  c #73005C",
"Z  c #660063",
"A  c #6C0063",
"S  c #6E006B",
"D  c #73006D",
"F  c #79006C",
"G  c #740072",
"H  c #7A0077",
"J  c #7C007B",
"K  c #830000",
"L  c #8B0000",
"P  c #930000",
"I  c #9C0000",
"U  c #A30000",
"Y  c #AB0000",
"T  c #B50000",
"R  c #BD0000",
"E  c #C20000",
"W  c #CC0000",
"Q  c #D50000",
"!  c #DD0000",
"~  c #E40000",
"^  c #E90000",
"/  c #F30000",
"(  c #FE0000",
")  c #82006E",
"_  c #87007C",
"`  c #88007A",
"'  c #850081",
"]  c #890084",
"[  c #8B008B",
"{  c #8E008E",
"}  c #940094",
"|  c #970097",
" . c #9A009A",
".. c #9E009E",
"X. c #A500A5",
"o. c #A900A9",
"O. c #AF00AF",
"+. c #B600B6",
"@. c #B900B9",
"#. c #BE00BE",
"$. c #BF00BF",
"%. c #C200C2",
"&. c #C400C4",
"*. c #CB00CB",
"=. c #D300D3",
"-. c #D500D5",
";. c #D800D8",
":. c #DC00DC",
">. c #E200E2",
",. c #E400E4",
"<. c #E800E8",
"1. c #EE00EE",
"2. c #F200F2",
"3. c #F400F4",
"4. c #FB00FB",
"5. c magenta",
/* pixels */
"5.5.5.5.5.5.5.5.5.5.5.5.5.5.5.5.5.5.5.5.3.2.2.2.2.2.2.2.2.2.2.2.2.2.2.2.2.2.2.2.2.2.2.2.2.2.2.2.2.2.2.2.2.2.2.2.2.2.4.5.5.5.5.5.",
"5.5.5.5.5.5.5.5.5.5.5.5.5.5.5.5.3.,.>.;.*.&.&.&.&.&.&.&.&.&.&.&.&.&.&.&.&.&.&.&.&.&.&.&.&.&.&.&.&.&.&.&.&.&.&.&.&.=.1.5.5.5.5.5.",
"5.5.5.5.5.5.5.5.5.5.5.5.5.4.<.;.*.@.O.X. .{ [ ] ] ] ] ] ] ] ] ] ] ] ] ] ] ] ] ] ] ] ] ] ] ] ] ] ] ] ] ] ] ] ] ] | &.1.5.5.5.5.5.",
"5.5.5.5.5.5.5.5.5.5.5.4.<.-.#.o. .] H F C V v l l l l g g g g g g g h h h g g g g h g g g g g g g g g g g l g z ] %.1.5.5.5.5.5.",
"5.5.5.5.5.5.5.5.5.5.2.-.#.X.[ G C b j d 6 r 4 > $ $ ; ; ; ; $ ; ; $ $ $ ; # # # $ ; $ $ $ $ $ $ # # $ ; $ $ $ y _ %.1.5.5.5.5.5.",
"5.5.5.5.5.5.5.5.4.,.*.o.{ G B c d r 4 4 & % % # # # # + $ $ # # # + # # $ + O + + # # # $ $ # # $ # # # # $ ; y _ %.1.5.5.5.5.5.",
"5.5.5.5.5.5.5.5.,.#...' A b d r 4 1 & & & $ + $ $ $ $ $ $ # $ # # + + # ; ; + # + # # # # # $ ; ; ; $ $ # $ $ y _ %.1.5.5.5.5.5.",
"5.5.5.5.5.5.4.,.#.| G V h r 4 > & # # # # $ # # # $ + O # : ; $ , ; ; : < ; + # # ; ; $ $ ; ; $ $ $ ; + $ # + e _ %.1.5.5.5.5.5.",
"5.5.5.5.5.5.,.#.| D v f w 3 - & & # # # $ # + + # L 7 o ; ; ; + < 0 # T ^ / ~ ! U K I P K I U I ^ U + o + + # y _ %.1.5.5.5.5.5.",
"5.5.5.5.5.1.&. .G v t 4 > ; ; ; ; $ $ ; $ ; 9 R + + $ $ ; $ < 7 7 7 : P 0 9 8 0 9 7 7 < < , < < 7 9 # X + # # y _ %.1.5.5.5.5.5.",
"5.5.5.5.4.-.o.J v d 4 4 > $ ; $ ; : + : U ^ E 7 : 8 , , : ; O : : 8 ; 8 9 K : 0 < 7 , 7 : : : , < T + # + # # e _ %.1.5.5.5.5.5.",
"5.5.5.5.,.@.[ N f 4 1 > $ # $ $ ; + : ! / U K 9 : $ $ # + $ X $ # < + < 8 L : 8 $ : : $ : < 7 $ 7 0 # X + # # e _ %.1.5.5.5.5.5.",
"5.5.5.3.*...D c 5 > 3 1 # # # $ # T / P 0 P 8 7 $ + + + + + # X O : + < < 9 ; , $ $ : # ; K o , < U + . O + # e _ %.1.5.5.5.5.5.",
"5.5.5.<.@.] B u = & % % + + + O ! P 7 0 K 0 < , + o o + O O ; # . $ o $ < < : $ # , ; + $ . ; $ < I + X o o O e _ %.1.5.5.5.5.5.",
"5.5.5.-.X.G h w = # + + + + O T < 7 0 0 < 8 : ; O + # + O $ ; : $ < # , 7 0 < 8 $ ; , $ O O O # 7 K # + O + # e _ %.1.5.5.5.5.5.",
"5.5.2.&.{ B t 1 $ $ $ # # O Q , 8 8 < < ; : # : # + ; $ # # $ < $ , O , , 0 : K # + , ; ; $ + : 7 0 # o + # # e _ %.1.5.5.5.5.5.",
"5.5.,.+.J l 3 3 ; ; $ $ O I 9 T 9 , ; $ $ , ; : + + $ # $ # 7 ; ; < # : , K 8 L , : # < , : , ; < 9 + # # $ ; y _ %.1.5.5.5.5.5.",
"5.5.;.o.D u 2 2 $ # $ $ L / 8 L 9 ; $ ; : < : ; $ ; $ : , , 7 7 : 8 $ , 7 0 7 0 < 9 , 8 , < : , 8 K # o + # # y _ %.1.5.5.5.5.5.",
"5.3.*. .C r 3 & $ $ # $ ~ I U < K ; $ ; : 7 : , ; ; : 7 8 9 7 < < < , , < 8 7 8 < < , < 7 < < < 9 8 + + + # $ y _ %.1.5.5.5.5.5.",
"5.3.&.[ x w 1 $ $ $ # L I L I 8 7 ; # , $ < ; : ; , < 9 7 : O O O + , $ O O O o o O O o o o o O o o o $ # # $ y _ %.1.5.5.5.5.5.",
"5.3.&.[ l = % + + + + ! P I L : 9 # # $ # , $ : ; , 7 9 ; O # O + + O o # + O O O o o o o O O o o O $ + # # # i _ &.2.5.5.5.5.5.",
"5.2.%.] k = # + + O 0 T E K L ; 9 ; ; $ # : # ; ; , 8 < $ O O # # + # + # # # # # + + + + + + + + # # # # $ $ y ` #.1.5.5.5.5.5.",
"5.1.#.] s + + O O O U W K 9 8 $ , ; ; $ $ : # ; ; < 8 # # o + + # # $ $ $ $ $ $ # # # # # + $ $ $ $ $ $ ; $ & y ) o.=.3.5.5.5.5.",
"5.,.@._ p $ # O O $ ! 0 K 8 < # 7 # # # $ < : $ : , P X X O O O O + # $ $ $ # $ $ # + # # # # # # $ $ $ $ # & y m ] o.=.2.5.5.5.",
"5.>.@.` i $ # + + 8 ~ L 8 8 < O : $ : : ; 7 $ ; ; 7 U . # # # + + + O $ $ ; ; ; ; ; $ $ $ $ $ # # # # $ ; ; 3 w f N ' O.;.4.5.5.",
"5.>.+.` e # + O O Y < 9 7 7 , + ; + ; : ; 8 ; ; , 0 7 O 8 7 < < , < < 7 9 8 8 8 8 8 < < + + # # # $ # # $ ; > 4 y l A | %.<.5.5.",
"5.>.+.` e + + O + E , , 8 < < $ 7 $ ; : : : : ; ; < 9 / L 0 7 ( K ! 8 W K / 9 Q L K < ; ; ! + + + # $ # # # & 4 w u k G o.-.4.5.",
"5.>.+.` e + O + # : < : ; , ; o < $ : , ; , $ < 7 < 9 , < 8 7 7 9 8 7 < 7 , : < < < < 8 7 , P < : # $ # + # = q 1 4 u N | %.1.5.",
"5.>.+.` e # + O # 9 9 7 < , ; O < $ : < , < , 7 , $ : : 7 8 , < < 8 7 , < 7 : , # < : < 0 0 < W , 7 X # $ # @ % & 1 r l J +.,.5.",
"5.>.+.` e # # # 7 ^ T 7 7 < : ; ; # , : ; < ; # + : ; : , , , , , 7 , ; , 9 ; , $ 7 ; , , < 0 0 R U $ X + # + + # > 2 p D X.:.4.",
"5.>.+.` y # + O $ L 8 8 7 < < 7 8 : 8 , , 9 ; + $ : # < , , : : : 7 $ + ; 7 $ , # : $ 9 7 , 9 7 K 0 0 ; O # + + # & 1 y C  .*.3.",
"5.>.+.` e # + o $ 9 8 7 7 ; : : 8 : : 7 , < 7 , : # $ 7 ; ; , < ; : ; ; $ , $ ; # , ; , : , , 7 9 K Y < O + + # # $ $ 1 x { &.2.",
"5.>.+.` e # # O # T 7 8 < # # # ; + $ , # 0 ; , : $ : 7 ; , ; , ; < ; # ; 7 ; , # < $ 7 < 7 8 7 8 9 0 K < : O # $ $ # = z [ &.2.",
"5.>.+.` e + O O ; 7 8 L , < 7 8 0 : < $ : : 7 7 7 , < 7 ; 7 , : : 7 : # ; 7 ; < $ 7 $ 7 7 , 9 9 9 9 0 K 0 K o O # $ $ = k ] &.2.",
"5.>.+.` e # + O : 8 L L < : : : 8 # : : X , O $ 8 , 7 < ; ; ; , : 7 : # , 8 ; < + 8 ; < ; , 7 7 9 8 9 9 L W X X O O # 1 k ] &.3.",
"5.>.+.` y $ # + : U R P < ; # # 7 $ < < +   . # : # 0 , 9 8 , , , , 8 : 9 0 7 9 $ 9 , : ; $ : : 8 7 8 K K K # o O O + = k ] &.3.",
"5.>.+.` y $ # + ; O Q 9 8 < , # , , < ; + : o O 9 ; U ; $ $ ; $ ; , $ , $ ; , 8 9 L < 8 < $ , : : 8 8 9 8 L $ X + # # 1 k ] &.2.",
"5.>.+.` y $ + + o : 7 L 9 K ; ; , # , < 7 0 < # , < 7 X X X . . X X X O : X . o < K 8 7 , $ ; 7 < < 7 9 7 I , X o + # = k ] &.2.",
"5.>.@.` i # + O O 0 8 I 7 7 O o < $ : $ ; : ; , 0 7 K . O o o o O O O + + O # # 0 U P < , ; : < < 7 < < 7 K 7 o O + # * k ] &.2.",
"5.,.@._ p ; ; $ $ o 8 0 0 8 : ; 7 # # # : < # , 7 7 7 o O O O O + # + + + + + # P Q 9 8 , $ , : , 8 8 7 7 7 8 O X O + = k ] &.2.",
"5.<.#.] s $ $ $ $ ; 9 9 L 9 9 : : # ; ; , < , 7 9 < L < X O + + # # O O + + + # 0 Y 8 9 7 , < : 7 8 8 8 , 0 8 O X O + * k ] &.3.",
"5.2.%.] g 1 $ $ # + + Q 9 P K < 0 $ : $ : < ; 8 8 < L I # o O # # $ + + + # # + I I 9 9 0 8 , : 8 8 < 7 , 9 8 o O + # = k ] &.2.",
"5.3.&.] l & $ $ $ # O , / I K 7 0 7 7 $ O : $ < 7 , 9 0 Y . # $ + # + # + + # 9 / 8 0 , 9 8 : 7 K 9 8 8 7 0 < o O + # = k ] &.2.",
"5.3.&.[ x 4 % # # # + + < 0 K 8 P 7 < ; $ 7 $ < 8 , 8 I L 9 U P E E T R R W ~ W K L 7 7 , 8 9 7 8 0 K K 8 0 < o O + + = k ] &.2.",
"5.3.*.| C r 3 % # # + + ; < I 9 L 7 , ; $ 7 # , < , 8 7 0 U Y Q K Y L E L P 7 9 K L 7 8 7 7 K 0 , 9 9 K 8 K $ o + # # = k ] &.2.",
"5.4.;.X.D p 1 = $ # # + : 9 I L 0 0 7 : ; $ ; < < : 7 < 0 K 8 , 7 K 8 ; 7 8 0 7 8 K 9 : < 7 8 K < , 9 0 9 8 o $ # # $ = k ] &.2.",
"5.5.>.+.J l 4 - # # # + X + $ 8 U 8 9 : $ , $ 7 7 : < < 7 8 , : 7 0 0 $ < 7 < < , < 9 8 : < 7 K L 7 9 L L 0 o o + $ $ 1 k ] &.2.",
"5.5.2.%.{ B r = # + + O O + X I K K K < : 9 ; ; 8 , ; , ; # # # # < 7 + < ; ; , $ ; < 9 8 < 9 K L 9 8 8 L + O # # $ # 1 k [ &.3.",
"5.5.5.=.X.S f w = $ # + + + o O 7 I I 9 7 K , 0 P 7 , < < , < , 7 0 0 ; 7 , < < 9 < < 7 L 0 7 K 9 L 9 L $ O o + # # $ 4 z [ &.2.",
"5.5.5.,.+.' x y = & # # + + + O X $ 9 K 0 P 7 K K 7 < 7 8 < < 8 < 9 0 $ 7 < < 8 7 7 < 9 9 L 0 9 9 K L : X O # + # $ > w m { &.2.",
"5.5.5.2.&. .S l 4 1 $ # # # # O o X # : 0 I 0 K K 8 : 7 7 0 8 9 < 9 9 $ , : 9 < 8 8 0 0 7 K U 0 7 0 K X + O + # # $ = y A  .*.3.",
"5.5.5.5.:.+.] M p 4 & & # # # # O O + + , 9 0 0 K 0 < 0 0 K K K 8 K K 7 8 7 0 7 0 K K K 9 9 P K I 9 X $ o O + # & = 1 s D X.:.4.",
"5.5.5.5.3.=.X.H z u 3 = % # # + + O o O X $ ; < 9 P 9 K 9 K L 9 L L K < 0 8 K 0 9 9 0 K 9 L 0 7 # X O O + + + # = 3 r z _ +.,.5.",
"5.5.5.5.5.<.#.| D k r 1 > $ $ $ $ # + O O + X X O , : < 9 Y 0 9 0 9 L 9 K 0 K L 0 L 9 9 7 : # o o + + # # # $ # = 4 u A | &.2.5.",
"5.5.5.5.5.5.,.#.| S z p 4 = 3 % % # + + O O O + + o o o # o O O O O o O o o o O O O O O o . o O # # # # $ & > 1 4 u z J O.;.4.5.",
"5.5.5.5.5.5.4.>.@.| G z p w 3 & > ; $ # + + # # + # + O o X O # + O o O # O X X X X X o o o O O + + + + # = % 1 r l A | &.1.5.5.",
"5.5.5.5.5.5.5.4.>.#. .J N l y 4 1 1 > & & $ $ $ # # # # # # $ $ $ # $ # # # # # + + + O O O O O + + + % % - 3 y g A { +.>.4.5.5.",
"5.5.5.5.5.5.5.5.4.>.%.X.[ D n g r w 4 4 > > & & $ $ $ # # + + + + + + + + + + + + + # # # # + # # % & & 4 r u k Z { O.-.3.5.5.5.",
"5.5.5.5.5.5.5.5.5.5.1.=.@...] D m k s r w q = % # # # + # $ ; ; $ $ O O + # # # + + # $ $ ; : ; # = 4 r u k M G { +.-.3.5.5.5.5.",
"5.5.5.5.5.5.5.5.5.5.5.3.>.*.@.X.| ' G A n k k s s a a a i e e e y y y e e e e e e y y y i s s s s k k m A G [ X.#.:.3.5.5.5.5.5.",
"5.5.5.5.5.5.5.5.5.5.5.5.5.3.,.-.&.+.O...{ [ ] ] ] ' ] ] ' ' ' ' ' ' ' ' ' ' ' ' ' ' ' ' ' ] ] ] ' ] ] { ..O.#.=.,.4.5.5.5.5.5.5.",
"5.5.5.5.5.5.5.5.5.5.5.5.5.5.5.5.2.,.:.=.&.&.&.&.&.&.&.&.&.&.&.&.&.&.&.&.&.&.&.&.&.&.&.&.&.&.&.&.&.&.&.&.=.>.<.4.5.5.5.5.5.5.5.5.",
"5.5.5.5.5.5.5.5.5.5.5.5.5.5.5.5.5.5.5.3.2.2.2.2.2.2.2.2.2.2.2.2.2.2.2.2.2.2.2.2.2.2.2.2.2.2.2.2.2.2.2.2.3.5.5.5.5.5.5.5.5.5.5.5.",
"5.5.5.5.5.5.5.5.5.5.5.5.5.5.5.5.5.5.5.5.5.5.5.5.5.5.5.5.5.5.5.5.5.5.5.5.5.5.5.5.5.5.5.5.5.5.5.5.5.5.5.5.5.5.5.5.5.5.5.5.5.5.5.5."
};
