/* XPM */
static const char *num7[] = {
/* columns rows colors chars-per-pixel */
"64 64 113 2 ",
"   c #060000",
".  c #0D0000",
"X  c #140000",
"o  c #1C0000",
"O  c #240000",
"+  c #2C0000",
"@  c #330000",
"#  c #3B0000",
"$  c #3C000D",
"%  c #350016",
"&  c #3C0016",
"*  c #3F001C",
"=  c #430000",
"-  c #4B0000",
";  c #43000D",
":  c #540000",
">  c #5C0000",
",  c #53000D",
"<  c #430016",
"1  c #490016",
"2  c #45001C",
"3  c #48001C",
"4  c #530016",
"5  c #640000",
"6  c #6B0000",
"7  c #730000",
"8  c #7B0000",
"9  c #440022",
"0  c #4C0022",
"q  c #4D002E",
"w  c #540024",
"e  c #590026",
"r  c #52002C",
"t  c #5A002D",
"y  c #4E0032",
"u  c #540034",
"i  c #5C0032",
"p  c #550038",
"a  c #5B003A",
"s  c #60002E",
"d  c #600032",
"f  c #65003D",
"g  c #69003D",
"h  c #540040",
"j  c #5C0041",
"k  c #640043",
"l  c #6C0042",
"z  c #64004E",
"x  c #6B0049",
"c  c #71004F",
"v  c #670053",
"b  c #6D0055",
"n  c #6C005B",
"m  c #700056",
"M  c #72005A",
"N  c #6B0066",
"B  c #6F006D",
"V  c #710066",
"C  c #7E0063",
"Z  c #74006C",
"A  c #7A0068",
"S  c #750074",
"D  c #790077",
"F  c #7D007C",
"G  c #830000",
"H  c #8B0000",
"J  c #930000",
"K  c #9B0000",
"L  c #A30000",
"P  c #AB0000",
"I  c #B50000",
"U  c #BB0000",
"Y  c #C40000",
"T  c #CD0000",
"R  c #D20000",
"E  c #DD0000",
"W  c #EA0000",
"Q  c #860076",
"!  c #860080",
"~  c #880085",
"^  c #8B0084",
"/  c #8B008B",
"(  c #8E0089",
")  c #8F008F",
"_  c #91008F",
"`  c #910091",
"'  c #940093",
"]  c #9A0097",
"[  c #9D009C",
"{  c #A100A0",
"}  c #A200A2",
"|  c #A700A7",
" . c #A800A8",
".. c #AF00AF",
"X. c #B000B0",
"o. c #B600B6",
"O. c #B900B9",
"+. c #BE00BE",
"@. c #C300C3",
"#. c #C500C5",
"$. c #C800C8",
"%. c #CA00CA",
"&. c #D300D3",
"*. c #D600D6",
"=. c #DA00DA",
"-. c #DF00DF",
";. c #E200E2",
":. c #E400E4",
">. c #EF00EF",
",. c #F100F1",
"<. c #F500F5",
"1. c #F800F8",
"2. c magenta",
/* pixels */
"2.<.,.,.,.,.,.,.,.,.,.,.,.,.,.,.,.,.,.,.,.,.,.,.,.,.,.,.,.,.,.,.,.,.,.,.,.,.,.,.,.,.,.,.,.,.,.,.,.,.,.,.1.2.2.2.2.2.2.2.2.2.2.2.",
"2.-.$.@.#.#.#.#.#.#.#.#.#.#.#.#.#.#.#.#.#.#.#.#.#.#.#.#.#.#.#.#.#.#.#.#.#.#.#.#.#.#.#.#.#.#.#.#.#.#.#.#.*.;.>.1.2.2.2.2.2.2.2.2.",
"2.=. .( ~ ~ ~ ~ ~ ~ ~ ~ ~ ~ ~ ~ ~ ~ ~ ~ ~ ~ ~ ~ ~ ~ ~ ~ ~ ~ ~ ~ ~ ~ ~ ~ ~ ~ ~ ~ ~ ~ ~ ~ ~ ~ ~ ~ ~ ~ / ` | X.@.*.:.1.2.2.2.2.2.2.",
"2.=.} C l g f f g g f f f g g g f f f f g f f f f f f g g g g g g f g f g f f g g g f f g g g l l l c M Z F ) | +.-.<.2.2.2.2.2.",
"2.=.} M 1 = # # = - # # @ # - - = = # # # = # # # @ @ # @ # - = = # # # # = = = - - = = = = = - , 4 w e s l n S ` o.&.<.2.2.2.2.",
"2.=.} M 3 = # # @ # # # # @ @ # @ # @ + @ # # # @ O + + + @ @ # # @ @ @ @ @ # @ + @ + @ # # = = @ $ ; 1 3 w i x N / ..*.<.2.2.2.",
"2.=.} M 3 # = = = # # # # @ # = # # = # @ @ @ # @ o + @ # @ @ # # = # # @ + + + @ # # @ @ @ + @ @ @ # 1 ; 3 3 t k N / o.-.1.2.2.",
"2.=.} b 1 @ @ # + = = - = - - = = # > # # = - = + O - - = @ # = = - > - - = = o o - - @ O + @ @ @ @ @ # # # ; 1 w k N ` +.>.2.2.",
"2.=.} m & # # # H Y : Y 8 P W W W E L H : 5 > # = - > : = > E W W T E U 5 5 O o = H U 5 6 J O @ O # # # # # $ < 3 w k S | &.1.2.",
"2.=.} m < @ @ @ J 7 > 5 H P U L L L G 6 5 > > : : > 7 5 8 8 L 8 G 8 G 7 5 > 5 - - 6 5 5 L - 8 # # o + @ # @ # # # 1 t n ) +.>.2.",
"2.=.} m & @ @ + J 6 5 7 J 7 6 G L 8 7 - : - > - 5 5 > 5 8 : 5 7 7 7 7 6 - + # X o # - - + 5 8 E - = o + # @ # # # 2 0 k D ..:.2.",
"2.=.} b & + + @ 8 5 6 6 8 : G J K J 5 # > # 5 # > 5 : - 6 - > 5 > 6 6 6 5 = : @ + = 5 - - = : 7 H 6 - + + @ @ # @ $ 3 i V } *.2.",
"2.=.} m % O O o : G - # > 6 H G 8 J 8 8 > + - = > : # > 6 = # - 6 > > 5 - - - O O = : # = : # : 8 G L + X o + + @ @ $ 0 b ` $.2.",
"2.=.} m % O O O G = 6 5 G G G G J G H H 6 + > = 5 > = > 6 @ @ # : > : > - = > o O + - @ @ @ @ 7 5 H J > o O + + + @ $ < x / #.2.",
"2.=.} m & + O + H 8 - 5 G G G 8 J L 5 8 8 # 7 : 6 > - 6 5 @ : - 5 6 7 6 6 - : O X # : - @ + O 5 7 5 8 7 > @ + @ @ @ # # k ( #.2.",
"2.=.} b 1 @ @ # J : > : 8 8 G G J J - 7 7 @ 5 5 6 6 : 7 8 - > 5 5 6 5 7 5 : = # X o 5 > = o O 6 : : 6 8 R + o + @ @ # # a ( #.2.",
"2.=.} b 1 = # # 7 I 6 > 8 G G G J L 8 8 7 : 5 > 8 8 > 7 8 - - > 7 8 8 7 6 > = X X o 5 5 @ # = - # = : 5 J - . o + + @ @ j ^ #.2.",
"2.=.} b 1 @ # # G J 5 7 G G 8 G H J 8 8 G 6 8 > 8 G 6 8 G 5 - 8 8 G H H 8 7 8 o + O # = - - # : - # = : 5 J # . O + # = a ^ #.2.",
"2.=.} m & @ + + + = = > 6 6 6 6 7 7 7 6 6 5 > 5 5 5 5 8 5 > G 6 5 8 H H 7 5 6 X O O # > > = = = = # @ - 5 G = X @ # # # a ~ #.2.",
"2.=.} m & + O O . o # o + o o O o O o + o o o o o o O O o O @ o o o = L L G 8 @ @ = 8 G 8 5 5 > 5 : - > 7 H > o O + @ = a ~ #.2.",
"2.=.} m & @ O O O O X @ + # o O o o O o O o X X o o O o o O X o + : X 6 8 8 > O X O 5 = : = = # # + + @ : 7 7 o X O + @ a ~ #.2.",
"2.=.} m & @ @ + O o O + O + @ + + + + + + @ + O O + @ + O O O + + O @ = # G G = 6 - 7 G : 7 6 : 5 > : 6 J J 5 o @ O + + p ~ #.2.",
"2.=.} m 2 # @ @ @ @ + # = # @ @ + + @ + @ # # = # + @ @ + + @ @ + + + @ 7 G H : > - 8 7 7 6 6 = > 5 : > 5 7 L o X + + @ p ^ #.2.",
"2.=.} b $ # @ + @ + O + # = @ @ @ @ = # % & & 9 & & & $ 2 < = = = @ + + X @ 6 - = - 7 5 6 > > - : : = - : 6 7 o X O + @ p ^ #.2.",
"2.=.} n p h h h h h h h h h h h j j j j j z v n v z k a w 3 * 2 # # # @ @ : - @ + . - @ > = - @ # @ # # = : 6 o X o + + p ~ #.2.",
"2.=. ._ ) ) ) ) ) ) ) ) ) ) ) ) ) ) ) ) ) ` ' ' ' ` ! Z v d r 9 & @ + O @ o : @ + . # 5 5 = = # = = = = 5 : 5 o X o O + p ~ #.2.",
"2.;.$.$.$.$.$.$.$.$.$.$.$.$.$.$.$.$.$.$.$.$.$.$.$.$.O.[ F n d 0 $ # @ + + G 5 - =   - - 7 7 7 6 6 6 5 G G 8 6 o o o + + p ~ #.2.",
"2.1.<.<.<.<.<.<.<.<.<.<.<.<.<.<.<.<.1.1.<.<.<.<.1.1.:.@.} F b t & @ + + - L 5 : = . # > # = = > - - - : - > 8 + + + + @ p ~ #.2.",
"2.2.2.2.2.2.2.2.2.2.2.2.2.2.2.2.2.2.2.2.2.2.2.2.2.2.2.:.@.' B f 1 @ + O : : 6 - +   @ O O O O @ # @ O o + # H + o O O O p ^ #.2.",
"2.2.2.2.2.2.2.2.2.2.2.2.2.2.2.2.2.2.2.2.2.2.2.2.2.2.2.2.:.o./ b 3 @ + + # G 5 - # # > 5 6 5 - > 5 > # # > 5 8 o o + + @ p ^ #.2.",
"2.2.2.2.2.2.2.2.2.2.2.2.2.2.2.2.2.2.2.2.2.2.2.2.2.2.2.2.<.$.} A r @ + + : U > @ + X 7 8 8 6 6 7 H 6 5 7 8 8 > O X o O + p ~ #.2.",
"2.2.2.2.2.2.2.2.2.2.2.2.2.2.2.2.2.2.2.2.2.2.2.2.2.2.2.2.1.;.O.Q r # # # = Y 8 6 = + 6 7 : : : - - 5 : > > 6 5 o o O + # a ~ #.2.",
"2.2.2.2.2.2.2.2.2.2.2.2.2.2.2.2.2.2.2.2.2.2.2.2.2.2.2.2.2.>.#.~ u + + + + 6 7 : > @ 8 8 G 6 # # - > : : : > 6 o o O + @ p ~ #.2.",
"2.2.2.2.2.2.2.2.2.2.2.2.2.2.2.2.2.2.2.2.2.2.2.2.2.2.2.2.2.,.#.~ u @ + O # : 6 : : @ 5 L 6 5 6 8 7 8 7 8 H G 7 o o O O + p ~ #.2.",
"2.2.2.2.2.2.2.2.2.2.2.2.2.2.2.2.2.2.2.2.2.2.2.2.2.2.2.2.2.,.#.~ u + O o + o H : - # @ 5 6 8 G 8 7 7 8 8 8 7 H o o o O + p ^ #.2.",
"2.2.2.2.2.2.2.2.2.2.2.2.2.2.2.2.2.2.2.2.2.2.2.2.2.2.2.2.2.>.#.~ u + O O @ K J 7 6 : - > 6 > 7 5 : = : 5 > > 7 o O O + + p ^ #.2.",
"2.2.2.2.2.2.2.2.2.2.2.2.2.2.2.2.2.2.2.2.2.2.2.2.2.2.2.2.2.>.#.~ a # @ @ # R U 6 7 > G - 8 8 H 7 G G 7 7 8 7 6 o O + + @ p ~ #.2.",
"2.2.2.2.2.2.2.2.2.2.2.2.2.2.2.2.2.2.2.2.2.2.2.2.2.2.2.2.2.>.#.~ a # @ @ - G H G 8 5 G > : : 5 > 6 5 > > > 5 H o X O + @ p ~ #.2.",
"2.2.2.2.2.2.2.2.2.2.2.2.2.2.2.2.2.2.2.2.2.2.2.2.2.2.2.2.2.>.#.~ j # @ @ : Y 8 8 > > 8 > G : 5 6 7 5 6 5 6 6 5 o . o O + p ~ #.2.",
"2.2.2.2.2.2.2.2.2.2.2.2.2.2.2.2.2.2.2.2.2.2.2.2.2.2.2.2.2.>.#.~ j + + + @ Y 7 G 7 : 8 6 G H 5 7 J K G 8 G J 6 o O o O + p ~ #.2.",
"2.2.2.2.2.2.2.2.2.2.2.2.2.2.2.2.2.2.2.2.2.2.2.2.2.2.2.2.2.>.#.~ j @ @ + @ K K 6 8 5 G 5 8 H G - 7 7 7 6 6 G 6 o o O + @ p ^ #.2.",
"2.2.2.2.2.2.2.2.2.2.2.2.2.2.2.2.2.2.2.2.2.2.2.2.2.2.2.2.2.>.#.~ j @ O + = 8 Y K H 7 - > 6 7 6 : 5 6 5 : 5 6 6 o X O + @ p ^ #.2.",
"2.2.2.2.2.2.2.2.2.2.2.2.2.2.2.2.2.2.2.2.2.2.2.2.2.2.2.2.2.>.#.~ j + O O O Y 7 H G 5 - 7 J K J 5 8 G 7 7 8 8 7 @ o o + + p ~ #.2.",
"2.2.2.2.2.2.2.2.2.2.2.2.2.2.2.2.2.2.2.2.2.2.2.2.2.2.2.2.2.>.#.~ j + + O - - G G H 8 8 G K L P 5 H J H H J K U o X o O + p ~ #.2.",
"2.2.2.2.2.2.2.2.2.2.2.2.2.2.2.2.2.2.2.2.2.2.2.2.2.2.2.2.2.>.#.~ j + + O # = J 7 G H 7 G J K 7 5 8 G 8 G 8 H H o X O + @ p ~ #.2.",
"2.2.2.2.2.2.2.2.2.2.2.2.2.2.2.2.2.2.2.2.2.2.2.2.2.2.2.2.2.>.#.~ j # @ + - T J H G 6 7 6 - 6 6 7 7 6 7 G H 8 7 o X O + + p ~ #.2.",
"2.2.2.2.2.2.2.2.2.2.2.2.2.2.2.2.2.2.2.2.2.2.2.2.2.2.2.2.2.>.#.~ j # @ + + P 8 J J 7 - > 7 > 8 7 8 6 G G 8 8 K o + O + @ p ^ #.2.",
"2.2.2.2.2.2.2.2.2.2.2.2.2.2.2.2.2.2.2.2.2.2.2.2.2.2.2.2.2.>.#.~ j @ @ O @ Y 5 7 8 6 = : > > 6 6 > 7 7 6 G H 8 o X O + + p ^ #.2.",
"2.2.2.2.2.2.2.2.2.2.2.2.2.2.2.2.2.2.2.2.2.2.2.2.2.2.2.2.2.>.#.~ j + + O # L 7 6 5 6 # 8 8 8 7 > - - = 6 H G G o X O O + p ~ #.2.",
"2.2.2.2.2.2.2.2.2.2.2.2.2.2.2.2.2.2.2.2.2.2.2.2.2.2.2.2.2.>.#.~ j # @ + @ G 7 H 7 6 > G J 8 8 8 7 : : 5 8 8 U X X o O + p ~ #.2.",
"2.2.2.2.2.2.2.2.2.2.2.2.2.2.2.2.2.2.2.2.2.2.2.2.2.2.2.2.2.>.#.~ j @ @ + + Y K H G G # 5 8 8 J H H 8 8 7 6 J G o o o O + p ~ #.2.",
"2.2.2.2.2.2.2.2.2.2.2.2.2.2.2.2.2.2.2.2.2.2.2.2.2.2.2.2.2.>.#.~ j @ @ @ - R 8 H J J 6 G H 7 7 6 H G H H : 6 G o o o O + p ~ #.2.",
"2.2.2.2.2.2.2.2.2.2.2.2.2.2.2.2.2.2.2.2.2.2.2.2.2.2.2.2.2.>.#.~ j + + + @ I 6 5 7 H 8 J P P G 7 7 G 8 8 H 8 8 o o O + + p ^ #.2.",
"2.2.2.2.2.2.2.2.2.2.2.2.2.2.2.2.2.2.2.2.2.2.2.2.2.2.2.2.2.>.#.~ j @ + O @ G 5 5 : H 8 8 8 8 8 H H H 7 6 7 8 8 o + + + @ p ^ #.2.",
"2.2.2.2.2.2.2.2.2.2.2.2.2.2.2.2.2.2.2.2.2.2.2.2.2.2.2.2.2.>.#.~ j @ + + @ o O + : o O o O O O O o o O o O O O X O + + @ p ~ #.2.",
"2.2.2.2.2.2.2.2.2.2.2.2.2.2.2.2.2.2.2.2.2.2.2.2.2.2.2.2.2.>.#.~ j # @ @ + o o @ . . X o X X X X X X X . X X O + o + @ # a ~ #.2.",
"2.2.2.2.2.2.2.2.2.2.2.2.2.2.2.2.2.2.2.2.2.2.2.2.2.2.2.2.2.>.#.~ j @ # @ @ @ @ + O O + + @ @ + + + O O O O + O O + + + @ p ~ #.2.",
"2.2.2.2.2.2.2.2.2.2.2.2.2.2.2.2.2.2.2.2.2.2.2.2.2.2.2.2.2.>.#.~ j = # # # @ @ + + @ + + + + + + + + + + + + @ @ @ # # # a ~ #.2.",
"2.2.2.2.2.2.2.2.2.2.2.2.2.2.2.2.2.2.2.2.2.2.2.2.2.2.2.2.2.,.#.~ j # # @ @ @ @ + @ # @ + + + @ @ @ + O O @ @ @ @ @ # # @ a ~ #.2.",
"2.2.2.2.2.2.2.2.2.2.2.2.2.2.2.2.2.2.2.2.2.2.2.2.2.2.2.2.2.,.#.~ z q r q q q q q q q q q q q q q q q q q q q q q q q y q k ( #.2.",
"2.2.2.2.2.2.2.2.2.2.2.2.2.2.2.2.2.2.2.2.2.2.2.2.2.2.2.2.2.>.#.] ~ ! ! ! ! ! ! ! ! ! ! ! ! ! ! ! ! ! ! ! ! ! ! ! ! ! ! ! ~ [ #.2.",
"2.2.2.2.2.2.2.2.2.2.2.2.2.2.2.2.2.2.2.2.2.2.2.2.2.2.2.2.2.,.*.#.#.#.#.#.#.#.#.#.#.#.#.#.#.#.#.#.#.#.#.#.#.#.#.#.#.#.#.#.#.#.*.2.",
"2.2.2.2.2.2.2.2.2.2.2.2.2.2.2.2.2.2.2.2.2.2.2.2.2.2.2.2.2.1.,.,.,.,.,.,.,.,.,.,.,.,.,.,.,.,.,.,.,.,.,.,.,.,.,.,.,.,.,.,.,.,.,.2.",
"2.2.2.2.2.2.2.2.2.2.2.2.2.2.2.2.2.2.2.2.2.2.2.2.2.2.2.2.2.2.2.2.2.2.2.2.2.2.2.2.2.2.2.2.2.2.2.2.2.2.2.2.2.2.2.2.2.2.2.2.2.2.2.2."
};
