/* XPM */
static const char *num8[] = {
/* columns rows colors chars-per-pixel */
"64 64 118 2 ",
"   c #030000",
".  c #0C0000",
"X  c #130000",
"o  c #1C0000",
"O  c #240000",
"+  c #2C0000",
"@  c #340000",
"#  c #3B0000",
"$  c #35000D",
"%  c #3D000D",
"&  c #370016",
"*  c #3D0016",
"=  c #3D001C",
"-  c #430000",
";  c #4B0000",
":  c #42000D",
">  c #49000D",
",  c #530000",
"<  c #5B0000",
"1  c #430016",
"2  c #4A0016",
"3  c #44001C",
"4  c #4B001C",
"5  c #52001C",
"6  c #630000",
"7  c #6B0000",
"8  c #740000",
"9  c #7B0000",
"0  c #400022",
"q  c #4C0022",
"w  c #4D002E",
"e  c #540025",
"r  c #5B0025",
"t  c #52002E",
"y  c #5A002D",
"u  c #540035",
"i  c #5C0032",
"p  c #560039",
"a  c #5D003B",
"s  c #61002E",
"d  c #68002A",
"f  c #620034",
"g  c #690032",
"h  c #64003D",
"j  c #68003D",
"k  c #5B0041",
"l  c #630042",
"z  c #6B0043",
"x  c #66004D",
"c  c #6B004B",
"v  c #730046",
"b  c #7A0046",
"n  c #73004C",
"m  c #670056",
"M  c #6A0052",
"N  c #6A005E",
"B  c #710055",
"V  c #73005C",
"C  c #670065",
"Z  c #6A0063",
"A  c #6E006C",
"S  c #740062",
"D  c #75006D",
"F  c #78006D",
"G  c #740072",
"H  c #7A0077",
"J  c #7C007B",
"K  c #830000",
"L  c #8B0000",
"P  c #940000",
"I  c #9B0000",
"U  c #A30000",
"Y  c #AC0000",
"T  c #B40000",
"R  c #BC0000",
"E  c #C40000",
"W  c #CB0000",
"Q  c #D50000",
"!  c #DC0000",
"~  c #E60000",
"^  c #EB0000",
"/  c #F40000",
"(  c #FC0000",
")  c #860081",
"_  c #890083",
"`  c #8D008B",
"'  c #91008E",
"]  c #940094",
"[  c #9A009A",
"{  c #9C009C",
"}  c #9D009C",
"|  c #A0009F",
" . c #A200A2",
".. c #A300A3",
"X. c #A700A7",
"o. c #AF00AF",
"O. c #B200B2",
"+. c #B400B4",
"@. c #B900B9",
"#. c #BC00BC",
"$. c #C200C2",
"%. c #C400C4",
"&. c #C700C7",
"*. c #C800C8",
"=. c #CF00CF",
"-. c #D100D1",
";. c #D700D7",
":. c #D800D8",
">. c #DE00DE",
",. c #E000E0",
"<. c #E600E6",
"1. c #EA00EA",
"2. c #EF00EF",
"3. c #F300F3",
"4. c #F700F7",
"5. c #F800F8",
"6. c #FC00FC",
"7. c magenta",
/* pixels */
"7.7.7.7.7.7.7.7.7.7.7.7.5.3.3.3.3.3.3.3.3.3.3.3.3.3.3.3.3.3.3.3.3.3.3.3.3.3.3.3.3.3.3.3.3.3.3.3.3.3.3.3.7.7.7.7.7.7.7.7.7.7.7.7.",
"7.7.7.7.7.7.7.7.7.7.2.,.;.*.&.&.&.&.&.&.&.&.&.&.&.&.&.$.&.&.&.&.&.&.&.&.&.&.$.$.&.&.&.&.&.&.&.&.&.&.&.*.:.,.3.7.7.7.7.7.7.7.7.7.",
"7.7.7.7.7.7.7.7.2.:.&.O.X.] ` _ _ _ _ _ _ _ _ _ _ _ _ _ _ _ _ _ _ _ _ _ _ _ _ _ _ _ _ _ _ _ _ _ _ _ _ ] X.O.&.>.2.7.7.7.7.7.7.7.",
"7.7.7.7.7.7.4.>.&.o.] J F V n v z j l h j j j j h h j j j j j h h h j j j j j h j j j j j j j z z z n V D ) ] o.*.<.5.7.7.7.7.7.",
"7.7.7.7.7.5.;.+.] H V b d r e > : - # # # # - - # - - # # # - # @ @ # - # # # # # # @ @ # - # % % 1 e r f n Z J } @.:.5.7.7.7.7.",
"7.7.7.7.5.;.o.` A n g e 3 1 : @ @ @ @ @ @ + # # @ @ @ + @ @ # + O O + @ @ @ # # @ @ # @ @ @ @ # # : # : q 5 f M G ] +.>.7.7.7.7.",
"7.7.7.7.,.@.` Z b f q 1 % % 1 # @ @ # # # # # # # # # @ @ # # - O + O + @ + + + # # # # @ # @ @ # # # 1 1 1 q i c D ] $.1.7.7.7.",
"7.7.7.3.&.[ A v r q 1 # @ @ @ @ # @ @ @ # - - < ; ; , ; ; - , ; O @ @ - ; # - ; ; @ # + O # # @ + + + # @ @ * q e c G  .=.3.7.7.",
"7.7.7.,.o.J n y 3 3 : @ @ @ @ @ O + < P E R Q R 9 L E ~ ~ P ! L 8 8 6 K U 7 8 ! Y 6 L # - 9 . # @ @ @ # # - 1 3 4 y M _ +.,.7.7.",
"7.7.5.*.] N s 4 > - ; - # - # # 6 Q P - Y 6 < 6 7 8 R L 8 8 8 7 6 < K , , < , L 9 < < , 9 - 9 o , O # # @ # # # # 4 f A  .-.4.7.",
"7.7.<.@.) n e % > - - - ; O 6 Y @ - R L 6 6 7 K < K 8 L ; 8 , 8 , , , ; - , + - 7 - , ; 7 6 < ; - - O + @ @ @ @ @ 0 e B ` $.2.7.",
"7.7.,.o.D f 1 3 # # # # o , E # 6 I L 7 - 7 ; 8 , 9 8 L ; 8 ; < ; @ # 6 6 o @ @ , @ + @ - < 8 < Y 6 @ O + @ @ @ @ % 1 l H O.<.7.",
"7.5.;. .S e 1 @ @ @ # - < ( 8 6 7 7 8 8 K - , 8 7 6 6 K ; 9 - , - @ @ 6   + + O # @ o @ O ; 7 7 7 7 K O X O + @ @ * % y D o.,.7.",
"7.4.*.] B 4 % @ + @ + @ ^ U L 7 6 8 8 < 9 ; - 6 < < < 9 6 6 ; < - + @   @ X # X # O o - @ O - 8 < 6 L P o + O O + $ $ e F X.>.7.",
"7.4.&.' c * @ + + + + P T 9 L 8 6 7 7 8 8 7 6 9 6 7 6 K 8 8 ; 7 6 ; . O X o ; O - O o @ + @ O # 6 7 P E ; o @ @ @ # # 4 S  .-.4.",
"7.4.&.` l 1 # @ @ @ 9 ( L L 8 6 # 7 7 7 8 7 < 7 < 6 7 L 8 L # ; 7 , @ # # - ; - ; O o # + @ @ @ @ < 8 K 7 + o O + @ # > V } *.3.",
"7.4.&.` l : @ + @ @ R R P 9 6 6 - , < < 7 6 ; 6 , 6 8 L 7 I 7 7 6 < ; - , , , - < # o - # @ + ; @ @ 6 9 K - + @ O + # : V } *.3.",
"7.4.&.` l : - @ O ; ! L P 9 6 7 , 6 8 7 7 6 6 8 6 K 8 L 6 P K L < 7 < < < 6 8 < 8 7 - - @ + O # - + @ , 9 7 o @ + + @ % V } *.3.",
"7.4.&.` l * # @ + 6 ! ^ K 8 7 7 ; 8 7 6 7 < 6 P L 8 8 7 6 7 6 8 7 6 6 < 6 6 7 K P 9 , 7 + # @ + @ ; # - 6 7 I . + O @ * V } *.3.",
"7.4.&.' ; - @ + O 9 Y Y K L 8 8 ; 9 9 7 8 6 7 9 < + o o + o @ O o o o o o O o @ 7 P , 9 @ @ # @ @ # # ; ; Y 8 . O O + % c } *.3.",
"7.4.&.` ; @ @ + + ! 6 I L 8 K 7 6 8 9 7 7 < 8 7 o - O O + O @ @ O + O O o O @ O , T 7 6 , ; # , < , - < ; 8 , . O O + # h } =.3.",
"7.4.&.` ; @ @ @ + ! 6 L L 7 K 7 , ; ; < 6 6 8 ; . + @ @ @ + @ # @ @ @ + + + + @ 9 L K 7 ; 6 , , < , , ; - < , . o O + # h } *.3.",
"7.4.&.' - @ + + # < I P K 9 K 8 @ @ , 7 < 7 9 ; . O @ @ # # # # # # @ @ @ @ @ + K 9 7 8 - ; 7 7 ; < ; , + , , o o O O @ a } =.3.",
"7.4.&.' ; + + + @ , ^ P K K K 7 < , 6 6 , 8 K - X O O O @ # @ # @ @ @ + + + @ + 9 Q < 7 6 ; - 7 < ; ; , ; < 7 o o O + ; h | =.3.",
"7.4.&.' ; @ # + + # K U ; K 7 7 , < 6 ; < 8 I 7 - + @ O O # - - - - # # @ @ # , / < 8 < ; , , - , < , ; 6 8 7 . O + - ; l  .*.3.",
"7.4.&.' ; @ @ + O 6 T P 7 K K 7 ; < ; - 6 6 L Q 8 I + < 6 6 8 8 8 7 7 7 < 8 E ( T 9 9 6 , < , , < 6 < # 7 , ; o O O @ @ l  .*.3.",
"7.4.$.' ; # @ O O . 8 9 7 8 9 7 < - # < < < 7 K K Y ( Y P U K 6 7 , ; < 8 K 8 9 L P 6 8 , , ; # ; 6 8 < 8 T O # @ O + # l  .*.3.",
"7.4.&.` ; @ # + O O @ 8 K , L 7 , - , 6 < < 8 8 9 K 9 8 7 6 < 6 6 7 7 9 8 8 K K L 8 , 8 , 6 ; ; , 7 , 8 K ; o + @ O @ @ l  .*.3.",
"7.4.&.` ; @ # + + O , + 8 8 8 6 , , 7 6 , 6 7 7 6 7 8 L 7 K , 8 < 7 8 8 9 8 9 8 8 9 , 7 < - - - 6 6 6 9 < O # - # + @ @ l  .*.3.",
"7.4.&.` , # - # @ + + - < ! 6 7 , , 8 6 < 7 6 6 < 7 8 K 6 K , 9 , 7 7 7 9 9 9 9 7 K 7 < < < ; < 7 6 8 P @ ; O # # + @ # l  .*.3.",
"7.4.&.` , @ - @ @ + @ # P 7 K 7 , 6 9 6 6 7 6 7 < 7 7 P 7 9 ; 9 , 7 7 7 7 7 9 9 6 9 6 , , ; , 6 8 , 8 ; o X @ @ # + @ # l X.=.3.",
"7.4.&.] ; # # @ @ + + @ . I 8 < < 7 < < < 6 6 8 6 7 7 P 6 9 ; 9 < 7 7 7 7 8 8 K 9 7 , 6 + @ + @ # , 9 X # + # # - + @ - k X.:.7.",
"7.4.&.] , # # @ + + + O T U 9 < 7 7 < < 6 < , 8 6 7 8 L 6 8 - 8 < 7 7 7 8 9 8 8 8 9 6 9 - < < , 8 7 L L   o + + @ + @ - l X.-.4.",
"7.4.&.` , @ # @ + + X 9 I 6 U 6 8 8 6 < < 6 7 6 6 8 8 K 6 9 ; 9 < 8 7 8 9 9 9 9 < 9 6 9 < < < - 6 7 R 7 ; X + + @ + @ # l  .*.3.",
"7.4.&.` ; # # @ + O < 6 6 P P < 6 , , ; # ; < 7 < 6 7 7 ; 7 # 7 , < < < 6 8 6 7 7 7 < 8 < < , ; < < 9 P P 7 X + @ + # @ l  .*.3.",
"7.4.&.` ; # - @ @ @ U < Y 9 P ; 6 , , , < , 6 8 7 7 K 9 6 8 ; < < 6 7 7 K K P K 8 8 < 6 6 6 6 7 9 6 8 P T , o # @ + # # l  .*.3.",
"7.4.&.` ; @ - @ @ , I R < 7 P ; < , , ; , 6 8 7 7 Y ; - # # # # - # # # # - , 7 L K 7 6 6 7 6 8 K 6 8 9 P K O @ + + # # l  .*.3.",
"7.4.&.` ; # # + o 9 8 9 7 < 8 , < < ; - ; 6 9 K - . . X X X @ O o O X . X X . o 6 Y 8 K 9 8 6 7 9 < 7 8 8 K - . O O + @ l  .*.3.",
"7.4.&.` ; @ @ + # ! , K 8 9 K 8 K 7 7 7 7 < 8 7 X @ + + O @ + + + + @ @ @ @ - # - E K 7 7 7 < 6 7 , 7 7 6 L , X O + @ @ l  .*.3.",
"7.4.&.` ; - # @ # ~ < L 8 9 K 8 9 7 7 7 7 7 L - . O O + + + @ + O O + O + + + + K 7 P 9 9 9 7 , 7 , 6 7 6 8 ; X o + @ # a } *.3.",
"7.4.&.` l 1 @ + ; 7 7 P 7 K K 7 7 6 6 < 6 7 L - X O + + O O O + + + + O + + @ + 7 Y 8 K K K 8 ; 7 < 8 8 < 6 9 o O O @ # a } *.3.",
"7.4.&.` l > # @ # @ E 9 8 9 K 6 < , < < 6 7 9 , X # @ @ + + + + + @ + + @ @ @ O U E 8 L K K 8 ; 7 6 7 9 7 K < X + @ @ # a } *.3.",
"7.4.&.` l : - @ # 6 E K 6 8 9 6 6 < , < 6 6 I , ; @ - + @ @ + O + + O O + + # < R 6 9 K L K 9 < L 7 8 K 7 P , . o + # # a } *.3.",
"7.4.&.` l % @ # O K L K 7 8 9 7 6 7 7 7 6 7 8 I I Q U 6 ; E Y T Y Y R E R W ^ Q 6 L 7 K L K 9 8 L 6 9 K 6 L - . o O + # a } *.3.",
"7.4.&.` l % @ @ O @ 6 U 7 9 9 7 7 < 6 6 7 9 K U 9 6 T , ; L U 9 9 8 I I Y T P K L P 7 9 7 K K 7 9 6 8 9 6 9 + # + O @ 1 c } *.3.",
"7.4.&.` l : @ @ @ O 9 < 6 9 9 7 7 7 7 7 < , 7 P K 6 L 9 6 8 6 8 8 < 9 7 9 P 9 9 8 9 6 8 7 L 8 6 8 6 7 8 8 U X o O + + = V [ *.3.",
"7.4.&.` l % @ + + + + Y I K 9 6 6 6 8 8 < < 8 P 9 ; K 9 8 7 6 7 K 9 < 8 8 L L L L L 7 9 9 P 7 , 9 7 9 9 L - + O + + @ % V [ *.3.",
"7.4.&.` l & + + + O 6 @ E L K 7 6 6 6 , , ; , 9 8 - L 6 7 8 < < 7 K 8 6 9 K L L K L < 7 8 K < < 7 8 P K 6 O @ + @ @ @ % V [ *.3.",
"7.4.&.` c * @ @ + + + < 6 P P K 8 8 8 8 9 9 K P K , 9 8 8 9 K 9 8 K P K 8 8 7 9 8 8 < < , 7 6 - 6 7 9 8 - @ + @ @ # # 4 V } =.3.",
"7.4.&.] B 4 $ @ @ + + X + ; L 9 9 9 9 8 8 K K P K , P 9 7 6 K L 8 9 K I 9 9 7 7 7 8 6 6 7 9 7 < < 7 K , + X + @ @ % : e S X.>.7.",
"7.4.-. .S e * @ # @ O O o O - 9 L L L K K 9 9 K 8 ; L 8 8 < 7 K K 8 8 K P 9 8 9 < 7 7 7 9 P 7 6 K 9 < o X O + @ # 1 % y D o.<.7.",
"7.7.>.o.D i 3 = @ @ + + + o < 6 T K P L K 8 9 P K < P 8 7 6 L L L 9 8 9 L I 9 9 K 9 7 K I K 7 L L ; o O # + @ # # : 2 h H o.<.7.",
"7.7.<.+.J z e * % @ @ + O O O + - E K L K 8 P I K < L 7 < 8 8 9 9 L 7 6 8 L K 9 9 K 6 L K K 8 7 @ O o + + + @ # - 1 e M ` #.2.7.",
"7.7.5.&.] N y 4 : # # @ + + O + + X 9 , 8 U L 8 7 L L 7 7 K L 8 8 L K 7 7 8 P 9 7 9 I 7 6 , # X + o + + @ # @ @ - 2 f Z } =.4.7.",
"7.7.7.>.o.J c e 3 = $ @ @ + O O O + X O # o O O O o O o O + o O O o o O O O o O O O O O O . X + + + @ @ # # % * 1 y M ) O.>.7.7.",
"7.7.7.3.&.] Z j e 3 : # - @ + + @ @ + @ + + + X o @ O @ O o @ O o X X . X X X X X X o X o o O O O + + + @ @ * 3 e l A } *.3.7.7.",
"7.7.7.5.>.+.` Z h e 4 1 : % # # # @ @ @ @ @ @ # @ @ - # @ @ @ @ @ + O O O O O o o O O O O O O O + + @ & * * q y l Z ` #.<.7.7.7.",
"7.7.7.7.4.;.o._ Z l e q q 1 > - # # # # @ @ @ + + O O + + + + + + + + + + + + + + + + + @ @ @ # # # - 1 4 e i x C ` o.:.5.7.7.7.",
"7.7.7.7.7.4.-.o.` A x a e e 1 % @ @ + + @ + @ # # - # # + O + @ + @ + + + @ # # - # @ @ # - - - - - : e e h m G ] O.;.5.7.7.7.7.",
"7.7.7.7.7.7.4.;.@.} _ G N x l k p p p w w w w w w w w t t w w w w w w t t w w w t t t t t u p p a a l x Z G `  .#.:.4.7.7.7.7.7.",
"7.7.7.7.7.7.7.5.<.=.@.X.] ` _ _ _ _ _ _ _ ) ) ) _ _ ) ) ) ) _ _ _ _ ) ) ) ) ) ) _ _ ) ) ) _ _ _ _ _ _ ` [ X.#.-.<.7.7.7.7.7.7.7.",
"7.7.7.7.7.7.7.7.7.4.1.:.*.&.&.&.&.&.&.&.&.&.&.&.&.&.&.&.&.&.&.&.&.&.&.&.&.&.&.&.&.&.&.&.&.&.&.&.&.&.&.&.=.>.<.5.7.7.7.7.7.7.7.7.",
"7.7.7.7.7.7.7.7.7.7.7.7.3.3.3.3.3.3.3.3.2.2.2.2.3.3.3.3.2.2.2.2.3.3.3.2.2.2.3.3.3.3.3.3.2.2.2.2.3.2.2.3.3.7.7.7.7.7.7.7.7.7.7.7.",
"7.7.7.7.7.7.7.7.7.7.7.7.7.7.7.7.7.7.7.7.7.7.7.7.7.7.7.7.7.7.7.7.7.7.7.7.7.7.7.7.7.7.7.7.7.7.7.7.7.7.7.7.7.7.7.7.7.7.7.7.7.7.7.7."
};
