/* XPM */
static const char *num9[] = {
/* columns rows colors chars-per-pixel */
"64 64 157 2 ",
"   c #0E0000",
".  c #130000",
"X  c #1C0000",
"o  c #1E000D",
"O  c #240000",
"+  c #2C0000",
"@  c #22000D",
"#  c #2E000D",
"$  c #330000",
"%  c #3B0000",
"&  c #33000D",
"*  c #3C000D",
"=  c #220016",
"-  c #22001C",
";  c #2B001C",
":  c #360016",
">  c #3C0016",
",  c #34001C",
"<  c #3C001C",
"1  c #370022",
"2  c #3C0024",
"3  c #3B002A",
"4  c #440000",
"5  c #4B0000",
"6  c #43000D",
"7  c #49000D",
"8  c #540000",
"9  c #5B0000",
"0  c #53000D",
"q  c #5C000D",
"w  c #430016",
"e  c #4B0016",
"r  c #43001C",
"t  c #4A001C",
"y  c #530016",
"u  c #5C0016",
"i  c #5A001C",
"p  c #640000",
"a  c #6C0000",
"s  c #67000D",
"d  c #68000D",
"f  c #730000",
"g  c #7B0000",
"h  c #7A000D",
"j  c #640016",
"k  c #62001C",
"l  c #6D001C",
"z  c #7F0016",
"x  c #76001C",
"c  c #440022",
"v  c #4B0023",
"b  c #4C002E",
"n  c #530023",
"m  c #590024",
"M  c #53002C",
"N  c #5B002C",
"B  c #4D0032",
"V  c #540034",
"C  c #5D0034",
"Z  c #560038",
"A  c #5B0039",
"S  c #640022",
"D  c #6F0024",
"F  c #64002A",
"G  c #760022",
"H  c #7A0024",
"J  c #73002A",
"K  c #620033",
"L  c #63003B",
"P  c #69003D",
"I  c #74003D",
"U  c #5E0040",
"Y  c #630042",
"T  c #6C0042",
"R  c #640049",
"E  c #6B004C",
"W  c #720044",
"Q  c #73004D",
"!  c #6F0053",
"~  c #660059",
"^  c #6B005C",
"/  c #730055",
"(  c #73005C",
")  c #670066",
"_  c #6C0062",
"`  c #6D006A",
"'  c #730062",
"]  c #7B0063",
"[  c #74006A",
"{  c #7D0069",
"}  c #770076",
"|  c #780074",
" . c #7E007D",
".. c #830000",
"X. c #8B0000",
"o. c #940000",
"O. c #9B0000",
"+. c #8D0016",
"@. c #8D001C",
"#. c #960016",
"$. c #990016",
"%. c #A40000",
"&. c #AB0000",
"*. c #B30000",
"=. c #BC0000",
"-. c #820026",
";. c #8D0022",
":. c #83002A",
">. c #8D002A",
",. c #9A0026",
"<. c #97002A",
"1. c #9C002A",
"2. c #AC0022",
"3. c #A9002A",
"4. c #A10035",
"5. c #B20035",
"6. c #C50000",
"7. c #CB0000",
"8. c #C2000D",
"9. c #D20000",
"0. c #DA0000",
"q. c #E40000",
"w. c #EC0000",
"e. c #F00000",
"r. c #FE0000",
"t. c #800065",
"y. c #860076",
"u. c #87007D",
"i. c #89007E",
"p. c #850081",
"a. c #890085",
"s. c #8B008B",
"d. c #93008D",
"f. c #930093",
"g. c #9B009B",
"h. c #A300A3",
"j. c #A600A6",
"k. c #AB00AB",
"l. c #AD00AD",
"z. c #B500B5",
"x. c #B600B6",
"c. c #BC00BC",
"v. c #C400C4",
"b. c #C800C8",
"n. c #CB00CB",
"m. c #D200D2",
"M. c #D700D7",
"N. c #DF00DF",
"B. c #E000E0",
"V. c #E500E5",
"C. c #E800E8",
"Z. c #EF00EF",
"A. c #F000F0",
"S. c #F100F1",
"D. c #F500F5",
"F. c #FB00FB",
"G. c magenta",
/* pixels */
"G.G.G.G.G.G.G.G.G.G.G.G.F.S.S.S.S.S.S.S.S.S.S.S.S.S.S.S.S.S.S.S.S.S.S.S.S.S.S.S.S.S.S.S.D.G.G.G.G.G.G.G.G.G.G.G.G.G.G.G.G.G.G.G.",
"G.G.G.G.G.G.G.G.G.D.C.B.m.v.v.v.v.v.v.v.v.v.v.v.v.v.v.v.v.v.v.v.v.v.v.v.v.v.v.v.v.v.v.v.m.N.B.Z.F.G.G.G.G.G.G.G.G.G.G.G.G.G.G.G.",
"G.G.G.G.G.G.G.G.V.m.c.l.h.f.s.a.a.a.a.a.a.a.a.a.a.a.a.a.a.a.a.a.a.a.a.a.a.a.a.a.a.a.s.f.g.k.x.v.m.N.Z.G.G.G.G.G.G.G.G.G.G.G.G.G.",
"G.G.G.G.G.G.S.M.c.h.s.} [ ( Q W T T P L P P P P P P P P P P P P P P P P P P P T T E Q / ] |  .s.h.x.b.N.S.G.G.G.G.G.G.G.G.G.G.G.",
"G.G.G.G.G.V.b.l.s.` / I F m e e 4 4 4 $ $ % $ % 5 4 4 % % % % 4 4 4 5 5 4 4 5 4 4 0 i i m K T Q _  .f.l.v.N.F.G.G.G.G.G.G.G.G.G.",
"G.G.G.G.S.b.h.p.' W F n e w * 6 4 4 % O + + + $ $ % % $ $ $ + $ % $ + % + $ % % 4 4 * % w t v m K E '  .g.x.M.S.G.G.G.G.G.G.G.G.",
"G.G.G.G.M.k.p.^ P m t w 6 w * % $ % % O + $ % % % % % 4 4 $ + O + $ $ % % + $ $ + $ $ $ w 6 6 r t n L E ` s.l.b.Z.G.G.G.G.G.G.G.",
"G.G.G.B.x.s.( P n r 6 * 4 4 $ % % % % X % 4 4 % % % 4 5 8 % $ $ 4 4 5 % % O + + $ + $ $ $ % % 6 6 6 v N P _ a.j.b.Z.G.G.G.G.G.G.",
"G.G.D.b.g.` T n t e 6 6 $ % % $ X 4 f f 9.q.=.0.q.w.%.o...X.O X %.8 0.X.a X.f X 4 $ + % % % $ * * * t e n L ^ p.j.m.D.G.G.G.G.G.",
"G.G.V.x.p.Q m w $ % % % $ $ % 4 ..w.w.g % f q.6.o.=.g f g a 8 p 8 9 a *.7.a 9 &.O.X 4 X + $ $ $ % % % 4 w n L ^ p.l.M.F.G.G.G.G.",
"G.F.M.j.[ K t 7 4 4 $ % % $ p r.&...g g p p g g X.g 9 5 5 % $ % O 4 + 4 8 a f f g ..$ a X + $ $ % $ $ $ > c n L ^ s.x.B.G.G.G.G.",
"G.S.b.f.! m t 7 4 % 4 $ O ..6.p g ....9 8 p a ..f f a a p a + % $ 8 p 5 4 a a f g f o.p %.$ X $ $ $ $ % * w r n L ` g.b.S.G.G.G.",
"G.S.v.a.E w * w % $ O + ..q.5 *.f f ..8 5 4 a a a f 8 a a 9 % X X % 5 8 % 4 p a g g a X.q.p 8 . O + + $ $ $ w v m E  .x.B.G.G.G.",
"G.Z.v.a.P : & & + + % p 6.8 ..f p p a % 4 4 9 g p f a p p 8 4 % X 5 4 4 4 9 8 a 9 8 p ..X.o.9.9 . O O + + $ : < r C _ g.b.D.G.G.",
"G.V.c.i.A % % % $ $ % 6.4 a ..a p p p 8 9 4 f g f f a p 8 5 w e y w e w y j j y 8 9 9 a g X.&.*.+ % $ $ $ $ % * * M E p.x.B.G.G.",
"G.B.x.y.V 4 % $ + + ..4 O.a f p 8 8 9 4 5 4 p a a f 9 9 p 8 : ; y y 0 & q * i i 9 8 8 8 g ..O.X.8 p . O $ $ $ $ * t C ` h.M.D.G.",
"G.B.x.y.Z 4 4 + O $ =.a g 4 p a 4 8 8 4 4 $ a X.f g a a a 5 0 n S v r l x S n m p 4 4 4 a ..X.o.f 4 + . + + + + : : n / f.v.S.G.",
"G.B.x.y.V 4 4 % + ..X.X.f 5 9 9 % 4 8 4 5 5 f ......g ..o.g h s y F -.:.>.J S w 8 9 5 4 p f g ..9 a 5 9 % $ $ $ $ % w R p.x.V.G.",
"G.B.x.y.B $ + % X 6.5 g a 4 9 8 5 8 p p 5 9 X.%.O.X.g a p p d s u G H 5.4.H D u p p 8 8 p a g X.a 9 &.g   + + % 4 4 w A | l.V.G.",
"G.B.x.y.b + + $ % *.a f 9 4 p 9 8 a f p 5 f O.%.p + X X O X @ o w 3 m <.1.3.;.z a a a p f g g ..8 8 f a 4 O + + $ % 6 M [ k.N.G.",
"G.B.x.y.b + $ $ 8 a g 9 p 5 p 8 4 p f f 9 f O.9 . . O $ + + = , 1 2 - , l ,.D k 8 p 8 5 8 f a p 8 9 a 6.9   X + + $ % t ' g.m.D.",
"G.B.x.y.b $ $ O 8 o.p 8 9 4 8 8 8 p f 9 8 f f + $ + + + + $ , 1 2 1 ; ; @.$.2.;.g o.g a f o.O.X.4 5 a g g 4 X O + $ $ c / f.v.S.",
"G.B.x.y.b % % % p p p 4 8 % 5 8 5 p f 8 4 a =.O % + + O + $ * : : : & 6 * 8.#.+.g g a 8 8 f g f 9 % 8 a ..4 X O + $ 4 w ! s.v.S.",
"G.B.x.y.b + + % . =.9 4 8 $ 5 8 5 9 a 9 4 p &.+ 5 % % + + + + + + % % + X.% O.f g f a 8 9 p f a p $ % ..X.... X + $ $ w E a.v.S.",
"G.B.x.y.b $ + + 8 O.9 5 5 $ 5 8 $ 9 9 8 5 9 &.... $ 4 $ % % $ $ + + + % 5 *.X.9 9 9 8 8 % 9 p 5 4 a $ ..X.o.X + + + $ * R a.v.S.",
"G.B.x.y.b $ $ + 8 % 9 9 9 % 5 8 % 5 9 9 4 4 X.%.o.a % 9 8 8 9 4 5 9 p f g %.9 p 9 9 p 8 4 a a 9 a 9 9 8 g ..9   + $ % * R a.v.S.",
"G.B.x.y.M % + + $ X p p 8 $ % 5 O 4 9 9 4 4 a o...%.e.%.8 4 X.p 5 % %.&.g 8 f f g X...g a g X.X.f a 4 4 8 g 5   O O + * R a.v.S.",
"G.B.x.y.V + + + + 8 o.a 9 % % 4 $ $ 9 $ $ 4 4 4 a 9 8 9 9 a 9 8 p g a 9 a 9 p 8 f p a 9 8 9 g f 9 5 % 5 8 g 5 O O + $ * R a.v.S.",
"G.B.x.y.V % $ $ $   8 O.X.4 p 5 % 4 8 9 5 8 a f p p f 9 8 9 p 4 a 8 9 5 8 % % $ % 4 8 5 % 4 5 p 5 $ 8 a p 8 p O . X O # R a.v.S.",
"G.B.x.y.V 4 $ $ + $ $ 0.f 9 a 9 4 5 5 % 5 5 f 9 9 g g f a p ..p 8 g g 9 p p 8 8 8 a a 9 p p p g a 8 a a f 9 9 O O O $ * R a.v.S.",
"G.B.x.u.V % % + + + O O p ..f p 8 9 9 $ $ % 5 5 8 8 8 8 9 5 9 p g X...g a 5 9 5 p a a a g g ..X.X.9 5 9 g a ..O X O O & R a.v.S.",
"G.C.v.u.L $ % + + $ + 8 O.%.O.f 8 9 p 4 8 4 a 8 9 a 9 a f p p 8 f g a p p 5 5 5 8 9 8 p p a a g f 9 8 8 p g X.O O + % * R a.v.S.",
"G.S.v.a.T w 6 & + $ + + O p p f 9 p f 4 4 4 9 8 5 8 8 5 9 p g 9 X.f ..a 5 8 4 % 4 % 5 9 9 p p a 9 $ % 8 a a p O . O + * R a.v.S.",
"G.S.b.s.! n w w $ $ + + X X % a a a ..5 5 4 8 a % % a 4 4 g g a ..o.a a ..X.a a f g g ....g o.X.X.p p f X...9 O O O O & R a.v.S.",
"G.D.m.h.[ C t * % $ $ + + $ . % 9 g ..4 8 5 8 5 $ + 8 g 8 9 a % a a f p f a p 9 9 9 5 + $ 5 8 9 8 9 8 4 f f 8 X X O + & R a.v.S.",
"G.G.B.x. .E n 4 % % % $ $ $ $ $ $ 8 9 5 &.g a g 9 9 9 p p p p p 8 f a p p f p 5 5 % O X X X $ 4 $ 4 5 9 f g 5 X O + + & R a.v.S.",
"G.G.Z.v.f.^ t 5 4 % % % % $ $ O O . X *.$ + + $ % % % % % % 4 % % % 5 5 f &.o.a 9 8 5 9 8 8 8 a 9 9 a a X.X.5 . + + $ * R a.v.S.",
"G.G.G.m.h.) t $ $ % % $ + + $ + O + $ X . .     .   X O O $ O $ $ 5 9 O 8 9 p p p 9 8 8 9 p 9 9 9 9 9 8 a a % O + + $ * R a.v.S.",
"G.G.F.m.h.t.y % 4 5 5 5 5 5 5 4 4 4 4 $ $ O O O X X O + + + $ + + O O + 5 o.p 9 4 5 4 5 5 % 8 9 8 4 8 p g ..O + O + + & R a.v.S.",
"G.G.F.m.h.] e 4 4 5 5 5 4 4 4 % % % % $ + $ $ O + $ $ O O + + + O O O X p O.X...f f f a ....O.o...g o.X.X.8 . O + % + : E a.v.S.",
"G.G.F.m.h.] w 4 4 4 % % % + $ $ + $ $ $ + + + O + + + + + + + + + + + $ O.4 f a p a 9 9 a a a ..f f g f f % + O $ $ $ > ! s.v.S.",
"G.G.F.m.h.] w 4 4 4 $ $ 4 $ O O + $ + $ $ $ + + + + + $ + $ $ O O + O p f ..f 9 5 9 5 5 5 4 8 9 p a g g 9 O X + + $ % v / s.v.S.",
"G.G.F.m.h.] w $ + $ % $ % % + O O + + O + $ $ $ + O + O X X O + % O 4 $ 8 O.g a 9 a 5 p 9 5 5 a p f g ..5   X + $ $ % t ' g.b.S.",
"G.G.F.m.h.] w 4 % + 9 7.O.*.=.*.&.*.6.O.*.=.%.*.*.%.&.%.&.*.=.f X 4 X 8 f a ..g a a a a 9 p a g O.o...f O $ O + $ $ > M [ k.N.G.",
"G.G.F.m.h.] > $ $ + X.g p p p 9 %.f a a f p 9 6.f p a 0.f g &.g 4 $ 8 a a p 9 8 8 8 9 8 9 9 9 f ..O.f % + X + $ % $ * C | l.V.G.",
"G.G.F.m.h.] > $ % $ o.9 9 p a p 5 9 a 9 a f g a a a X.g g ......p 8 5 4 9 a 5 8 p 8 9 8 9 8 f ....f 8 . X + + $ $ $ w Y p.x.V.G.",
"G.G.F.m.h.] w $ + % *.o.f 9 p 9 5 9 f 5 8 p p 9 a 9 a f X.X.O.O.8 4 a % 9 p p 8 9 8 5 5 p f g ..X.9 $ % O + $ $ : < n ! f.v.S.G.",
"G.G.F.m.h.] w % % + ..q.X.4 9 8 % 5 a 4 8 9 5 4 9 % 4 9 f a X.&.5 p g p p p 8 8 p 9 p 9 g X...g 9 % 9 X + + + + * r C ` h.M.D.G.",
"G.G.F.m.h.] > + + O g *.g f f p 8 a g 9 a a p f ......a p g g o.4 p ..o.g 8 8 4 8 a g ....X.o.p $ $ . + + $ % * * M R p.x.B.G.G.",
"G.G.F.m.h.] > + $ + f a a a f a 9 9 ..8 9 p f g a g ..o.o...a X.5 a ..O.g f 9 p p g X.X.X.X.9 + $ . O + + $ : r t C _ f.b.S.G.G.",
"G.G.F.m.h.] w + + $ ..=.f a g f p 9 f 5 8 9 X.f 4 8 5 9 p a X.o.% p g 9 5 ..o...a g g X.&.4 . + O + + + + $ : c m E  .l.N.G.G.G.",
"G.G.F.m.h.] > $ + + X.*.o.a X...a p g 9 a 9 ..a a 9 9 a ..g o.%.f ..X.9 $ f ..X.X.X.g 9 O $ X X + + $ $ & : < n L ` g.b.Z.G.G.G.",
"G.G.F.m.h.] : + $ + O.X.f a O.X.f f ..9 ..g g f ..a g g f f ..O.a g O.8 p g g f a 5 + X $ . + + $ % $ $ > c n L ^ s.x.N.G.G.G.G.",
"G.G.F.m.h.] : + $ $ g g a f f f a a a a ..a p ..f g O.g a g X...f p 5 o.9 8 % + . O $ + + + $ $ $ $ % % w n L ~ p.k.M.F.G.G.G.G.",
"G.G.F.m.h.] : + + + X O O X X O O X X O X O O O O X X X O X O O O 8 g + O .   O . $ $ + $ + + $ % * > w n C ^  .h.b.S.G.G.G.G.G.",
"G.G.F.m.h.] : $ + $ + . O + + X . X + O X X . . + O   X + O O + % X     . X X X X X O O + + + + $ * r m L ^ p.h.v.C.G.G.G.G.G.G.",
"G.G.F.m.h.] > + + + + + + + O O O O X O O X O O O O X O + + $ $ $ + + O + + + + + $ $ $ : * * : < v C E ` a.k.b.V.G.G.G.G.G.G.G.",
"G.G.F.m.h.] w % $ $ $ + + + + + + O O O + + + $ $ $ $ $ $ $ $ $ $ $ $ $ $ $ $ % % % % 6 w t v n N Y ~ } f.x.m.Z.G.G.G.G.G.G.G.G.",
"G.G.F.m.h.] w % $ $ + $ % % % % % % % % % % % % $ $ $ $ $ + $ $ $ $ $ % $ $ $ $ % % w r v M A R _ } s.j.v.M.F.G.G.G.G.G.G.G.G.G.",
"G.G.F.m.h.{ Z b M M b b b b M M M b b b b b b b b b b b b b b b b b b V Z Z Z Z Z U Y R ~ [ } a.g.l.v.M.Z.F.G.G.G.G.G.G.G.G.G.G.",
"G.G.F.m.k.d.p.p.p.p.p.p.p.p.p.p.p.p.p.p.p.p.p.p.p.p.p.p.p.p.p.p.p.p.p.p.a.a.p.a.p.a.a.s.f.j.l.c.b.M.C.G.G.G.G.G.G.G.G.G.G.G.G.G.",
"G.G.F.M.b.v.v.v.v.v.v.v.v.v.v.v.v.v.v.v.v.v.v.v.v.v.v.v.v.v.v.v.v.v.v.v.v.v.v.v.v.v.v.v.b.M.B.C.D.G.G.G.G.G.G.G.G.G.G.G.G.G.G.G.",
"G.G.G.S.S.S.S.S.S.S.S.S.S.S.S.S.S.S.S.S.S.S.S.S.S.S.S.S.S.S.S.S.S.S.S.S.S.S.S.S.S.S.S.S.S.G.G.G.G.G.G.G.G.G.G.G.G.G.G.G.G.G.G.G.",
"G.G.G.G.G.G.G.G.G.G.G.G.G.G.G.G.G.G.G.G.G.G.G.G.G.G.G.G.G.G.G.G.G.G.G.G.G.G.G.G.G.G.G.G.G.G.G.G.G.G.G.G.G.G.G.G.G.G.G.G.G.G.G.G."
};
