/* XPM */
static const char *mini_pistol[] = {
/* columns rows colors chars-per-pixel */
"34 18 31 1 ",
"  c black",
". c #040303",
"X c gray2",
"o c #0B0B0B",
"O c #0C0B0B",
"+ c gray5",
"@ c #111111",
"# c gray9",
"$ c #191919",
"% c gray11",
"& c #232323",
"* c #2A2A2A",
"= c gray18",
"- c #3A3A3A",
"; c #5A0A0A",
": c #414141",
"> c #464646",
", c #494949",
"< c gray32",
"1 c gray33",
"2 c #5F5F5F",
"3 c #686868",
"4 c gray47",
"5 c magenta",
"6 c #838383",
"7 c gray52",
"8 c #939393",
"9 c #B2B2B2",
"0 c #B9B9B9",
"q c #DFDFDF",
"w c white",
/* pixels */
"5555555555555555555555555555555555",
"5555555555555555555555555555555555",
"555555     555555555555555555 5555",
"555 5 <472    $      @@********:55",
"55 =  &#& 787-$qq@2222222244444@55",
"555 X-,11-+>+-$00 ========= = 4@55",
"5555 #oo#== =+$$$ $$OOO$$$$ $ > 55",
"55555         & & OOOOO......O.555",
"555555  + 5 5 9ww& >   >>>>>>>4 55",
"5555555 $$ 55 466@ %%%%%%%%$$$2 55",
"555555 $==>  5 3-   $$$$$$$$$$$ 55",
"555555 $=> 555 -; 5 >>>>>>>>>>> 55",
"55555 $=> 5555    5  = = = = = 555",
"55555 $=>@555555555555555555555555",
"55555 $=>*555555555555555555555555",
"555555 @*:555555555555555555555555",
"5555555555555555555555555555555555",
"5555555555555555555555555555555555"
};
