/* XPM */
static const char *blood_alien2[] = {
/* columns rows colors chars-per-pixel */
"32 32 3 1 ",
"  c #4FE22A",
". c #ABFA71",
"X c magenta",
/* pixels */
"XXXXXXXXXXXXXXXXXXXXXXXXXXXXXXXX",
"XXXXXXXXXXXXXXXXXXXXXXXXXXXXXXXX",
"XXXXXXXXXXXXXXX  XXXXXXXXXXXXXXX",
"XXXXXXXXXXXXXXX  XXXXXXXXXXXXXXX",
"XXXXXXXXXXXXXXX  XXXXXXXXXXXXXXX",
"XXXXXXXXXXXXXXX  XXXXXXXXXXXXXXX",
"XXXXXXXXXXXXXXX  XXXXXXXXXXXXXXX",
"XXXXXXXXXXXXXXX. XXXXXXXXXXXXXXX",
"XXXXXXXXXXXXXXX. XXXXXXXXXXXXXXX",
"XXXXXXXXXXXXXX X XXXXXXXXXXXXXXX",
"XXXXXXXXXXXXXX . XXXXXX XXXXXXXX",
"XXXXXXXXXXXXXX X.XXXX  XXXXXXXXX",
"XXXXXXXXXXXXXX. .XXXX XXXXXXXXXX",
"XXXXXXXXXXXXXX.X.XXX XXXXXXXXXXX",
"XXXXXXXXXXXXXX...XX  XXXXXXXXXXX",
"XXXXXXXXXXXXXX..X. XXXXXXXXXXXXX",
"XXXXXXXXXXXX .XXXX..  XXXXXXXXXX",
"XXXXXXXXXX ..X.XXXXX...      XXX",
"XXXXXXX  ..XX .XX.XXXXX....    X",
"XXXX   .XXXXXX..X..XXX. XXXXXXXX",
"XX  ..XXXXXXXX.X  ..X. XXXXXXXXX",
"  XXXXXXXXXXX.XXXXX. XXXXXXXXXXX",
"XXXXXXXXXXXXX.XXXXXX  XXXXXXXXXX",
"XXXXXXXXXXXXX XXXXXXXX XXXXXXXXX",
"XXXXXXXXXXXXX XXXXXXXXX XXXXXXXX",
"XXXXXXXXXXXXXXXXXXXXXXXXXXXXXXXX",
"XXXXXXXXXXXXXXXXXXXXXXXXXXXXXXXX",
"XXXXXXXXXXXXXXXXXXXXXXXXXXXXXXXX",
"XXXXXXXXXXXXXXXXXXXXXXXXXXXXXXXX",
"XXXXXXXXXXXXXXXXXXXXXXXXXXXXXXXX",
"XXXXXXXXXXXXXXXXXXXXXXXXXXXXXXXX",
"XXXXXXXXXXXXXXXXXXXXXXXXXXXXXXXX"
};
