/* XPM */
static const char *barrel4[] = {
/* columns rows colors chars-per-pixel */
"32 32 15 1 ",
"  c black",
". c #310000",
"X c #282828",
"o c #2F2F2F",
"O c #4F0000",
"+ c #7A0000",
"@ c #713232",
"# c #7A6500",
"$ c #C80000",
"% c red",
"& c #D23232",
"* c #C8C500",
"= c #FFD300",
"- c magenta",
"; c white",
/* pixels */
"--------------------------------",
"--------------------------------",
"--------------------------------",
"--------------------------------",
"--------------------------------",
"--------------------------------",
"--------------------------------",
"------------XX@@@--ooo----------",
"----------XOOX+++@OOOooX--------",
"--------XXX+X%%%$++++...X-------",
"-------X@@@@$===$=%%%++XX-------",
"-------XX+%%=;$;;==$%%++X-------",
"------oX&&%&$$$;;$$$=%++X-------",
"-----ooX&%=&$$$;;;@@O=O++X------",
"-----o@@@%=;;@@;;;#+==%..X------",
"-----oX++%=;;+##; ;$$=%+oXX-----",
"------XXX&&$;;**= ;$$=+X+XX-----",
"------oo&&=$;=* ==;;==+o+X------",
"------o@@@%=;== ==$$=%%.oXo-----",
"------Xo++%=@===%=O=%%+oXXX-----",
"-------X&&&+%=;%=+%$%++XXX------",
"-------XX&&$$$%$$$$$+++X--------",
"--------o&&&o%%%$$%+++XX--------",
"--------@@@@@X@$@@oO...X--------",
"----------XXXXXXXXoXXXXX--------",
"-------------XX-XX--XX----------",
"--------------------------------",
"--------------------------------",
"--------------------------------",
"--------------------------------",
"--------------------------------",
"--------------------------------"
};
