/* XPM */
static const char *barrel8[] = {
/* columns rows colors chars-per-pixel */
"32 32 14 1 ",
"  c black",
". c #310000",
"X c #282828",
"o c #2F2F2F",
"O c #4F0000",
"+ c #7A0000",
"@ c #713232",
"# c #7A6500",
"$ c #774A3F",
"% c #C80000",
"& c red",
"* c #D23232",
"= c #C8C500",
"- c magenta",
/* pixels */
"--------------------------------",
"--------------------------------",
"-----XoX--$---@@@---XoooXX------",
"---X$OOoX----&$$-@-XooOoooo-----",
"--Xoo+$$$X-&-------$$O$$oOoo----",
"-Xoo$$$$$--&&---%----&&&$$ooo---",
"Xoo$$$$&---&&--XXX-----$&&$..X--",
"ooo$$&&-&----XXoooX-----&&&+oo--",
"oo$@@&--&---Xooo%ooo-----&$$oo--",
"oo$$+&-----%o$$$$$oo$$X%--&$oX--",
"oo$$$------X$&&&&&oooo%%--$XX---",
"Xo$$&---$--%XoX--&-&&$oo--------",
"-XX$$------@-------&&$o@O--$++--",
"$--*--XX*%&---------&XX---&$o+--",
"---*-XoX*%&----------------&$o+-",
"@@$-&ooo$$-------------$---$$o.-",
"X+&-&ooo$$X-----------#XXX-&$oo-",
"X$&--ooo+#&#---------&$oXX-&$oo-",
"-X----ooo=$&-------- &$oo--$ooX-",
"-XX$--Xooo$&&------&&$o%o-+-X+--",
"Xo$$$-*X%oo$&=-&&&&& oooXX--$+--",
"o@@$&---Xooo$X-$&&&$ooooX---.---",
"oo+$$$---@ooX=-X$$$ooo%%---$----",
"ooo$$&&---XX---XXooooXO---&$X---",
"Xoo$$&&$--------XXXXX---&$$oXX--",
"Xoo*$$$*&----%- --+-%+&$&$oo+X--",
"-Xo$*$$&$*$-$&&---&$$&&$$oo++---",
"-XXooo$$$oXX$&$o--$$$$$$oo+o----",
"--XXo@@o@o$X@$@o$-@@oooOo...----",
"----Xoooo--XXoo----XoooX--------",
"------------XX------------------",
"--------------------------------"
};
