/* XPM */
static const char *barrel6[] = {
/* columns rows colors chars-per-pixel */
"32 32 17 1 ",
"  c black",
". c #310000",
"X c #282828",
"o c #2F2F2F",
"O c #4F0000",
"+ c #7A0000",
"@ c #713232",
"# c #7A6500",
"$ c #C80000",
"% c #E60800",
"& c red",
"* c #D23232",
"= c #FF9E00",
"- c #C8C500",
"; c #FFD300",
": c magenta",
"> c white",
/* pixels */
"::::::::::::::::::::::::::::::::",
":::::::::::::::X::::::::::::::::",
":::::::::::XXXXooXXX::::::::::::",
"::::::::XXXXoo@@@ooXX:::::::::::",
"::::::XOOo%oo&%%%@%%OXXX::::::::",
":::::Xo+%%%&%%==%%=O%%%OX:::::::",
"::::Xoo%&%=&&%&%$&;;==%%XX::::::",
":::XXo%&&&&;;&&%%%&;;;=%%..:::::",
"::XXo@@%%%&%&&%%;&%%&&&=%+XX::::",
"::XXo%+&&&&=%&%&$=&&%%&&%%%XX:::",
"::Xo%&&%%=;;%%&;;;;&%&%%%%%XX:::",
"::XX%%&&%&;&&%&;&;>%$$=&=%++XX::",
"::XXo*=&&*$&&$%&&&%%>;=&=%%+XX::",
":XXoo*&;&*$&;@&%&%%&%@&&&%%%+X::",
"XX@@%%&&&;&;;;=&%%&#%%%&%=%%.XX:",
"XXo+%%%&%&&&#&;=&;=%&>;&==%%oXX:",
"XXX%%=;%%%&&-;;;;;&%&$&+;=%ooXX:",
":XX%%=;;&%$%%&-;>& ;>=&%;%%+oXX:",
":XXo%=;>&%&&&%%&=&;;&&&%%%%+XXX:",
":XX@@%=&%&>@;&- &&=&$%%%%%.oXX::",
"::Xo+%=%%&=;;&% %%%%&&&&%%oXXX::",
"::Xo%%%%%&&==&%&%&===;=&%%oXX:::",
"::XXo*%%&&&%%;;&%&;=$&&%%%+X::::",
"::XXoo*%%&%*===%%==&&&%%%++X::::",
":::XXoo%%o%%%%%%%%&&%%%%+oX:::::",
"::::XXo@@o@o@%@ooo@@%%O...X:::::",
":::::XXXooXoooooooooooXoXX::::::",
":::::::XXXXXooooXXXXXXXXX:::::::",
"::::::::XXXXXX:::::XXXXX::::::::",
"::::::::::::::::::::::::::::::::",
"::::::::::::::::::::::::::::::::",
"::::::::::::::::::::::::::::::::"
};
