/* XPM */
static const char *barrel1[] = {
/* columns rows colors chars-per-pixel */
"32 32 6 1 ",
"  c #310000",
". c #7A0000",
"X c #713232",
"o c #D23232",
"O c magenta",
"+ c white",
/* pixels */
"OOOOOOOOOOOOOOOOOOOOOOOOOOOOOOOO",
"OOOOOOOOOOOOOOOOOOOOOOOOOOOOOOOO",
"OOOOOOOOOOOOOOOOOOOOOOOOOOOOOOOO",
"OOOOOOOOOOOOOOOOOOOOOOOOOOOOOOOO",
"OOOOOOOOOOOOOOOOOOOOOOOOOOOOOOOO",
"OOOOOOOOOOOOOOOOOOOOOOOOOOOOOOOO",
"OOOOOOOOOOOOO++++++OOOOOOOOOOOOO",
"OOOOOOOOOOO++++++++++OOOOOOOOOOO",
"OOOOOOOOOO++++++++++++OOOOOOOOOO",
"OOOOOOOOX++++++++++++++ OOOOOOOO",
"OOOOOOOO++++++++++++++++OOOOOOOO",
"OOOOOOO++++++++++++++++++OOOOOOO",
"OOOOOOO++++++++++++++++++OOOOOOO",
"OOOOOO++++++++++++++++++++OOOOOO",
"OOOOOO++++++++++++++++++++OOOOOO",
"OOOOOO++++++++++++++++++++OOOOOO",
"OOOOOO++++++++++++++++++++OOOOOO",
"OOOOOO++++++++++++++++++++OOOOOO",
"OOOOOO++++++++++++++++++++OOOOOO",
"OOOOOOO++++++++++++++++++OOOOOOO",
"OOOOOOO++++++++++++++++++OOOOOOO",
"OOOOOOOO++++++++++++++++OOOOOOOO",
"OOOOOOOOO++++++++++++++OOOOOOOOO",
"OOOOOOOOOo++++++++++++.OOOOOOOOO",
"OOOOOOOOXXX++++++++++   OOOOOOOO",
"OOOOOOOOOOOOO++++++OOOOOOOOOOOOO",
"OOOOOOOOOOOOOOOOOOOOOOOOOOOOOOOO",
"OOOOOOOOOOOOOOOOOOOOOOOOOOOOOOOO",
"OOOOOOOOOOOOOOOOOOOOOOOOOOOOOOOO",
"OOOOOOOOOOOOOOOOOOOOOOOOOOOOOOOO",
"OOOOOOOOOOOOOOOOOOOOOOOOOOOOOOOO",
"OOOOOOOOOOOOOOOOOOOOOOOOOOOOOOOO"
};
