/* XPM */
static const char *barrel9[] = {
/* columns rows colors chars-per-pixel */
"32 32 12 1 ",
"  c black",
". c #310000",
"X c #2F2F2F",
"o c #4F0000",
"O c #7A0000",
"+ c #713232",
"@ c #774A3F",
"# c #C80000",
"$ c red",
"% c #D23232",
"& c #C8C500",
"* c magenta",
/* pixels */
"***************XX***************",
"*****ooX******X+++@***XXXXX*****",
"****XO@@@*****$***+**@@o@@XXX***",
"***X@@@*****$*********o**$o@XX**",
"**X@@@********************$$@XX*",
"**X@@**********XXXX********$..X*",
"**@@*****$*****@@@@@***@@***O@X*",
"**@@++***********#*$*********@X*",
"**@**O$***@*#*******************",
"**@*******************$#@*******",
"************************@******@",
"************************+****OO*",
"********@%#******************@O*",
"*******X@%*******************$@O",
"**+@***X@*********************@.",
"**O****X@*********************@X",
"*******X@O********************@X",
"********X@&******************@X*",
"********XX@*******************O*",
"*********#X@*************@XX**O*",
"**++******XX@*************@X*.*@",
"**@O*******************#********",
"**@@******************@******@X*",
"**X@***************@@@X******@X*",
"**X@%***%******* **OX#O*****@OX*",
"**XX@%@***%****************@OO**",
"***XX@@$@***************$@@OX***",
"****XX++@+***+*+***++*@*oX...***",
"*****XXX*****@$****@@@X*XX@*****",
"*********@****@**@*XXX**********",
"********************************",
"********************************"
};
