/* XPM */
static const char *barrel2[] = {
/* columns rows colors chars-per-pixel */
"32 32 4 1 ",
"  c red",
". c #FFD300",
"X c magenta",
"o c white",
/* pixels */
"XXXXXXXXXXXX        XXXXXXXXXXXX",
"XXXXXXXXX              XXXXXXXXX",
"XXXXXXX                  XXXXXXX",
"XXXXXX      ........      XXXXXX",
"XXXXX    ..............    XXXXX",
"XXXX   .....oooooooo.....   XXXX",
"XXX   ...oooooooooooooo...   XXX",
"XX   ..oooooooooooooooooo..   XX",
"XX   ..oooooooooooooooooo..   XX",
"XX   ..oooooooooooooooooo..   XX",
"X   ..oooooooooooooooooooo..   X",
"X   ..oooooooooooooooooooo..   X",
"X   ..oooooooooooooooooooo..   X",
"   ..oooooooooooooooooooooo..   ",
"   ..oooooooooooooooooooooo..   ",
"   ..oooooooooooooooooooooo..   ",
"   ..oooooooooooooooooooooo..   ",
"   ..oooooooooooooooooooooo..   ",
"   ..oooooooooooooooooooooo..   ",
"X   ..oooooooooooooooooooo..   X",
"X   ..oooooooooooooooooooo..   X",
"X   ..oooooooooooooooooooo..   X",
"XX   ..oooooooooooooooooo..   XX",
"XX   ..oooooooooooooooooo..   XX",
"XX   ..oooooooooooooooooo..   XX",
"XXX   ...oooooooooooooo...   XXX",
"XXXX   .....oooooooo.....   XXXX",
"XXXXX    ..............    XXXXX",
"XXXXXX      ........      XXXXXX",
"XXXXXXX                  XXXXXXX",
"XXXXXXXXX              XXXXXXXXX",
"XXXXXXXXXXXX        XXXXXXXXXXXX"
};
