/* XPM */
static const char *barrel5[] = {
/* columns rows colors chars-per-pixel */
"32 32 15 1 ",
"  c black",
". c #310000",
"X c #282828",
"o c #2F2F2F",
"O c #4F0000",
"+ c #7A0000",
"@ c #713232",
"# c #7A6500",
"$ c #C80000",
"% c red",
"& c #D23232",
"* c #C8C500",
"= c #FFD300",
"- c magenta",
"; c white",
/* pixels */
"--------------------------------",
"--------------------------------",
"--------------------------------",
"--------------XX----------------",
"----------XXXXXXXXX-------------",
"---------XXooXX@@@oXXXX---------",
"-------XXoOO%%%%%%@OoOXXX-------",
"------XXoo+%;%%==$;%ooOXXX------",
"------Xoo%%;;%%;;;=;%%%o..------",
"------o@@%;=;%=;;===%;%%+XX-----",
"------oo+%===%%%=$%===;%ooXX----",
"-----Xo%;===;;;$=;;;$;=;%++X----",
"-----Xo&;;=;&$==%;;$$%==;%+X----",
"----XXX&=;=%&$;$%=;=@O===%X+----",
"----X@@X%==%;;=@%%=#;=%;=%X.X---",
"---XoX+X%%==;=+##= ;;=%==%XXX---",
"---XoXX%=;&=$%%**= ;$==+=;%+X---",
"---XXXX%=;%==%=* ==;;%=%;%%+X---",
"----XX@@%=%%;=;= ==$$===%o.oX---",
"----XXX+%;=%;@===%=O==;;%ooXX---",
"-----XXX%%==%%%%%=+=;%;%%ooXX---",
"------X&X%=&%%$;===;$+%%%+XX----",
"-------X&%%%&%%%%%%%XX%%++XX----",
"--------XX%%oo%%%o%%oXX+XXX-----",
"---------@@@X@o@oo@@XO...-------",
"----------XXXXXXooXX------------",
"--------------XXXXX-------------",
"--------------------------------",
"--------------------------------",
"--------------------------------",
"--------------------------------",
"--------------------------------"
};
