/* XPM */
static const char *barrel7[] = {
/* columns rows colors chars-per-pixel */
"32 32 16 1 ",
"  c black",
". c #310000",
"X c #282828",
"o c #2F2F2F",
"O c #4F0000",
"+ c #7A0000",
"@ c #713232",
"# c #7A6500",
"$ c #C80000",
"% c #E60800",
"& c red",
"* c #D23232",
"= c #FF9E00",
"- c #C8C500",
"; c #FFE000",
": c magenta",
/* pixels */
"::::::::::::::::::::::::::::::::",
"::::::::::%:::XXX::::XX:::::::::",
"::::%X::XX:%XX@@@o%XXXXX::::::::",
":::XXXOO%XXXo&%%o@o%%O%%XX::::::",
"::Xo%%+%%&X&%&&&%%o%O&&&O%X:::::",
"::o%%%%&&&o&&=;=$oo%&&&%&&%X::::",
":Xo%%&&&==o&&ooXX%Xo===&&&..X:::",
":X%%&&&=;&Xo%oXX:::Xo;==&&+%X:::",
":X%%@@==;&%XXX%%$%%Xoo;==&&%oX::",
":o%%%+&;XX:X$%&&&&&%%o$X=&%oX:::",
":o%%&&=ooX%X%&&===&&&$$XXooo%X::",
":oo%%%ooooXX$o=;===&&%X:%Xo++XX:",
":%oo*oXo*$&X@Xoo;;==&X@O:X&%+XX:",
":::X*X%o*$&=XXXXXoooXX:::=&&%+X:",
":@@%=&:o%%&=;X:::::XXX:%X;=%%.X:",
"::+&;&:o%%&==;X:::XX#%&:X;=&%X::",
"::%&XX:%%%+#=#X::XX =&%XX=&&%X::",
"::Xo%&X:o%%-&&&:X;;=&&$XX+&%+:::",
":Xo%&&=*o$%&&-&o=== &%o%oo%o+:::",
":o%%%&=;Xoo%&%o&&&&&%oooooo.%:::",
":o@@&&==;X@o%-o &&&%o$$o=&%oX:::",
":o%+%%&==;X:X:X %%%ooO;==&&%o:::",
":oo%%&&&==X%:::Xooo;;===&%&%o:::",
":oo%*&&%*=&X:$;::X+=$+&&&%%+X:::",
":Xoo%*%&&&*X%&==X&&%&&&%&%++X:::",
"::X%o%%&%%%X%&&%X%&%%&&%%+oXX:::",
"::XXXo@@%@X:@&@::X@@%%%O...X::::",
":::XXXXXXX%::%::%:Xooooo%X::::::",
"::::::::::::::::::::XXXXX:::::::",
"::::::::::::::::::::::::::::::::",
"::::::::::::::::::::::::::::::::",
"::::::::::::::::::::::::::::::::"
};
