/* XPM */
static const char *barrel10[] = {
/* columns rows colors chars-per-pixel */
"32 32 9 1 ",
"  c #310000",
". c #4F0000",
"X c #7A0000",
"o c #713232",
"O c #774A3F",
"+ c #C80000",
"@ c red",
"# c #D23232",
"$ c magenta",
/* pixels */
"$$$$$$$$$$$$$$$$$$$$$$$$$$$$$$$$",
"$$$..$$$$$$$$$ooo$$$$$$$$$$$$$$$",
"$$$XO$$$$$$$$@$$$o$$$$$.OO$$$$$$",
"$$OO$$$$$$$@$$$$$$$$$$.$$$.O$$$$",
"$OO$$$$$$$$$$$$$$$$$$$$$$$$$O$$$",
"$O$$$$$$$$$$$$$$$$$$$$$$$$$$  $$",
"$O$$$$$@$$$$$$$$$$$$$$$$$$$$XO$$",
"$$oo$$$$$$$$$$OOOOO$$$OO$$$$$$$$",
"$$$X@$$$O$$$$$$$$$$$$$$$$$$$$$$$",
"$$$$$$$$$O$$$$$$$$$$$$$$$$$$$$$$",
"$$$$$$$$$$$$$$$$$$$$$$$OO$$$$$$$",
"$$$$$$$$$$$$$$$$$$$$$$$OO$$$$XXO",
"$$$$$$$$$$$$$$$$$$$$$$$$$$$$$$$$",
"$$$$$$O$$$$$$$$$$$$$$$$$$$$$$$X$",
"$$$$$$O$$$$$$$$$$$$$$$$$$$$$$$$X",
"oO$$$$O$$$$$$$$$$$$$$$$$$$$$$$$ ",
"X$$$$$O$$$$$$$$$$$$$$$$$$$$$$$$O",
"$$$$$$OO$$$$$$$$$$$$$$$$$$$$$$$O",
"$$$$$$$$$$$$$$$$$$$$$$$$$$$$$$O$",
"$$$$$$$O$$$$$$$$$$$$$$$$$$$$$$X$",
"$$$$$$$$O$$$$$$$$$$$$$$$O$$$$$X$",
"oo$$$$$$$O$$$$$$$$$$$$$$$$$$$ $O",
"$X$$$$+$$$O$$$$$$$$$$$$$$$$$$$$$",
"$$$$$$$O$O$$$$$$$$$$$O$$$$$$$$$$",
"$O$$$$$$$$$$$$$$$$OOO$$$$$$$$O$$",
"$O$$$$$$$$$$$$$$$$$$$$$$$$$$$O$$",
"$$#$$$#$$$$$$$$$$$X$+X$$$$$$OX$$",
"$$O#$$$$#$$$$$$$$$$$$$$$$$$$XX$$",
"$$$O$$$$$$$$$$$$$$$$$$$$$OOX$$$$",
"$$$$ooOo$$$$o$o$$$oo$$$$.$   $$$",
"$$$$$$$$$$$$$$$$$$$$$$$$$$$$$$$$",
"$$$$$$$$$$$$$O$$$$$OOO$$$$$$$$$$"
};
