/* XPM */
static const char *barrel[] = {
/* columns rows colors chars-per-pixel */
"32 32 10 1 ",
"  c black",
". c #310000",
"X c #4F0000",
"o c #7A0000",
"O c #713232",
"+ c #7A6500",
"@ c #C80000",
"# c #D23232",
"$ c #C8C500",
"% c magenta",
/* pixels */
"%%%%%%%%%%%%%%%%%%%%%%%%%%%%%%%%",
"%%%%%%%%%%%%%%%%%%%%%%%%%%%%%%%%",
"%%%%%%%%%%%%%%%%%%%%%%%%%%%%%%%%",
"%%%%%%%%%%%%%%%%%%%%%%%%%%%%%%%%",
"%%%%%%%%%%%%%%%%%%%%%%%%%%%%%%%%",
"%%%%%%%%%%%%%%%%%%%%%%%%%%%%%%%%",
"%%%%%%%%%%%%%%%%%%%%%%%%%%%%%%%%",
"%%%%%%%%%%%%%%%%%%%%%%%%%%%%%%%%",
"%%%%%%%%%%%OXX%%%%%%%%%%%%%%%%%%",
"%%%%%%%%OOOOOOOOOOXXX...%%%%%%%%",
"%%%%%%%%%oooooooooooooo%%%%%%%%%",
"%%%%%%%%%###@@@@@@@@ooo%%%%%%%%%",
"%%%%%%%%%###@@@@@@@@ooo%%%%%%%%%",
"%%%%%%%%%###@@@@@@@@ooo%%%%%%%%%",
"%%%%%%%%OOOOOOOOOOXXX...%%%%%%%%",
"%%%%%%%%%ooooo++++ooooo%%%%%%%%%",
"%%%%%%%%%###@@$$ $@@ooo%%%%%%%%%",
"%%%%%%%%%###@@$  $@@ooo%%%%%%%%%",
"%%%%%%%%%###@@$  $@@ooo%%%%%%%%%",
"%%%%%%%%OOOOOOOOOOXXX...%%%%%%%%",
"%%%%%%%%%oooooooooooooo%%%%%%%%%",
"%%%%%%%%%###@@@@@@@@ooo%%%%%%%%%",
"%%%%%%%%%###@@@@@@@@ooo%%%%%%%%%",
"%%%%%%%%%###@@@@@@@@ooo%%%%%%%%%",
"%%%%%%%%OOOOOOOOOOXXX...%%%%%%%%",
"%%%%%%%%%%%%%%%%%%%%%%%%%%%%%%%%",
"%%%%%%%%%%%%%%%%%%%%%%%%%%%%%%%%",
"%%%%%%%%%%%%%%%%%%%%%%%%%%%%%%%%",
"%%%%%%%%%%%%%%%%%%%%%%%%%%%%%%%%",
"%%%%%%%%%%%%%%%%%%%%%%%%%%%%%%%%",
"%%%%%%%%%%%%%%%%%%%%%%%%%%%%%%%%",
"%%%%%%%%%%%%%%%%%%%%%%%%%%%%%%%%"
};
