/* XPM */
static const char *north[] = {
/* columns rows colors chars-per-pixel */
"64 64 13 1 ",
"  c #090A14",
". c #10141F",
"X c #151D28",
"o c #241527",
"O c #341C27",
"+ c #19332D",
"@ c #202E37",
"# c #4D2B32",
"$ c #394A50",
"% c #577277",
"& c #819796",
"* c #A8B5B2",
"= c #A4DDDB",
/* pixels */
"$$$%%%%%%%%%%%%%%$%%%&&&&&&&&&&&&&&&&%%&%.@$$%&%%$.%%%%%%%%%%%%%",
"%$$%%%%%%%%%%%%%%%%%%%%%&%%&&&%&&&&&&%%&%.@$$%&&&%@&&&&&&%%&&&&&",
"%$$%%%%%%%%%%%%%%%%%%%%%%&&&&&&&&&&&&$$&%X@$$%&&&%@&&&&&&%&&%%%%",
"%$%%%%%%%%%%%%%%%%%%%%%%%%%%%%%%%%%&&%o&%.@@$%&&&%.&&&&&&&&*&%%%",
"%%%%%%%%%%%&&%%&&%&&%%%&%%&&%&&&&&&&&%o&%o@$$%&&&%@&&&&&&&&*&%&&",
"%%%%%%%%%&$%%%%%%%%%%%%%%%%%%%%%%%%%%$@&%o@@$&&&&%X&&&&&&&&*&%&&",
"$$@$%%%%&%%%%%%%%%%%%%%%%&&&&&&&&&&&&&&*&@+@$&&&&%X&&&&&&&&*%%%%",
"$$.$%%%%%%%%%%%%%%%&&%%%%%%%%%%%%%%%%%%%&o.@$%%%$$%&&&&&&&&&%%%%",
"  X@@@@@@@@o@oo@@@o@@@@@@oXXXXXoo@@@@@@@@$@  .XX.....XXXX.XXXX..",
"%%%%%%%%%%%%&%%%%&.%%%%%%&&%&&&%%&&$$%%%$%&& &&&&&& &&&&&&%&&&%&",
"%%%%%%&%%%%%%%%%%%.%%%%%%%%%%%&%&&&@$$$X%%&&X&&&&&% &&&&&&$&&&&&",
"@+   .. ..    . .. .  .@X. .    .%&.$  X%         @  . @$.@.    ",
"%%%%%%&%%%%%%%%%%%%%%%%%%%%%%&&&&%&.$X X&%%%%%%&&&&&@@.%%%$&&&&&",
"%%%%%%&%%%%%%%%%%%%%%%&%&&&&&&&&&%%.@$@X&%&&%&&&&%&&&&&&&&$&&&&&",
"%%%%%%&%%%%%%%%%%%%%%&&&&&&&&&&&&%&X@%@.&%&&&&&&&%&&&&&&&&$&&&&&",
"%%%%%%&%%%%%%%%%%%%%&&&%&&&&&&&&&$%XX$@X&%&&&&&&&&&&&&&&&&%&&&&&",
"%%%%%%&%%%%%%%%%%&%&%&&%%&%&&&&&&%%Xo$@X&%&&&&&&&&&&&&&&&&%&&&&&",
"&%%%%%&%%%%%%%%&%%%%&&&%&&&&&&&&&%&XX$@X&&&&&&&&&&&&&&&&&&%&&&&&",
"%%%%%%&%%%%%&%%%%&$%%&&&&&&&&&&&&%%@o%@X&%&&&&&&&&&&&&&&&&%&&&&&",
"%%%%%%&%%%%%%%%&&&%%&&%%&&&&&&&&&%&@X%@X%%&&&&&&&&&&&&&&&&$&&&&&",
"%%%%%%%%%%%%%%%&%%$%%%%%%&&&&&&&%%%XX%@.&%&&&&&&&&&&&%&&&&$%%&&&",
"%%%%%%*%%%%%%%%%%& %%%%%%%%%%&&&%$%X@$@X&%%&&&&%&&&&%&$&&&X$&&&&",
"$$$$$$%@%$%$$%%%%%$%%%$$$%%%%%%&%%%Xo$@X&%&&&%%%%%%%%%@%%%X$%%%%",
"%%%%%%%%%%$$%$$$$$%%%%%%%%%$$%%%%%&X@$@X&%&&@$@X%%%%%%%%%%$%%%%%",
"O@O@@@@@o@@@@XoXXXX@@@@@@@@@@@@@@@@@@$@X&%&&$$@o@@@@@@@@@@o@@o@@",
"@o$$@@@@O@@o@@@@oX@@@@@@@@@@@@@@@@@@@$@X%%&&%%%%@@@@XX@@@@@@@@@O",
"%%%%%%X.%%%$$$$$$$$$$$$$$%$$%%$%%%%o@$@X%$%*$%%$$$%%%%%%%%%%%%%%",
"$$@@@%.@%@%$$$$$$$$$$$$$%%%%%$$%%%%X@$@X%%&$%%%%$$$@@%&%%%%%%%%%",
"%%%$@$.@&@%%%%%%%%%%%%%%%@%%$$X%@%%@@$@X%%&$%%$$$%%%@$&&&&&&&&&&",
"$@%$@$.@&$%%%%%%%%%%&%&%&@$%$@@&$%%@@$@X%%%%&%&&%&&%%&%%%%%%%%%%",
"%%%$@%.@&$%$$$$$$ $$$$%$%%%%%%$&#&%o@$@X%%%%%%&&%%%$%&%&&&&&&&&&",
"%$%$@$.$%$$%%%$%%X%%%%%%%$%%%$$&#&%o@%@X%%%&&&&&&&%@%&%&&&&&&&&&",
"%$%$@%.$%$$%%%%%%X%%%&%%%%%&&%@*$&%X@$@X%%$%&&&&&%%@&&%&&&&&&%&&",
"%$%$@%.@%$$%%%$%%X%%%&$%%%&&&%@*$&%@@$@.%%$&&&&&&&%@&&%&&&&&&&&&",
"%$%$$% $%$$$%%$%%.%%%&$%%%&&%%$*$&%@@%@X%%&%&&&&%&%$%&&&&&&&&&&&",
"%%%$@$.$%$$$%%%$%.%%%%$$%%%%%%$&$&%@@%@X%%&&&&&&&&%%%&&&%&&&&%%%",
"%%%$@$.$%$$$%%$$% %$%% $%%%%%$$&@%%@@%@X%%&%%%%%%%%%%%%%%%%%%&&&",
"%$$o.$.$%$%$$$$X$ $$$$.$$@$$$$@&@&%@@%XX%$%$%%$$$$$$$$$$%%%$@$%%",
"%%%%%%.$%@@$%%$.% %%%%%%&%%%%%%&&%%+@%oo%&&&&&&&&&&&&&&&&&&&&&&&",
"%%%%%&X@%%&%%%%@%O%%%%%%%%&%&%%%&%%@X@o.@&&&&&&&&&&&&&&%&&&&&&&&",
" ...XXX... XoXO@@@@@@@@@@@@@@@@@@@O@@@@oX...            ..     .",
"$%$$$%$$$$$$%%%%@o@@@$$$$@XX@$$$%%%%%%%&&&&%&$%&&&&&&&&&& @$%%$&",
"%&%%%%%%%%&%%%%%%%%%&&%%&%@%&%&%&&&%%&&&&&&&&&&&&&&&&&&&&*$%&&&&",
"%%$%%%%$%%$%%%%%%*%%%%%%&$@&@$%%%%%$@&&&%%%%%%%.&&$%&%&%@*@&%%%%",
"%&%%%%%$%&%%%%%%%*%&&&%%&$@&@%&&&&&%$&&&&&&&&&&X&& &&&&&$=@&&&&&",
"%%%%%&%$%&%%%&&%%&%&&&%%&$@&@%%&&&&%$&&&&&&&&&&@&&.&&&&&%*@&&%&&",
"%%%%%&%$%&$%%%%&$&%%&&%%&$@%@%&&&&&%$&&&&&&&&&&@&&.&&&&&%*@&&&&&",
"%%%%%%%$%&%%%&&&$*%%&&%%&.@&@%&&&&&%$&&&&&&&&&&$&&.&&&&&%*@&%%&&",
"%$$%%%%$%%$%%&&%%*$%%%$%&$@%@%&&&&&%$%&&&&&&&&&@%%@&&&&&%*@&%$%$",
"$$@%%%%$$$X%%%%%%*$$%$$%&$@%$%&&&&&%$%%%%%%%&%&$%&$%%%%&%&$&%$%%",
"@$$%@$#o$$$%$$$$%*@@@@X%&$@&@%%%%&%&$$$$$$$%%%%%&&X$$$%$%*@&$X..",
"%%%&%%%%%%%%%%%%%@%%%%%%%$@&@$&&&&&&&&&&&&&&&&&&&&%&&&&&&$@$&&&&",
"@@@@@@@$@@@@@@$$$$$$$$$$$$$$$$$$$$$$$$$$$$$$$$$$$$$$$$$$$$$$$$$$",
"..X.XXX.X@@@XXXXXXXXX.X.XXXXXXX.XoX@@X$$$@@XXXX.oXXX...X..X.XX.X",
"%%%%%%%%$%$@.%%%%%%.%%%%%%%%%%%%%%&%&$&@X@$o&&&&&&&&%&&&&&&&&&&&",
"%%%%%%$%&$%X.%&$$$$@$$$$$$$$$$%%%%%&&%&@@$%@$$$$$$$@%&%%%%%%%%$%",
"%%&&&&&%&%%. $%$$%%&&&&&&&&&&&&&&&%&&%&X@$%&&&&&&&& &%&&&&&&&&&&",
"oo$%%%%%%$%X.$%%%$$@$$$$$$$$@%%&X%%%&%&o@@%&&&&&&&&.%&&&&*&&&%. ",
"%%%%%%%%$$%..$%%%%%%&%&%&&&&$&&&%%&%&$&@@o%&&&&&&&& %&%%%&%%%%&%",
"&&%%%%%%$$%..$%%%%&%&%&&&&&&$&&&%&&&&$&@@@%&&&&&&&&.&&&&&&&&&&&&",
"&%%%%%%%%$%..%%%%%&&&%&&&&&&$&&&%%&%%$&o@X%&&&&&&&&X&&&&&&&&&&&%",
"%%%%%%%&%$%..%%%$$%&&&%&%%%%$&&&%%&&%$&@@@%&&&&&&&%&&%%&&&%%%%&&",
"%%%%%%%%%$%..$%$$$$%%%%%%%%%$%&&%%%%%$&@@@%&%%%%%%&&&&&&%%%&%%%%",
"%%&%%%%%%$%..$%%%%%%%%%%%%%%%%%%$%$$%%&@@@%&o&&%%&%%&%%%&&&&&&&&"
};
