/* XPM */
static char *test[] = {
"32 32 3 1",
". c #808080",
"# c #404040",
"X c #C0C0C0",
"................................",
"................................",
"..####....####....####....####..",
"..####....####....####....####..",
"..####....####....####....####..",
"..####....####....####....####..",
"................................",
"................................",
"..XXXX....XXXX....XXXX....XXXX..",
"..XXXX....XXXX....XXXX....XXXX..",
"..XXXX....XXXX....XXXX....XXXX..",
"..XXXX....XXXX....XXXX....XXXX..",
"................................",
"................................",
"..####....####....####....####..",
"..####....####....####....####..",
"..####....####....####....####..",
"..####....####....####....####..",
"................................",
"................................",
"..XXXX....XXXX....XXXX....XXXX..",
"..XXXX....XXXX....XXXX....XXXX..",
"..XXXX....XXXX....XXXX....XXXX..",
"..XXXX....XXXX....XXXX....XXXX..",
"................................",
"................................",
"..####....####....####....####..",
"..####....####....####....####..",
"..####....####....####....####..",
"..####....####....####....####..",
"................................",
"................................"
};
