/* XPM */
static const char *mini_hammer[] = {
/* columns rows colors chars-per-pixel */
"60 19 79 1 ",
"  c black",
". c #060606",
"X c gray3",
"o c #0E0E0E",
"O c #161616",
"+ c #191919",
"@ c #3D1414",
"# c #2C2C2C",
"$ c #2D2D2D",
"% c #323232",
"& c #3F3F3F",
"* c #560000",
"= c #560101",
"- c #6D0000",
"; c #642727",
": c gray25",
"> c #434343",
", c #444444",
"< c #535353",
"1 c gray33",
"2 c #694040",
"3 c #6A4B4B",
"4 c #785D5D",
"5 c #6C6464",
"6 c #686868",
"7 c #736E6E",
"8 c #797575",
"9 c #7B7B7B",
"0 c #7E7E7E",
"q c #840000",
"w c #9A0000",
"e c #A40505",
"r c #A80303",
"t c #AE0000",
"y c #AF0000",
"u c #AD0505",
"i c #AC0F0F",
"p c #A62424",
"a c #BC2929",
"s c #BA3E3E",
"d c #C50000",
"f c #CE0606",
"g c #DC0000",
"h c #D91010",
"j c #D61818",
"k c #E31313",
"l c #CD2424",
"z c #DF2222",
"x c #DB2727",
"c c #D12A2A",
"v c #CE3838",
"b c #CE3E3E",
"n c #D03D3D",
"m c #E02424",
"M c #E12525",
"N c #E42727",
"B c #E52828",
"V c #E13737",
"C c #E53D3D",
"Z c #E53E3E",
"A c #E63F3F",
"S c #CE5252",
"D c #E45252",
"F c #E55252",
"G c #E45353",
"H c #D76767",
"J c #E36868",
"K c #E36969",
"L c #E46868",
"P c magenta",
"I c #818181",
"U c gray61",
"Y c #A7A7A7",
"T c #B7B7B7",
"R c LightGray",
"E c gray83",
"W c #E6E6E6",
"Q c gray99",
"! c white",
/* pixels */
"PPPPPPPPPPPPPPPPPPPPPPPPPPPPPPPPPPPPPPPPPPPPPPPPPPPPPPPPPPPP",
"PPI5PPPPPPPPPPPPPPPPPPPPPPPPPPPPPPPPPPPPPPPPPPPPPPPPPPPPPPPP",
"PP97P  PPPPPPPPPPPPPPPPPPPPPPPPPPPPPPPPPPPPPPPPPPPPPPPPPPPPP",
"PP>4 WEPPPPPPPPPPPPPPPPPPPPPPPPPPPPPPPPPPPPPPPPPPPPPPPPPPPPP",
"PPI5 R PPPPPPPPPPPPPPPPPPPPPPPPPPPPPPPPPPPPPPPPPPPPPPPPPPPPP",
"PP97 T PPPPPPPPPPPPPPPPPPPPPPPPPPPPPPPPPPPPPPPPPPPPP>$+ PPPP",
"PP>4 T dg k k AAAJJ +>>PPPPPPPPPPPPPPPPPPPPPPPPPPPP$W!Y PPPP",
"PP%3U8rgfp p p gkcA AFF+$$$>>>>>1111$$>>111>$++$$&&&<11660PP",
"PPI5I5eddddddddddddd kBkkBBBAbFFFJJHH+UE!!!EU+BkkNxasnnSL<PP",
"PP>>111>$yyyyyyuyyyd ddddddddhhhMMMMVz+++++++dddddhMMljvv$PP",
"PPUE!!!EU   Owwwyyyy yyyyyyyyyyyyyyyyy+wyyyyyyy y y yyyy+PPP",
"PP%3I52;====---wwy             Oiiwwwq+qqqqqqqq.qoqXqqq+PPPP",
"PPI55I5@        ww =q =q -w -w, www--          P P P   PPPPP",
"PP97797yqq PPPPPPPPPPPPPPPPPPPPPPPPPPPPPPPPPPPPPPPPPPPPPPPPP",
"PPI5II5   PPPPPPPPPPPPPPPPPPPPPPPPPPPPPPPPPPPPPPPPPPPPPPPPPP",
"PP97997PPPPPPPPPPPPPPPPPPPPPPPPPPPPPPPPPPPPPPPPPPPPPPPPPPPPP",
"PP>4>>4PPPPPPPPPPPPPPPPPPPPPPPPPPPPPPPPPPPPPPPPPPPPPPPPPPPPP",
"PP%3%%3PPPPPPPPPPPPPPPPPPPPPPPPPPPPPPPPPPPPPPPPPPPPPPPPPPPPP",
"PPPPPPPPPPPPPPPPPPPPPPPPPPPPPPPPPPPPPPPPPPPPPPPPPPPPPPPPPPPP"
};
