/* XPM */
static const char *mini_mp[] = {
/* columns rows colors chars-per-pixel */
"49 24 45 1 ",
"  c black",
". c #040404",
"X c gray4",
"o c #0C0C0C",
"O c #101010",
"+ c #151313",
"@ c gray9",
"# c gray10",
"$ c #1E1E1E",
"% c #222222",
"& c gray14",
"* c #282525",
"= c #2B2929",
"- c gray18",
"; c #313131",
": c #353333",
"> c gray21",
", c #3A3A3A",
"< c #3C3939",
"1 c #3F3F3F",
"2 c #434343",
"3 c #464646",
"4 c gray29",
"5 c #4C4C4C",
"6 c #535151",
"7 c #575555",
"8 c #5B5B5B",
"9 c gray37",
"0 c #606060",
"q c gray40",
"w c #6E6C6C",
"e c #717171",
"r c #747474",
"t c #7E7E7E",
"y c magenta",
"u c #8D8D8D",
"i c #909090",
"p c gray58",
"a c #9D9D9D",
"s c #ABAAAA",
"d c #B6B6B6",
"f c gray72",
"g c #C6C6C6",
"h c gray84",
"j c white",
/* pixels */
"yyyyyyyyyyyyyyyyyyyyyyyyyyyyyyyyyyyyyyyyyyyyyyyyy",
"yyyyyyyyyyyyyyyyyyyyyyyyyyyyyyyyyyyyyyyyyyyyyyyyy",
"yyyyyyyyyyyyyyyyy. ;>>55yyyyyyyyyyyyyyyyyyyyyyyyy",
"yyyyyyyyyyyyyyyy wqqtppsqyyyyyyyyyyyyyyyyy$yyyyyy",
"yyyyyyyyyyyyyyyy q     i5yyyyyyyyyyyyyyyyy#yyyyyy",
"yyyyyyyyyyyyyyyy q yyy w;@45yyyyyyyyyyyyyy yyyyyy",
"yy,;;@  @;>5554; 9 yyy 6 eu;@    @@@;>>>>>>>>yyyy",
"yy,eOqOqO0r@rr05X6 $>. 5#OOq  qttt  tpip  ppt%yyy",
"yy@3O>.-o--o--==.&.1.#1 #..33--  --22  22--334 yy",
"yy @=O*O+o++o@@@O. @< *< ..*  @@@*  @@@*  ***@yyy",
"yyy         O@...        @@                  yyyy",
"yyyyyyyyyyy@1@   yyyy 11    yyyyyyyyyyyyyyyyyyyyy",
"yyyyyyyyyy#6@@ y yyyy   @;yyyyyyyyyyyyyyyyyyyyyyy",
"yyyyyyyyyy%7X 1y yyy  pps>qyyyyyyyyyyyyyyyyyyyyyy",
"yyyyyyyyy#,@X   yyy $4q=2d5yyyyyyyyyyyyyyyyyyyyyy",
"yyyyyyyyy#,@ yyyyyy $+%tpgjqyyyyyyyyyyyyyyyyyyyyy",
"yyyyyyyyy@%o yyyyyy X:6tpsh3yyyyyyyyyyyyyyyyyyyyy",
"yyyyyyyyyy   yyyyyyy @:6t=8a5yyyyyyyyyyyyyyyyyyyy",
"yyyyyyyyyyyyyyyyyyyy @:+@tsf#yyyyyyyyyyyyyyyyyyyy",
"yyyyyyyyyyyyyyyyyyyyy X:6q  yyyyyyyyyyyyyyyyyyyyy",
"yyyyyyyyyyyyyyyyyyyyy O>  yyyyyyyyyyyyyyyyyyyyyyy",
"yyyyyyyyyyyyyyyyyyyyyy  yyyyyyyyyyyyyyyyyyyyyyyyy",
"yyyyyyyyyyyyyyyyyyyyyyyyyyyyyyyyyyyyyyyyyyyyyyyyy",
"yyyyyyyyyyyyyyyyyyyyyyyyyyyyyyyyyyyyyyyyyyyyyyyyy"
};
